GeoramaCondensed-Light.ufo
<glyph name="exclam" format="2">
  <advance width="152.76"/>
  <unicode hex="0021"/>
  <outline>
    <contour>
      <point x="52.080000000000005" y="263.0" type="line"/>
      <point x="100.46" y="263.0" type="line"/>
      <point x="103.74000000000001" y="740.0" type="line"/>
      <point x="49.34" y="740.0" type="line"/>
    </contour>
    <contour>
      <point x="44.93999999999999" y="34.92" type="curve" smooth="yes"/>
      <point x="44.93999999999999" y="6.580000000000001"/>
      <point x="51.76" y="-2.02"/>
      <point x="76.38" y="-2.02" type="curve" smooth="yes"/>
      <point x="101.8" y="-2.02"/>
      <point x="107.82000000000001" y="6.580000000000001"/>
      <point x="107.82000000000001" y="34.92" type="curve" smooth="yes"/>
      <point x="107.82000000000001" y="63.46"/>
      <point x="101.8" y="72.06"/>
      <point x="76.38" y="72.06" type="curve" smooth="yes"/>
      <point x="50.959999999999994" y="72.06"/>
      <point x="44.93999999999999" y="63.46"/>
    </contour>
  </outline>
</glyph>
<glyph name="numbersign" format="2">
  <advance width="359.32"/>
  <unicode hex="0023"/>
  <outline>
    <contour>
      <point x="45.94" y="464.14" type="line"/>
      <point x="106.52" y="464.14" type="line"/>
      <point x="76.26" y="233.23999999999998" type="line"/>
      <point x="20.580000000000002" y="233.23999999999998" type="line"/>
      <point x="20.580000000000002" y="185.54" type="line"/>
      <point x="72.14" y="185.54" type="line"/>
      <point x="48.86000000000001" y="0.0" type="line"/>
      <point x="93.56" y="0.0" type="line"/>
      <point x="116.84000000000002" y="185.54" type="line"/>
      <point x="204.52" y="185.54" type="line"/>
      <point x="181.24" y="0.0" type="line"/>
      <point x="225.94" y="0.0" type="line"/>
      <point x="249.22" y="185.54" type="line"/>
      <point x="313.4" y="185.54" type="line"/>
      <point x="313.4" y="233.23999999999998" type="line"/>
      <point x="253.34" y="233.23999999999998" type="line"/>
      <point x="283.6" y="464.14" type="line"/>
      <point x="338.76" y="464.14" type="line"/>
      <point x="338.76" y="512.16" type="line"/>
      <point x="288.34000000000003" y="512.16" type="line"/>
      <point x="312.26" y="700.0" type="line"/>
      <point x="267.56" y="700.0" type="line"/>
      <point x="243.64000000000001" y="512.16" type="line"/>
      <point x="155.95999999999998" y="512.16" type="line"/>
      <point x="179.88" y="700.0" type="line"/>
      <point x="135.18" y="700.0" type="line"/>
      <point x="111.26" y="512.16" type="line"/>
      <point x="45.94" y="512.16" type="line"/>
    </contour>
    <contour>
      <point x="151.22" y="464.14" type="line"/>
      <point x="238.9" y="464.14" type="line"/>
      <point x="208.64" y="233.23999999999998" type="line"/>
      <point x="120.96" y="233.23999999999998" type="line"/>
    </contour>
  </outline>
</glyph>
<glyph name="dollar" format="2">
  <advance width="359.32"/>
  <unicode hex="0024"/>
  <outline>
    <contour>
      <point x="159.48" y="-10.0" type="curve" smooth="yes"/>
      <point x="251.02" y="-10.24"/>
      <point x="315.28000000000003" y="43.3"/>
      <point x="315.28000000000003" y="145.38" type="curve" smooth="yes"/>
      <point x="315.28000000000003" y="247.29999999999998"/>
      <point x="266.08" y="309.44"/>
      <point x="204.72000000000003" y="368.36" type="curve" smooth="yes"/>
      <point x="148.72" y="423.75999999999993"/>
      <point x="106.94" y="479.16"/>
      <point x="106.94" y="557.64" type="curve" smooth="yes"/>
      <point x="106.94" y="621.24"/>
      <point x="139.76000000000002" y="659.8"/>
      <point x="196.84000000000003" y="659.8" type="curve" smooth="yes"/>
      <point x="227.34" y="659.8"/>
      <point x="257.28" y="652.9200000000001"/>
      <point x="282.0" y="642.6" type="curve"/>
      <point x="295.28000000000003" y="688.74" type="line"/>
      <point x="268.36" y="701.5999999999999"/>
      <point x="228.26" y="710.0"/>
      <point x="190.50000000000003" y="710.0" type="curve" smooth="yes"/>
      <point x="105.62" y="709.8399999999999"/>
      <point x="53.62" y="651.3199999999999"/>
      <point x="53.62" y="556.96" type="curve" smooth="yes"/>
      <point x="53.62" y="457.40000000000003"/>
      <point x="100.98" y="391.38000000000005"/>
      <point x="160.38" y="331.50000000000006" type="curve" smooth="yes"/>
      <point x="218.76" y="273.32"/>
      <point x="262.62" y="218.83999999999997"/>
      <point x="262.62" y="141.36" type="curve" smooth="yes"/>
      <point x="262.62" y="79.47999999999999"/>
      <point x="225.88000000000002" y="39.68"/>
      <point x="163.32" y="39.68" type="curve" smooth="yes"/>
      <point x="128.98000000000002" y="39.68"/>
      <point x="90.62" y="47.28000000000001"/>
      <point x="56.540000000000006" y="61.42" type="curve"/>
      <point x="44.080000000000005" y="14.42" type="line"/>
      <point x="75.54" y="-0.15999999999999948"/>
      <point x="120.72" y="-9.92"/>
    </contour>
    <contour>
      <point x="160.22" y="-105.0" type="line"/>
      <point x="209.24" y="-105.0" type="line"/>
      <point x="209.24" y="4.8999999999999995" type="line"/>
      <point x="160.22" y="-0.9799999999999998" type="line"/>
    </contour>
    <contour>
      <point x="160.22" y="697.5200000000001" type="line"/>
      <point x="209.24" y="701.8799999999999" type="line"/>
      <point x="209.24" y="804.64" type="line"/>
      <point x="160.22" y="804.64" type="line"/>
    </contour>
  </outline>
</glyph>
<glyph name="ampersand" format="2">
  <advance width="440.88"/>
  <unicode hex="0026"/>
  <outline>
    <contour>
      <point x="381.22" y="-12.180000000000001" type="line"/>
      <point x="435.84" y="-3.06" type="line"/>
      <point x="163.24" y="409.47999999999996" type="line" smooth="yes"/>
      <point x="130.32000000000002" y="461.96000000000004"/>
      <point x="118.77999999999999" y="505.76"/>
      <point x="118.77999999999999" y="547.98" type="curve" smooth="yes"/>
      <point x="118.77999999999999" y="622.12"/>
      <point x="147.44" y="659.4000000000001"/>
      <point x="199.61999999999998" y="659.4000000000001" type="curve" smooth="yes"/>
      <point x="250.45999999999998" y="659.4000000000001"/>
      <point x="274.59999999999997" y="620.1600000000001"/>
      <point x="274.59999999999997" y="553.74" type="curve" smooth="yes"/>
      <point x="274.59999999999997" y="505.46000000000004"/>
      <point x="265.36" y="467.0"/>
      <point x="236.04000000000002" y="439.18000000000006" type="curve"/>
      <point x="260.62" y="410.43999999999994" type="line"/>
      <point x="304.44" y="447.24"/>
      <point x="322.5" y="498.61999999999995"/>
      <point x="322.5" y="563.3399999999999" type="curve" smooth="yes"/>
      <point x="322.5" y="657.72"/>
      <point x="279.82" y="710.0"/>
      <point x="198.92000000000002" y="710.0" type="curve" smooth="yes"/>
      <point x="110.8" y="710.0"/>
      <point x="65.38" y="654.36"/>
      <point x="65.38" y="548.98" type="curve" smooth="yes"/>
      <point x="65.38" y="495.92"/>
      <point x="82.64" y="438.90000000000003"/>
      <point x="120.56" y="377.88" type="curve" smooth="yes"/>
    </contour>
    <contour>
      <point x="187.58" y="-10.0" type="curve" smooth="yes"/>
      <point x="253.16" y="-10.0"/>
      <point x="299.28000000000003" y="21.639999999999997"/>
      <point x="330.82" y="82.22" type="curve"/>
      <point x="306.09999999999997" y="121.85999999999999" type="line"/>
      <point x="280.74" y="66.9"/>
      <point x="250.16" y="37.4"/>
      <point x="192.28000000000003" y="37.4" type="curve" smooth="yes"/>
      <point x="119.89999999999999" y="37.4"/>
      <point x="75.7" y="99.05999999999999"/>
      <point x="75.7" y="183.44" type="curve" smooth="yes"/>
      <point x="75.7" y="263.28000000000003"/>
      <point x="98.22" y="309.93999999999994"/>
      <point x="149.84" y="360.74" type="curve"/>
      <point x="126.76" y="397.90000000000003" type="line"/>
      <point x="55.46000000000001" y="342.70000000000005"/>
      <point x="24.8" y="276.48"/>
      <point x="24.8" y="179.14000000000001" type="curve" smooth="yes"/>
      <point x="24.8" y="67.75999999999999"/>
      <point x="85.26" y="-10.0"/>
    </contour>
    <contour>
      <point x="353.96000000000004" y="107.74" type="line"/>
      <point x="379.2800000000001" y="164.48000000000002"/>
      <point x="394.88" y="235.86"/>
      <point x="394.88" y="313.62" type="curve" smooth="yes"/>
      <point x="394.88" y="336.7"/>
      <point x="393.6" y="354.32"/>
      <point x="390.29999999999995" y="372.86" type="curve"/>
      <point x="346.3" y="370.31999999999994" type="line"/>
      <point x="349.3" y="353.48"/>
      <point x="350.42" y="338.52"/>
      <point x="350.32" y="318.62" type="curve" smooth="yes"/>
      <point x="350.22" y="253.16"/>
      <point x="340.74" y="195.81999999999996"/>
      <point x="325.0" y="155.45999999999998" type="curve"/>
    </contour>
  </outline>
</glyph>
<glyph name="quotesingle" format="2">
  <advance width="137.34"/>
  <unicode hex="0027"/>
  <outline>
    <contour>
      <point x="47.8" y="427.0" type="line"/>
      <point x="89.0" y="427.0" type="line"/>
      <point x="94.82" y="700.0" type="line"/>
      <point x="42.52" y="700.0" type="line"/>
    </contour>
  </outline>
</glyph>
<glyph name="parenleft" format="2">
  <advance width="213.42"/>
  <unicode hex="0028"/>
  <outline>
    <contour>
      <point x="51.99999999999999" y="265.0" type="curve" smooth="yes"/>
      <point x="51.99999999999999" y="-9.08"/>
      <point x="105.58000000000001" y="-194.20000000000002"/>
      <point x="204.9" y="-220.72000000000003" type="curve"/>
      <point x="204.9" y="-169.32" type="line"/>
      <point x="137.7" y="-135.42000000000002"/>
      <point x="99.48" y="9.340000000000002"/>
      <point x="99.48" y="265.0" type="curve" smooth="yes"/>
      <point x="99.48" y="520.6600000000001"/>
      <point x="137.7" y="665.42"/>
      <point x="204.9" y="699.32" type="curve"/>
      <point x="204.9" y="750.7199999999999" type="line"/>
      <point x="105.58000000000001" y="724.1999999999999"/>
      <point x="51.99999999999999" y="539.08"/>
    </contour>
  </outline>
</glyph>
<glyph name="parenright" format="2">
  <advance width="213.42"/>
  <unicode hex="0029"/>
  <outline>
    <contour>
      <point x="8.52" y="-169.32" type="curve"/>
      <point x="8.52" y="-220.72000000000003" type="line"/>
      <point x="107.84000000000002" y="-194.20000000000002"/>
      <point x="161.42000000000002" y="-9.08"/>
      <point x="161.42000000000002" y="265.0" type="curve" smooth="yes"/>
      <point x="161.42000000000002" y="539.08"/>
      <point x="107.84000000000002" y="724.1999999999999"/>
      <point x="8.52" y="750.7199999999999" type="curve"/>
      <point x="8.52" y="699.32" type="line"/>
      <point x="75.72" y="665.42"/>
      <point x="113.94" y="520.6600000000001"/>
      <point x="113.94" y="265.0" type="curve" smooth="yes"/>
      <point x="113.94" y="9.340000000000002"/>
      <point x="75.72" y="-135.42000000000002"/>
    </contour>
  </outline>
</glyph>
<glyph name="asterisk" format="2">
  <advance width="239.52"/>
  <unicode hex="002A"/>
  <outline>
    <contour>
      <point x="62.06" y="394.12" type="line"/>
      <point x="119.83999999999999" y="484.38" type="line"/>
      <point x="177.3" y="394.03999999999996" type="line"/>
      <point x="202.92" y="411.56" type="line"/>
      <point x="148.04" y="507.78000000000003" type="line"/>
      <point x="237.12" y="552.0" type="line"/>
      <point x="226.46000000000004" y="580.74" type="line"/>
      <point x="137.96" y="542.98" type="line"/>
      <point x="135.68" y="659.08" type="line"/>
      <point x="104.00000000000001" y="659.08" type="line"/>
      <point x="101.72" y="542.98" type="line"/>
      <point x="13.06" y="580.74" type="line"/>
      <point x="2.4" y="552.0" type="line"/>
      <point x="91.64000000000001" y="507.78000000000003" type="line"/>
      <point x="36.36" y="411.72" type="line"/>
    </contour>
  </outline>
</glyph>
<glyph name="plus" format="2">
  <advance width="402.44"/>
  <unicode hex="002B"/>
  <outline>
    <contour>
      <point x="176.36" y="88.68" type="line"/>
      <point x="226.06" y="88.68" type="line"/>
      <point x="226.06" y="272.7" type="line"/>
      <point x="360.56" y="272.7" type="line"/>
      <point x="360.56" y="321.59999999999997" type="line"/>
      <point x="226.06" y="321.59999999999997" type="line"/>
      <point x="226.06" y="505.6" type="line"/>
      <point x="176.36" y="505.6" type="line"/>
      <point x="176.36" y="321.59999999999997" type="line"/>
      <point x="41.88" y="321.59999999999997" type="line"/>
      <point x="41.88" y="272.7" type="line"/>
      <point x="176.36" y="272.7" type="line"/>
    </contour>
  </outline>
</glyph>
<glyph name="comma" format="2">
  <advance width="126.28"/>
  <unicode hex="002C"/>
  <outline>
    <contour>
      <point x="35.44" y="48.919999999999995" type="line"/>
      <point x="42.4" y="25.1"/>
      <point x="45.78" y="0.20000000000000018"/>
      <point x="45.78" y="-16.66" type="curve" smooth="yes"/>
      <point x="45.78" y="-75.9"/>
      <point x="27.279999999999998" y="-142.0"/>
      <point x="-14.86" y="-178.92" type="curve"/>
      <point x="21.920000000000005" y="-198.73999999999998" type="line"/>
      <point x="77.4" y="-153.16"/>
      <point x="96.94000000000001" y="-76.1"/>
      <point x="96.94000000000001" y="-15.739999999999998" type="curve" smooth="yes"/>
      <point x="96.94000000000001" y="8.76"/>
      <point x="93.13999999999999" y="32.52"/>
      <point x="86.16000000000001" y="54.88" type="curve"/>
    </contour>
  </outline>
</glyph>
<glyph name="hyphen" format="2">
  <advance width="231.94"/>
  <unicode hex="002D"/>
  <outline>
    <contour>
      <point x="22.060000000000002" y="250.8" type="line"/>
      <point x="209.88000000000002" y="250.8" type="line"/>
      <point x="209.88000000000002" y="302.28000000000003" type="line"/>
      <point x="22.060000000000002" y="302.28000000000003" type="line"/>
    </contour>
  </outline>
</glyph>
<glyph name="period" format="2">
  <advance width="126.6"/>
  <unicode hex="002E"/>
  <outline>
    <contour>
      <point x="31.9" y="35.46" type="curve" smooth="yes"/>
      <point x="31.9" y="7.12"/>
      <point x="38.72" y="-1.4800000000000002"/>
      <point x="63.34" y="-1.4800000000000002" type="curve" smooth="yes"/>
      <point x="88.76" y="-1.4800000000000002"/>
      <point x="94.78" y="7.12"/>
      <point x="94.78" y="35.46" type="curve" smooth="yes"/>
      <point x="94.78" y="64.0"/>
      <point x="88.76" y="72.60000000000001"/>
      <point x="63.34" y="72.60000000000001" type="curve" smooth="yes"/>
      <point x="37.92" y="72.60000000000001"/>
      <point x="31.9" y="64.0"/>
    </contour>
  </outline>
</glyph>
<glyph name="slash" format="2">
  <advance width="255.26"/>
  <unicode hex="002F"/>
  <outline>
    <contour>
      <point x="0.6399999999999997" y="-210.0" type="line"/>
      <point x="47.400000000000006" y="-210.0" type="line"/>
      <point x="254.62" y="740.0" type="line"/>
      <point x="207.67999999999998" y="740.0" type="line"/>
    </contour>
  </outline>
</glyph>
<glyph name="zero" format="2">
  <advance width="359.32"/>
  <unicode hex="0030"/>
  <outline>
    <contour>
      <point x="18.560000000000002" y="350.0" type="curve" smooth="yes"/>
      <point x="18.560000000000002" y="72.42"/>
      <point x="73.16" y="-10.0"/>
      <point x="179.66" y="-10.0" type="curve" smooth="yes"/>
      <point x="285.65999999999997" y="-10.0"/>
      <point x="340.76000000000005" y="73.14"/>
      <point x="340.76000000000005" y="350.0" type="curve" smooth="yes"/>
      <point x="340.76000000000005" y="627.76"/>
      <point x="288.36" y="710.0"/>
      <point x="179.66" y="710.0" type="curve" smooth="yes"/>
      <point x="72.62" y="710.0"/>
      <point x="18.560000000000002" y="629.2"/>
    </contour>
    <contour>
      <point x="72.74" y="347.65999999999997" type="curve" smooth="yes"/>
      <point x="72.74" y="599.3399999999999"/>
      <point x="111.11999999999999" y="660.1999999999999"/>
      <point x="179.66" y="660.1999999999999" type="curve" smooth="yes"/>
      <point x="248.24000000000004" y="660.1999999999999"/>
      <point x="286.61999999999995" y="599.52"/>
      <point x="286.61999999999995" y="347.65999999999997" type="curve" smooth="yes"/>
      <point x="286.61999999999995" y="102.46000000000001"/>
      <point x="248.78000000000003" y="39.800000000000004"/>
      <point x="179.66" y="39.800000000000004" type="curve" smooth="yes"/>
      <point x="110.57999999999998" y="39.800000000000004"/>
      <point x="72.74" y="102.28"/>
    </contour>
  </outline>
</glyph>
<glyph name="one" format="2">
  <advance width="359.32"/>
  <unicode hex="0031"/>
  <outline>
    <contour>
      <point x="33.04" y="0.0" type="line"/>
      <point x="343.06" y="0.0" type="line"/>
      <point x="343.06" y="49.0" type="line"/>
      <point x="223.66" y="49.0" type="line"/>
      <point x="223.66" y="700.8" type="line"/>
      <point x="195.0" y="700.8" type="line"/>
      <point x="18.8" y="585.4399999999999" type="line"/>
      <point x="34.36" y="536.52" type="line"/>
      <point x="169.82000000000002" y="628.26" type="line"/>
      <point x="169.82000000000002" y="49.0" type="line"/>
      <point x="33.04" y="49.0" type="line"/>
    </contour>
  </outline>
</glyph>
<glyph name="two" format="2">
  <advance width="359.5"/>
  <unicode hex="0032"/>
  <outline>
    <contour>
      <point x="35.349999999999994" y="43.0" type="curve"/>
      <point x="39.4" y="0.0" type="line"/>
      <point x="332.50000000000006" y="0.0" type="line"/>
      <point x="332.50000000000006" y="49.1" type="line"/>
      <point x="99.85" y="49.1" type="line"/>
      <point x="252.89999999999998" y="301.65"/>
      <point x="295.75" y="416.45000000000005"/>
      <point x="295.75" y="525.5" type="curve" smooth="yes"/>
      <point x="295.75" y="653.45"/>
      <point x="245.85" y="710.0"/>
      <point x="160.99999999999997" y="710.0" type="curve" smooth="yes"/>
      <point x="112.25000000000001" y="710.0"/>
      <point x="69.30000000000001" y="694.1"/>
      <point x="29.549999999999997" y="654.0" type="curve"/>
      <point x="52.349999999999994" y="606.6000000000001" type="line"/>
      <point x="83.55" y="638.15"/>
      <point x="114.25" y="650.55"/>
      <point x="151.05" y="650.55" type="curve" smooth="yes"/>
      <point x="206.25" y="650.55"/>
      <point x="241.45" y="613.9000000000001"/>
      <point x="241.45" y="515.0" type="curve" smooth="yes"/>
      <point x="241.45" y="420.0"/>
      <point x="194.45000000000002" y="297.3"/>
    </contour>
  </outline>
</glyph>
<glyph name="three" format="2">
  <advance width="359.5"/>
  <unicode hex="0033"/>
  <outline>
    <contour>
      <point x="11.299999999999999" y="38.45" type="line"/>
      <point x="50.1" y="5.05"/>
      <point x="90.85" y="-10.0"/>
      <point x="148.1" y="-10.0" type="curve" smooth="yes"/>
      <point x="254.95000000000002" y="-10.0"/>
      <point x="317.90000000000003" y="68.1"/>
      <point x="317.90000000000003" y="200.65" type="curve" smooth="yes"/>
      <point x="317.90000000000003" y="287.09999999999997"/>
      <point x="286.54999999999995" y="348.00000000000006"/>
      <point x="226.15" y="370.75" type="curve"/>
      <point x="273.5" y="396.3"/>
      <point x="299.75" y="456.75"/>
      <point x="299.75" y="533.55" type="curve" smooth="yes"/>
      <point x="299.75" y="641.4499999999999"/>
      <point x="249.04999999999998" y="710.0"/>
      <point x="151.2" y="710.0" type="curve" smooth="yes"/>
      <point x="102.85000000000001" y="710.0"/>
      <point x="57.949999999999996" y="695.8"/>
      <point x="25.900000000000002" y="670.4999999999999" type="curve"/>
      <point x="46.00000000000001" y="627.5" type="line"/>
      <point x="73.35000000000001" y="645.8"/>
      <point x="106.30000000000001" y="654.6999999999999"/>
      <point x="142.14999999999998" y="654.6999999999999" type="curve" smooth="yes"/>
      <point x="212.7" y="654.6999999999999"/>
      <point x="246.35" y="602.7500000000001"/>
      <point x="246.35" y="520.75" type="curve" smooth="yes"/>
      <point x="246.35" y="442.4"/>
      <point x="214.89999999999998" y="388.65"/>
      <point x="164.20000000000002" y="388.65" type="curve" smooth="yes"/>
      <point x="92.9" y="388.65" type="line"/>
      <point x="92.9" y="341.79999999999995" type="line"/>
      <point x="151.20000000000002" y="341.79999999999995" type="line" smooth="yes"/>
      <point x="225.29999999999998" y="341.79999999999995"/>
      <point x="264.04999999999995" y="295.4"/>
      <point x="264.04999999999995" y="203.85000000000002" type="curve" smooth="yes"/>
      <point x="264.04999999999995" y="102.85"/>
      <point x="219.25" y="43.00000000000001"/>
      <point x="143.4" y="43.00000000000001" type="curve" smooth="yes"/>
      <point x="97.39999999999999" y="43.00000000000001"/>
      <point x="66.1" y="54.849999999999994"/>
      <point x="34.9" y="80.45" type="curve"/>
    </contour>
  </outline>
</glyph>
<glyph name="four" format="2">
  <advance width="359.5"/>
  <unicode hex="0034"/>
  <outline>
    <contour>
      <point x="20.65" y="170.5" type="line"/>
      <point x="221.65" y="170.5" type="line"/>
      <point x="221.65" y="0.0" type="line"/>
      <point x="275.25" y="0.0" type="line"/>
      <point x="275.25" y="170.5" type="line"/>
      <point x="346.90000000000003" y="170.5" type="line"/>
      <point x="346.90000000000003" y="219.3" type="line"/>
      <point x="275.25" y="219.3" type="line"/>
      <point x="275.25" y="699.1" type="line"/>
      <point x="221.05" y="703.6" type="line"/>
      <point x="15.5" y="217.79999999999998" type="line"/>
    </contour>
    <contour>
      <point x="62.85" y="219.3" type="line"/>
      <point x="223.45" y="599.85" type="line"/>
      <point x="223.45" y="219.3" type="line"/>
    </contour>
  </outline>
</glyph>
<glyph name="five" format="2">
  <advance width="359.44"/>
  <unicode hex="0035"/>
  <outline>
    <contour>
      <point x="26.1" y="39.89" type="line"/>
      <point x="61.8" y="7.599999999999999"/>
      <point x="102.04000000000002" y="-9.94"/>
      <point x="157.15999999999997" y="-9.94" type="curve" smooth="yes"/>
      <point x="264.61" y="-9.94"/>
      <point x="331.13000000000005" y="66.96"/>
      <point x="331.13000000000005" y="203.5" type="curve" smooth="yes"/>
      <point x="331.13000000000005" y="327.06"/>
      <point x="280.44" y="391.99"/>
      <point x="185.27" y="393.03999999999996" type="curve" smooth="yes"/>
      <point x="106.72" y="393.34" type="line"/>
      <point x="121.97" y="649.05" type="line"/>
      <point x="307.59000000000003" y="649.05" type="line"/>
      <point x="307.59000000000003" y="700.0" type="line"/>
      <point x="77.35" y="700.0" type="line"/>
      <point x="54.1" y="357.93999999999994" type="line"/>
      <point x="63.79999999999999" y="346.64" type="line"/>
      <point x="162.28" y="346.64" type="line" smooth="yes"/>
      <point x="239.67999999999998" y="346.64"/>
      <point x="276.72999999999996" y="296.52"/>
      <point x="276.72999999999996" y="201.9" type="curve" smooth="yes"/>
      <point x="276.72999999999996" y="101.34"/>
      <point x="234.45000000000002" y="43.16"/>
      <point x="152.51" y="43.16" type="curve" smooth="yes"/>
      <point x="102.77" y="43.16"/>
      <point x="72.43" y="61.330000000000005"/>
      <point x="46.19" y="83.15" type="curve"/>
    </contour>
  </outline>
</glyph>
<glyph name="six" format="2">
  <advance width="359.44"/>
  <unicode hex="0036"/>
  <outline>
    <contour>
      <point x="185.69" y="-10.0" type="curve" smooth="yes"/>
      <point x="281.42" y="-10.0"/>
      <point x="338.15000000000003" y="73.24000000000001"/>
      <point x="338.15000000000003" y="212.14000000000001" type="curve" smooth="yes"/>
      <point x="338.15000000000003" y="339.3"/>
      <point x="287.72999999999996" y="413.18999999999994"/>
      <point x="202.47000000000003" y="413.18999999999994" type="curve" smooth="yes"/>
      <point x="143.05" y="413.18999999999994"/>
      <point x="88.09" y="372.41999999999996"/>
      <point x="67.75000000000001" y="314.31" type="curve"/>
      <point x="71.5" y="262.93000000000006" type="line"/>
      <point x="92.04" y="327.93"/>
      <point x="136.89000000000001" y="367.98"/>
      <point x="188.23000000000002" y="367.98" type="curve" smooth="yes"/>
      <point x="248.34" y="367.98"/>
      <point x="284.75" y="310.51000000000005"/>
      <point x="284.75" y="208.86999999999998" type="curve" smooth="yes"/>
      <point x="284.75" y="102.16"/>
      <point x="245.84" y="37.77"/>
      <point x="186.29999999999998" y="37.77" type="curve" smooth="yes"/>
      <point x="111.37999999999998" y="37.77"/>
      <point x="76.61" y="111.16000000000001"/>
      <point x="76.61" y="333.43999999999994" type="curve" smooth="yes"/>
      <point x="76.61" y="556.5999999999999"/>
      <point x="114.25" y="659.9300000000001"/>
      <point x="213.64999999999998" y="659.9300000000001" type="curve" smooth="yes"/>
      <point x="248.64999999999998" y="659.9300000000001"/>
      <point x="274.22999999999996" y="648.71"/>
      <point x="303.21" y="631.1000000000001" type="curve"/>
      <point x="323.52000000000004" y="675.01" type="line"/>
      <point x="291.20000000000005" y="697.39"/>
      <point x="252.68000000000004" y="710.0"/>
      <point x="208.53" y="710.0" type="curve" smooth="yes"/>
      <point x="82.74999999999999" y="710.0"/>
      <point x="21.209999999999997" y="601.52"/>
      <point x="21.209999999999997" y="328.48" type="curve" smooth="yes"/>
      <point x="21.209999999999997" y="81.52"/>
      <point x="71.55999999999999" y="-10.0"/>
    </contour>
  </outline>
</glyph>
<glyph name="seven" format="2">
  <advance width="359.44"/>
  <unicode hex="0037"/>
  <outline>
    <contour>
      <point x="119.63" y="0.0" type="curve"/>
      <point x="175.38000000000002" y="0.0" type="line"/>
      <point x="176.26999999999998" y="136.94"/>
      <point x="195.51999999999995" y="245.78000000000003"/>
      <point x="234.98000000000002" y="364.74" type="curve" smooth="yes"/>
      <point x="332.45" y="659.85" type="line"/>
      <point x="332.45" y="700.0" type="line"/>
      <point x="25.090000000000003" y="700.0" type="line"/>
      <point x="25.090000000000003" y="648.55" type="line"/>
      <point x="273.17" y="648.55" type="line"/>
      <point x="193.12" y="412.64" type="line" smooth="yes"/>
      <point x="139.10000000000002" y="252.39000000000001"/>
      <point x="119.63" y="138.72"/>
    </contour>
  </outline>
</glyph>
<glyph name="eight" format="2">
  <advance width="359.5"/>
  <unicode hex="0038"/>
  <outline>
    <contour>
      <point x="190.9" y="373.04999999999995" type="curve"/>
      <point x="222.9" y="351.75" type="line"/>
      <point x="299.4" y="403.9"/>
      <point x="327.54999999999995" y="466.15"/>
      <point x="327.54999999999995" y="543.85" type="curve" smooth="yes"/>
      <point x="327.54999999999995" y="649.8"/>
      <point x="274.8" y="710.0"/>
      <point x="182.5" y="710.0" type="curve" smooth="yes"/>
      <point x="88.0" y="710.0"/>
      <point x="33.25" y="648.5500000000001"/>
      <point x="33.25" y="539.7" type="curve" smooth="yes"/>
      <point x="33.25" y="314.95"/>
      <point x="289.65" y="376.6"/>
      <point x="289.65" y="169.09999999999997" type="curve" smooth="yes"/>
      <point x="289.65" y="84.6"/>
      <point x="250.5" y="37.7"/>
      <point x="180.9" y="37.7" type="curve" smooth="yes"/>
      <point x="109.2" y="37.7"/>
      <point x="69.95" y="87.8"/>
      <point x="69.95" y="178.95000000000002" type="curve" smooth="yes"/>
      <point x="69.95" y="260.45000000000005"/>
      <point x="99.25" y="318.09999999999997"/>
      <point x="163.85000000000002" y="359.0" type="curve"/>
      <point x="130.04999999999998" y="384.0" type="line"/>
      <point x="50.5" y="332.2"/>
      <point x="17.150000000000002" y="262.29999999999995"/>
      <point x="17.150000000000002" y="174.0" type="curve" smooth="yes"/>
      <point x="17.150000000000002" y="56.4"/>
      <point x="74.45000000000002" y="-10.0"/>
      <point x="178.3" y="-10.0" type="curve" smooth="yes"/>
      <point x="284.05" y="-10.0"/>
      <point x="342.95" y="54.85"/>
      <point x="342.95" y="170.70000000000002" type="curve" smooth="yes"/>
      <point x="342.95" y="413.65"/>
      <point x="84.85" y="351.5"/>
      <point x="84.85" y="542.9" type="curve" smooth="yes"/>
      <point x="84.85" y="618.05"/>
      <point x="120.55" y="662.05"/>
      <point x="180.85" y="662.05" type="curve" smooth="yes"/>
      <point x="243.49999999999997" y="662.05"/>
      <point x="277.45" y="618.6"/>
      <point x="277.45" y="536.65" type="curve" smooth="yes"/>
      <point x="277.45" y="467.29999999999995"/>
      <point x="257.75" y="417.8"/>
    </contour>
  </outline>
</glyph>
<glyph name="nine" format="2">
  <advance width="359.44"/>
  <unicode hex="0039"/>
  <outline>
    <contour>
      <point x="153.01000000000002" y="-10.0" type="curve" smooth="yes"/>
      <point x="278.79" y="-10.0"/>
      <point x="337.47" y="98.38000000000001"/>
      <point x="337.47" y="371.21999999999997" type="curve" smooth="yes"/>
      <point x="337.47" y="618.28"/>
      <point x="288.4200000000001" y="710.0"/>
      <point x="175.99" y="710.0" type="curve" smooth="yes"/>
      <point x="79.2" y="710.0"/>
      <point x="20.53" y="627.12"/>
      <point x="20.53" y="487.9199999999999" type="curve" smooth="yes"/>
      <point x="20.53" y="360.86"/>
      <point x="71.28999999999999" y="286.81"/>
      <point x="156.70999999999998" y="286.81" type="curve" smooth="yes"/>
      <point x="215.53" y="286.81"/>
      <point x="270.39000000000004" y="328.56"/>
      <point x="290.93" y="386.67" type="curve"/>
      <point x="291.92" y="445.45" type="line"/>
      <point x="268.90999999999997" y="370.87999999999994"/>
      <point x="221.69" y="332.0199999999999"/>
      <point x="170.45" y="332.0199999999999" type="curve" smooth="yes"/>
      <point x="111.38" y="332.0199999999999"/>
      <point x="73.83000000000001" y="389.75000000000006"/>
      <point x="73.83000000000001" y="491.28999999999996" type="curve" smooth="yes"/>
      <point x="73.83000000000001" y="598.3"/>
      <point x="114.78" y="662.2299999999999"/>
      <point x="175.68" y="662.2299999999999" type="curve" smooth="yes"/>
      <point x="248.59999999999997" y="662.2299999999999"/>
      <point x="282.06999999999994" y="588.84"/>
      <point x="282.06999999999994" y="366.56000000000006" type="curve" smooth="yes"/>
      <point x="282.06999999999994" y="143.4"/>
      <point x="247.19000000000003" y="40.07"/>
      <point x="147.89000000000001" y="40.07" type="curve" smooth="yes"/>
      <point x="112.78999999999999" y="40.07"/>
      <point x="84.44999999999999" y="51.29"/>
      <point x="55.470000000000006" y="68.89999999999999" type="curve"/>
      <point x="35.160000000000004" y="25.189999999999998" type="line"/>
      <point x="67.47999999999999" y="2.81"/>
      <point x="108.86" y="-10.0"/>
    </contour>
  </outline>
</glyph>
<glyph name="less" format="2">
  <advance width="402.44"/>
  <unicode hex="003C"/>
  <outline>
    <contour>
      <point x="363.62" y="89.46" type="line"/>
      <point x="363.62" y="138.32000000000002" type="line"/>
      <point x="89.42" y="294.43999999999994" type="line"/>
      <point x="363.62" y="451.6" type="line"/>
      <point x="363.62" y="498.8" type="line"/>
      <point x="38.82" y="318.67999999999995" type="line"/>
      <point x="38.82" y="270.14" type="line"/>
    </contour>
  </outline>
</glyph>
<glyph name="equal" format="2">
  <advance width="398.84"/>
  <unicode hex="003D"/>
  <outline>
    <contour>
      <point x="356.96" y="214.08" type="line"/>
      <point x="41.88" y="214.08" type="line"/>
      <point x="41.88" y="165.18" type="line"/>
      <point x="356.96" y="165.18" type="line"/>
    </contour>
    <contour>
      <point x="356.96" y="424.86" type="line"/>
      <point x="41.88" y="424.86" type="line"/>
      <point x="41.88" y="375.96" type="line"/>
      <point x="356.96" y="375.96" type="line"/>
    </contour>
  </outline>
</glyph>
<glyph name="greater" format="2">
  <advance width="402.44"/>
  <unicode hex="003E"/>
  <outline>
    <contour>
      <point x="363.62" y="269.42" type="line"/>
      <point x="363.62" y="317.96" type="line"/>
      <point x="38.82" y="498.8" type="line"/>
      <point x="38.82" y="450.08" type="line"/>
      <point x="313.02" y="293.72" type="line"/>
      <point x="38.82" y="136.88000000000002" type="line"/>
      <point x="38.82" y="89.46" type="line"/>
    </contour>
  </outline>
</glyph>
<glyph name="question" format="2">
  <advance width="299.75999999999993"/>
  <unicode hex="003F"/>
  <outline>
    <contour>
      <point x="111.96" y="262.76" type="line"/>
      <point x="160.52" y="262.76" type="line"/>
      <point x="160.56" y="338.22" type="line"/>
      <point x="243.61999999999998" y="407.58"/>
      <point x="283.84000000000003" y="459.9"/>
      <point x="283.84000000000003" y="568.9000000000001" type="curve" smooth="yes"/>
      <point x="283.84000000000003" y="693.2"/>
      <point x="217.52" y="749.8199999999999"/>
      <point x="137.5" y="749.8199999999999" type="curve" smooth="yes"/>
      <point x="89.96000000000001" y="749.8199999999999"/>
      <point x="42.800000000000004" y="728.44"/>
      <point x="8.24" y="694.8199999999999" type="curve"/>
      <point x="30.36" y="650.24" type="line"/>
      <point x="65.24000000000001" y="682.68"/>
      <point x="99.6" y="695.2599999999999"/>
      <point x="131.26000000000002" y="695.2599999999999" type="curve" smooth="yes"/>
      <point x="185.16" y="695.2599999999999"/>
      <point x="228.11999999999998" y="645.84"/>
      <point x="228.11999999999998" y="563.24" type="curve" smooth="yes"/>
      <point x="228.11999999999998" y="484.24"/>
      <point x="201.96" y="431.44"/>
      <point x="111.1" y="362.66" type="curve"/>
    </contour>
    <contour>
      <point x="104.69999999999999" y="34.92" type="curve" smooth="yes"/>
      <point x="104.69999999999999" y="6.580000000000001"/>
      <point x="112.78000000000002" y="-2.02"/>
      <point x="136.86" y="-2.02" type="curve" smooth="yes"/>
      <point x="161.38" y="-2.02"/>
      <point x="168.3" y="6.580000000000001"/>
      <point x="168.3" y="34.92" type="curve" smooth="yes"/>
      <point x="168.3" y="63.46"/>
      <point x="161.38" y="72.06"/>
      <point x="136.86" y="72.06" type="curve" smooth="yes"/>
      <point x="111.25999999999999" y="72.06"/>
      <point x="104.69999999999999" y="63.46"/>
    </contour>
  </outline>
</glyph>
<glyph name="at" format="2">
  <advance width="530.54"/>
  <unicode hex="0040"/>
  <outline>
    <contour>
      <point x="273.58" y="-123.4" type="curve" smooth="yes"/>
      <point x="334.84" y="-123.4"/>
      <point x="392.62" y="-94.7"/>
      <point x="419.84000000000003" y="-64.0" type="curve"/>
      <point x="404.54" y="-40.379999999999995" type="line"/>
      <point x="374.32" y="-69.0"/>
      <point x="328.90000000000003" y="-91.11999999999999"/>
      <point x="274.18" y="-91.11999999999999" type="curve" smooth="yes"/>
      <point x="136.06" y="-91.11999999999999"/>
      <point x="61.74" y="-3.4799999999999986"/>
      <point x="61.74" y="267.15999999999997" type="curve" smooth="yes"/>
      <point x="61.74" y="505.72"/>
      <point x="114.60000000000001" y="679.46"/>
      <point x="274.88" y="679.46" type="curve" smooth="yes"/>
      <point x="429.84000000000003" y="679.46"/>
      <point x="471.0" y="567.88"/>
      <point x="471.0" y="348.18" type="curve" smooth="yes"/>
      <point x="471.0" y="210.88"/>
      <point x="455.5" y="95.02"/>
      <point x="411.1" y="95.02" type="curve" smooth="yes"/>
      <point x="386.02" y="95.02"/>
      <point x="361.0" y="116.38"/>
      <point x="367.86" y="248.28" type="curve" smooth="yes"/>
      <point x="383.18" y="519.02" type="line"/>
      <point x="346.84000000000003" y="533.74"/>
      <point x="315.34" y="541.98"/>
      <point x="283.28000000000003" y="541.98" type="curve" smooth="yes"/>
      <point x="179.34" y="541.98"/>
      <point x="144.14" y="412.66"/>
      <point x="144.14" y="267.36" type="curve" smooth="yes"/>
      <point x="144.14" y="109.74"/>
      <point x="178.00000000000003" y="58.68"/>
      <point x="232.48000000000002" y="58.68" type="curve" smooth="yes"/>
      <point x="290.22" y="58.68"/>
      <point x="310.32000000000005" y="112.3"/>
      <point x="327.34000000000003" y="193.77999999999997" type="curve"/>
      <point x="330.42" y="85.5"/>
      <point x="353.32" y="54.76"/>
      <point x="403.6" y="54.76" type="curve" smooth="yes"/>
      <point x="480.54" y="54.76"/>
      <point x="506.06" y="190.85999999999999"/>
      <point x="506.06" y="351.42" type="curve" smooth="yes"/>
      <point x="506.06" y="598.58"/>
      <point x="443.82" y="709.9399999999999"/>
      <point x="278.28000000000003" y="709.9399999999999" type="curve" smooth="yes"/>
      <point x="91.8" y="709.9399999999999"/>
      <point x="25.06" y="524.8"/>
      <point x="25.06" y="269.6" type="curve" smooth="yes"/>
      <point x="25.06" y="-20.560000000000002"/>
      <point x="112.42" y="-123.4"/>
    </contour>
    <contour>
      <point x="248.8" y="109.02" type="curve" smooth="yes"/>
      <point x="220.22" y="109.02"/>
      <point x="197.82000000000002" y="144.78"/>
      <point x="197.82000000000002" y="266.32000000000005" type="curve" smooth="yes"/>
      <point x="197.82000000000002" y="378.28000000000003"/>
      <point x="221.42000000000002" y="501.32"/>
      <point x="282.4" y="501.32" type="curve" smooth="yes"/>
      <point x="296.96000000000004" y="501.32"/>
      <point x="313.82000000000005" y="496.9"/>
      <point x="332.26000000000005" y="489.09999999999997" type="curve"/>
      <point x="324.7" y="383.6" type="line" smooth="yes"/>
      <point x="306.76000000000005" y="138.32"/>
      <point x="287.14000000000004" y="109.02"/>
    </contour>
  </outline>
</glyph>
<glyph name="A" format="2">
  <advance width="382.46"/>
  <unicode hex="0041"/>
  <anchor x="366.82" y="0.0" name="ogonek"/>
  <anchor x="191.38" y="0.0" name="bottom"/>
  <anchor x="191.74" y="700.0" name="top"/>
  <outline>
    <contour>
      <point x="15.679999999999998" y="0.0" type="line"/>
      <point x="70.39999999999999" y="0.0" type="line"/>
      <point x="109.14" y="195.05999999999997" type="line"/>
      <point x="272.64" y="195.05999999999997" type="line"/>
      <point x="311.11999999999995" y="0.0" type="line"/>
      <point x="366.82" y="0.0" type="line"/>
      <point x="223.86" y="708.0" type="line"/>
      <point x="159.02" y="708.0" type="line"/>
    </contour>
    <contour>
      <point x="116.9" y="248.67999999999998" type="line"/>
      <point x="191.29999999999998" y="639.22" type="line"/>
      <point x="264.94" y="248.67999999999998" type="line"/>
    </contour>
  </outline>
</glyph>
<glyph name="B" format="2">
  <advance width="377.3"/>
  <unicode hex="0042"/>
  <anchor x="180.40000000000003" y="700.0" name="top"/>
  <anchor x="180.40000000000003" y="0.0" name="bottom"/>
  <outline>
    <contour>
      <point x="47.79" y="-2.89" type="line"/>
      <point x="105.8" y="-8.63"/>
      <point x="128.12" y="-10.0"/>
      <point x="172.95999999999998" y="-10.0" type="curve" smooth="yes"/>
      <point x="299.28" y="-10.0"/>
      <point x="354.13" y="51.71"/>
      <point x="354.13" y="188.38000000000002" type="curve" smooth="yes"/>
      <point x="354.13" y="280.06999999999994"/>
      <point x="315.96000000000004" y="344.53000000000003"/>
      <point x="250.82000000000002" y="364.85" type="curve"/>
      <point x="250.82000000000002" y="366.1600000000001" type="line"/>
      <point x="300.76" y="389.28"/>
      <point x="332.4699999999999" y="454.71"/>
      <point x="332.4699999999999" y="535.16" type="curve" smooth="yes"/>
      <point x="332.4699999999999" y="655.8"/>
      <point x="283.66999999999996" y="710.0"/>
      <point x="171.29999999999998" y="710.0" type="curve" smooth="yes"/>
      <point x="137.48000000000002" y="710.0"/>
      <point x="99.80999999999999" y="707.2299999999999"/>
      <point x="47.79" y="701.41" type="curve"/>
    </contour>
    <contour>
      <point x="101.99" y="377.76" type="line"/>
      <point x="101.99" y="655.6899999999999" type="line"/>
      <point x="131.82000000000002" y="659.43"/>
      <point x="144.22" y="660.43"/>
      <point x="170.73000000000005" y="660.43" type="curve" smooth="yes"/>
      <point x="247.97000000000003" y="660.43"/>
      <point x="282.22" y="616.11"/>
      <point x="282.22" y="522.81" type="curve" smooth="yes"/>
      <point x="282.22" y="438.98999999999995"/>
      <point x="245.26000000000002" y="377.76"/>
      <point x="187.21" y="377.76" type="curve" smooth="yes"/>
    </contour>
    <contour>
      <point x="101.99" y="44.07000000000001" type="curve"/>
      <point x="101.99" y="331.11000000000007" type="line"/>
      <point x="189.65" y="331.11000000000007" type="line" smooth="yes"/>
      <point x="260.61999999999995" y="331.11000000000007"/>
      <point x="300.08" y="276.69"/>
      <point x="300.08" y="190.2" type="curve" smooth="yes"/>
      <point x="300.08" y="83.92"/>
      <point x="263.59" y="40.050000000000004"/>
      <point x="171.09" y="40.050000000000004" type="curve" smooth="yes"/>
      <point x="153.46" y="40.050000000000004"/>
      <point x="138.24" y="41.27"/>
    </contour>
  </outline>
</glyph>
<glyph name="C" format="2">
  <advance width="345.62000000000006"/>
  <unicode hex="0043"/>
  <anchor x="206.64" y="700.0" name="top"/>
  <anchor x="207.14" y="0.0" name="bottom"/>
  <outline>
    <contour>
      <point x="29.860000000000003" y="338.42" type="curve" smooth="yes"/>
      <point x="29.860000000000003" y="65.76"/>
      <point x="97.60000000000001" y="-10.0"/>
      <point x="215.3" y="-10.0" type="curve" smooth="yes"/>
      <point x="253.42" y="-10.0"/>
      <point x="297.46000000000004" y="-4.919999999999999"/>
      <point x="329.0" y="6.24" type="curve"/>
      <point x="319.12" y="55.60000000000001" type="line"/>
      <point x="293.68" y="47.10000000000001"/>
      <point x="250.32" y="41.160000000000004"/>
      <point x="223.26" y="41.160000000000004" type="curve" smooth="yes"/>
      <point x="135.16000000000003" y="41.160000000000004"/>
      <point x="84.3" y="106.0"/>
      <point x="84.3" y="337.74" type="curve" smooth="yes"/>
      <point x="84.3" y="591.5799999999999"/>
      <point x="136.28" y="658.2"/>
      <point x="227.4" y="658.2" type="curve" smooth="yes"/>
      <point x="256.02000000000004" y="658.2"/>
      <point x="280.66" y="654.76"/>
      <point x="310.65999999999997" y="645.72" type="curve"/>
      <point x="321.56" y="694.1999999999999" type="line"/>
      <point x="289.58000000000004" y="705.48"/>
      <point x="257.28000000000003" y="710.0"/>
      <point x="221.52" y="710.0" type="curve" smooth="yes"/>
      <point x="93.62" y="710.0"/>
      <point x="29.860000000000003" y="615.3399999999999"/>
    </contour>
  </outline>
</glyph>
<glyph name="D" format="2">
  <advance width="400.0"/>
  <unicode hex="0044"/>
  <anchor x="188.56" y="700.0" name="top"/>
  <outline>
    <contour>
      <point x="172.76000000000002" y="-10.0" type="curve" smooth="yes"/>
      <point x="311.87999999999994" y="-10.0"/>
      <point x="370.10999999999996" y="92.59"/>
      <point x="370.10999999999996" y="350.02" type="curve" smooth="yes"/>
      <point x="370.10999999999996" y="608.06"/>
      <point x="316.34" y="710.0"/>
      <point x="171.99000000000004" y="710.0" type="curve" smooth="yes"/>
      <point x="131.64999999999998" y="710.0"/>
      <point x="92.68" y="707.6899999999999"/>
      <point x="47.79" y="702.46" type="curve"/>
      <point x="47.79" y="-4.34" type="line"/>
      <point x="85.42" y="-8.1"/>
      <point x="129.2" y="-10.0"/>
    </contour>
    <contour>
      <point x="168.08" y="39.070000000000014" type="curve" smooth="yes"/>
      <point x="150.02" y="39.070000000000014"/>
      <point x="123.67999999999999" y="40.41000000000001"/>
      <point x="101.84" y="42.53999999999999" type="curve"/>
      <point x="101.84" y="656.32" type="line"/>
      <point x="123.66000000000001" y="658.56"/>
      <point x="150.50000000000003" y="659.84"/>
      <point x="168.45000000000002" y="659.84" type="curve" smooth="yes"/>
      <point x="274.84000000000003" y="659.84"/>
      <point x="313.86" y="585.46"/>
      <point x="313.86" y="349.38" type="curve" smooth="yes"/>
      <point x="313.86" y="116.77"/>
      <point x="274.5" y="39.070000000000014"/>
    </contour>
  </outline>
</glyph>
<glyph name="E" format="2">
  <advance width="334.45000000000005"/>
  <unicode hex="0045"/>
  <anchor x="319.17999999999995" y="0.0" name="ogonek"/>
  <anchor x="183.71" y="0.0" name="bottom"/>
  <anchor x="179.50000000000003" y="700.0" name="top"/>
  <outline>
    <contour>
      <point x="47.79" y="0.0" type="line"/>
      <point x="319.28" y="0.0" type="line"/>
      <point x="319.28" y="52.900000000000006" type="line"/>
      <point x="102.09" y="52.900000000000006" type="line"/>
      <point x="102.09" y="336.73999999999995" type="line"/>
      <point x="289.07" y="336.73999999999995" type="line"/>
      <point x="289.07" y="387.34999999999997" type="line"/>
      <point x="102.09" y="387.34999999999997" type="line"/>
      <point x="102.09" y="646.3499999999999" type="line"/>
      <point x="307.19" y="646.3499999999999" type="line"/>
      <point x="307.19" y="700.0" type="line"/>
      <point x="47.79" y="700.0" type="line"/>
    </contour>
  </outline>
</glyph>
<glyph name="F" format="2">
  <advance width="315.34"/>
  <unicode hex="0046"/>
  <outline>
    <contour>
      <point x="47.79" y="0.0" type="line"/>
      <point x="102.24" y="0.0" type="line"/>
      <point x="102.24" y="316.98" type="line"/>
      <point x="271.09999999999997" y="316.98" type="line"/>
      <point x="271.09999999999997" y="369.73999999999995" type="line"/>
      <point x="101.84" y="369.73999999999995" type="line"/>
      <point x="101.84" y="646.15" type="line"/>
      <point x="306.74" y="646.15" type="line"/>
      <point x="306.74" y="700.0" type="line"/>
      <point x="47.79" y="700.0" type="line"/>
    </contour>
  </outline>
</glyph>
<glyph name="G" format="2">
  <advance width="375.04"/>
  <unicode hex="0047"/>
  <anchor x="205.89999999999998" y="700.0" name="top"/>
  <anchor x="207.70000000000002" y="0.0" name="bottom"/>
  <outline>
    <contour>
      <point x="29.860000000000003" y="338.78000000000003" type="curve" smooth="yes"/>
      <point x="29.860000000000003" y="98.18"/>
      <point x="85.12" y="-10.0"/>
      <point x="209.92" y="-10.0" type="curve" smooth="yes"/>
      <point x="261.47999999999996" y="-10.0"/>
      <point x="308.42" y="-2.24"/>
      <point x="337.92" y="13.0" type="curve"/>
      <point x="337.92" y="352.26" type="line"/>
      <point x="191.5" y="352.26" type="line"/>
      <point x="191.5" y="302.40000000000003" type="line"/>
      <point x="287.34000000000003" y="302.40000000000003" type="line"/>
      <point x="287.34000000000003" y="48.46" type="line"/>
      <point x="268.42" y="41.96"/>
      <point x="244.36" y="39.040000000000006"/>
      <point x="212.82000000000002" y="39.040000000000006" type="curve" smooth="yes"/>
      <point x="124.86" y="39.040000000000006"/>
      <point x="83.94000000000001" y="128.48000000000002"/>
      <point x="83.94000000000001" y="336.48" type="curve" smooth="yes"/>
      <point x="83.94000000000001" y="564.4599999999999"/>
      <point x="127.7" y="658.56"/>
      <point x="224.4" y="658.56" type="curve" smooth="yes"/>
      <point x="253.74" y="658.56"/>
      <point x="284.94" y="653.96"/>
      <point x="314.84" y="644.4999999999999" type="curve"/>
      <point x="324.96000000000004" y="693.18" type="line"/>
      <point x="294.92" y="703.8"/>
      <point x="256.16" y="710.0"/>
      <point x="219.42" y="710.0" type="curve" smooth="yes"/>
      <point x="88.8" y="710.0"/>
      <point x="29.860000000000003" y="598.28"/>
    </contour>
  </outline>
</glyph>
<glyph name="H" format="2">
  <advance width="417.94"/>
  <unicode hex="0048"/>
  <anchor x="209.1" y="700.0" name="top"/>
  <outline>
    <contour>
      <point x="47.779999999999994" y="0.0" type="line"/>
      <point x="101.68" y="0.0" type="line"/>
      <point x="101.68" y="277.97999999999996" type="line"/>
      <point x="316.26" y="277.97999999999996" type="line"/>
      <point x="316.26" y="0.0" type="line"/>
      <point x="370.15999999999997" y="0.0" type="line"/>
      <point x="370.15999999999997" y="700.0" type="line"/>
      <point x="316.26" y="700.0" type="line"/>
      <point x="316.26" y="331.36" type="line"/>
      <point x="101.68" y="331.36" type="line"/>
      <point x="101.68" y="700.0" type="line"/>
      <point x="47.779999999999994" y="700.0" type="line"/>
    </contour>
  </outline>
</glyph>
<glyph name="I" format="2">
  <advance width="149.46"/>
  <unicode hex="0049"/>
  <anchor x="101.68" y="0.0" name="ogonek"/>
  <anchor x="74.82000000000001" y="0.0" name="bottom"/>
  <anchor x="74.82000000000001" y="700.0" name="top"/>
  <outline>
    <contour>
      <point x="47.779999999999994" y="0.0" type="line"/>
      <point x="101.68" y="0.0" type="line"/>
      <point x="101.68" y="700.0" type="line"/>
      <point x="47.779999999999994" y="700.0" type="line"/>
    </contour>
  </outline>
</glyph>
<glyph name="J" format="2">
  <advance width="281.64"/>
  <unicode hex="004A"/>
  <anchor x="138.68" y="700.0" name="top"/>
  <outline>
    <contour>
      <point x="6.16" y="6.18" type="line"/>
      <point x="36.18000000000001" y="-3.979999999999999"/>
      <point x="71.5" y="-10.08"/>
      <point x="103.48" y="-10.08" type="curve" smooth="yes"/>
      <point x="207.22" y="-10.08"/>
      <point x="240.36" y="49.62"/>
      <point x="240.36" y="141.78" type="curve" smooth="yes"/>
      <point x="240.36" y="700.0" type="line"/>
      <point x="28.62" y="700.0" type="line"/>
      <point x="28.62" y="647.3" type="line"/>
      <point x="186.46" y="647.3" type="line"/>
      <point x="186.46" y="153.42" type="line" smooth="yes"/>
      <point x="186.46" y="69.98"/>
      <point x="154.54" y="41.36000000000001"/>
      <point x="89.64" y="41.36000000000001" type="curve" smooth="yes"/>
      <point x="68.32" y="41.36000000000001"/>
      <point x="41.36" y="44.82"/>
      <point x="16.720000000000002" y="52.400000000000006" type="curve"/>
    </contour>
  </outline>
</glyph>
<glyph name="K" format="2">
  <advance width="372.25"/>
  <unicode hex="004B"/>
  <anchor x="187.45" y="700.0" name="top"/>
  <anchor x="197.05" y="0.0" name="bottom"/>
  <outline>
    <contour>
      <point x="352.25" y="-10.0" type="curve" smooth="yes"/>
      <point x="356.55" y="-10.0"/>
      <point x="361.75" y="-10.0"/>
      <point x="368.95" y="-8.0" type="curve"/>
      <point x="368.95" y="54.650000000000006" type="line"/>
      <point x="366.05" y="54.050000000000004"/>
      <point x="362.6" y="54.050000000000004"/>
      <point x="359.95" y="54.050000000000004" type="curve" smooth="yes"/>
      <point x="339.20000000000005" y="54.2"/>
      <point x="321.85" y="64.75"/>
      <point x="269.7" y="151.35" type="curve" smooth="yes"/>
      <point x="102.2" y="429.90000000000003" type="line"/>
      <point x="102.2" y="700.0" type="line"/>
      <point x="48.0" y="700.0" type="line"/>
      <point x="48.0" y="0.0" type="line"/>
      <point x="102.2" y="0.0" type="line"/>
      <point x="102.2" y="332.04999999999995" type="line"/>
      <point x="245.1" y="95.1" type="line" smooth="yes"/>
      <point x="289.25" y="22.05"/>
      <point x="316.2" y="-10.0"/>
    </contour>
    <contour>
      <point x="164.05" y="294.34999999999997" type="line"/>
      <point x="232.14999999999998" y="376.25"/>
      <point x="312.25" y="506.59999999999997"/>
      <point x="350.29999999999995" y="688.5" type="curve"/>
      <point x="303.25" y="702.4" type="line"/>
      <point x="265.59999999999997" y="529.75"/>
      <point x="189.6" y="409.55"/>
      <point x="134.25" y="338.4" type="curve"/>
    </contour>
  </outline>
</glyph>
<glyph name="L" format="2">
  <advance width="300.7"/>
  <unicode hex="004C"/>
  <anchor x="150.48000000000002" y="350.0" name="center"/>
  <anchor x="74.82000000000001" y="700.0" name="top"/>
  <anchor x="200.1" y="700.0" name="topright"/>
  <anchor x="170.98000000000002" y="0.0" name="bottom"/>
  <outline>
    <contour>
      <point x="47.779999999999994" y="0.0" type="line"/>
      <point x="293.0" y="0.0" type="line"/>
      <point x="293.0" y="52.12" type="line"/>
      <point x="101.86" y="52.12" type="line"/>
      <point x="101.86" y="700.0" type="line"/>
      <point x="47.779999999999994" y="700.0" type="line"/>
    </contour>
  </outline>
</glyph>
<glyph name="M" format="2">
  <advance width="463.44"/>
  <unicode hex="004D"/>
  <outline>
    <contour>
      <point x="47.879999999999995" y="0.0" type="line"/>
      <point x="98.04" y="0.0" type="line"/>
      <point x="98.04" y="589.63" type="line"/>
      <point x="216.16" y="248.0" type="line"/>
      <point x="245.92000000000002" y="248.0" type="line"/>
      <point x="365.40000000000003" y="589.5699999999999" type="line"/>
      <point x="365.40000000000003" y="0.0" type="line"/>
      <point x="415.56" y="0.0" type="line"/>
      <point x="415.56" y="700.0" type="line"/>
      <point x="359.95000000000005" y="700.0" type="line"/>
      <point x="232.79" y="337.73" type="line"/>
      <point x="105.54" y="700.0" type="line"/>
      <point x="47.879999999999995" y="700.0" type="line"/>
    </contour>
  </outline>
</glyph>
<glyph name="N" format="2">
  <advance width="416.1"/>
  <unicode hex="004E"/>
  <anchor x="208.35000000000002" y="700.0" name="top"/>
  <anchor x="208.35000000000002" y="0.0" name="bottom"/>
  <outline>
    <contour>
      <point x="47.849999999999994" y="0.0" type="line"/>
      <point x="97.35" y="0.0" type="line"/>
      <point x="97.35" y="571.9000000000001" type="line"/>
      <point x="313.20000000000005" y="-0.2" type="line"/>
      <point x="368.25" y="-0.2" type="line"/>
      <point x="368.25" y="700.0" type="line"/>
      <point x="318.74999999999994" y="700.0" type="line"/>
      <point x="318.74999999999994" y="120.80000000000001" type="line"/>
      <point x="102.9" y="700.8" type="line"/>
      <point x="47.849999999999994" y="700.8" type="line"/>
    </contour>
  </outline>
</glyph>
<glyph name="O" format="2">
  <advance width="415.05"/>
  <unicode hex="004F"/>
  <anchor x="248.3" y="2.1000000000000005" name="ogonek"/>
  <anchor x="206.85" y="700.0" name="top"/>
  <anchor x="302.4" y="689.15" name="topright"/>
  <anchor x="206.9" y="0.0" name="bottom"/>
  <outline>
    <contour>
      <point x="206.85" y="39.55" type="curve" smooth="yes"/>
      <point x="131.1" y="39.55"/>
      <point x="85.05000000000001" y="100.5"/>
      <point x="85.05000000000001" y="349.05" type="curve" smooth="yes"/>
      <point x="85.05000000000001" y="600.5"/>
      <point x="131.0" y="660.85"/>
      <point x="206.85" y="660.85" type="curve" smooth="yes"/>
      <point x="283.79999999999995" y="660.85"/>
      <point x="329.79999999999995" y="600.9"/>
      <point x="329.79999999999995" y="349.4" type="curve" smooth="yes"/>
      <point x="329.79999999999995" y="99.89999999999999"/>
      <point x="283.79999999999995" y="39.55"/>
    </contour>
    <contour>
      <point x="206.9" y="-10.0" type="curve" smooth="yes"/>
      <point x="320.7" y="-10.0"/>
      <point x="384.9" y="63.95"/>
      <point x="384.9" y="350.25" type="curve" smooth="yes"/>
      <point x="384.9" y="636.25"/>
      <point x="320.45000000000005" y="710.0"/>
      <point x="206.85" y="710.0" type="curve" smooth="yes"/>
      <point x="93.85000000000001" y="710.0"/>
      <point x="30.15" y="635.6999999999999"/>
      <point x="30.15" y="349.1" type="curve" smooth="yes"/>
      <point x="30.15" y="65.0"/>
      <point x="94.3" y="-10.0"/>
    </contour>
  </outline>
</glyph>
<glyph name="P" format="2">
  <advance width="362.70000000000005"/>
  <unicode hex="0050"/>
  <outline>
    <contour>
      <point x="47.779999999999994" y="0.0" type="line"/>
      <point x="101.86" y="0.0" type="line"/>
      <point x="101.86" y="264.0" type="line"/>
      <point x="130.28" y="262.16"/>
      <point x="147.28" y="262.08000000000004"/>
      <point x="176.2" y="262.08000000000004" type="curve" smooth="yes"/>
      <point x="290.94" y="262.08000000000004"/>
      <point x="343.58" y="329.41999999999996"/>
      <point x="343.58" y="494.88" type="curve" smooth="yes"/>
      <point x="343.58" y="653.24"/>
      <point x="303.56" y="710.0"/>
      <point x="167.38000000000002" y="710.0" type="curve" smooth="yes"/>
      <point x="142.82" y="710.0"/>
      <point x="105.88" y="708.1600000000001"/>
      <point x="47.779999999999994" y="703.24" type="curve"/>
    </contour>
    <contour>
      <point x="102.04" y="656.8000000000001" type="line"/>
      <point x="134.26" y="660.2200000000001"/>
      <point x="153.17999999999998" y="661.0999999999999"/>
      <point x="170.79999999999998" y="661.0999999999999" type="curve" smooth="yes"/>
      <point x="266.82" y="661.0999999999999"/>
      <point x="289.36" y="613.9599999999999"/>
      <point x="289.36" y="494.85999999999996" type="curve" smooth="yes"/>
      <point x="289.36" y="361.72"/>
      <point x="254.38000000000002" y="311.94000000000005"/>
      <point x="168.16000000000003" y="311.94000000000005" type="curve" smooth="yes"/>
      <point x="142.72" y="311.94000000000005"/>
      <point x="126.10000000000001" y="312.2"/>
      <point x="102.04" y="313.6" type="curve"/>
    </contour>
  </outline>
</glyph>
<glyph name="Q" format="2">
  <advance width="415.08"/>
  <unicode hex="0051"/>
  <outline>
    <contour>
      <point x="246.82" y="14.14" type="curve"/>
      <point x="203.4" y="2.47" type="line"/>
      <point x="224.36" y="-146.9"/>
      <point x="250.24" y="-200.81"/>
      <point x="309.05" y="-200.81" type="curve" smooth="yes"/>
      <point x="327.29" y="-200.81"/>
      <point x="348.61" y="-195.41"/>
      <point x="370.94" y="-186.63" type="curve"/>
      <point x="362.05" y="-136.67" type="line"/>
      <point x="345.82" y="-144.32000000000002"/>
      <point x="330.6" y="-148.66000000000003"/>
      <point x="318.15" y="-148.66000000000003" type="curve" smooth="yes"/>
      <point x="281.71999999999997" y="-148.66000000000003"/>
      <point x="265.05" y="-108.26"/>
    </contour>
    <component base="O"/>
  </outline>
</glyph>
<glyph name="R" format="2">
  <advance width="384.05"/>
  <unicode hex="0052"/>
  <anchor x="185.85" y="700.0" name="top"/>
  <anchor x="193.75" y="0.0" name="bottom"/>
  <outline>
    <contour>
      <point x="358.05" y="-10.0" type="curve" smooth="yes"/>
      <point x="368.0" y="-10.0"/>
      <point x="375.15" y="-7.25"/>
      <point x="380.3" y="-5.5" type="curve"/>
      <point x="377.2" y="49.6" type="line"/>
      <point x="374.55" y="49.00000000000001"/>
      <point x="367.75" y="48.300000000000004"/>
      <point x="365.95" y="48.300000000000004" type="curve" smooth="yes"/>
      <point x="339.34999999999997" y="48.300000000000004"/>
      <point x="310.85" y="74.80000000000001"/>
      <point x="242.4" y="301.75" type="curve"/>
      <point x="307.35" y="325.05"/>
      <point x="341.65000000000003" y="391.3"/>
      <point x="341.65000000000003" y="509.2" type="curve" smooth="yes"/>
      <point x="341.65000000000003" y="658.6"/>
      <point x="288.1" y="710.0"/>
      <point x="167.5" y="710.0" type="curve" smooth="yes"/>
      <point x="127.45" y="710.0"/>
      <point x="91.75" y="707.6"/>
      <point x="48.0" y="702.95" type="curve"/>
      <point x="48.0" y="0.0" type="line"/>
      <point x="101.60000000000001" y="0.0" type="line"/>
      <point x="101.60000000000001" y="284.25" type="line"/>
      <point x="119.2" y="283.1"/>
      <point x="140.45" y="282.95"/>
      <point x="161.0" y="282.95" type="curve" smooth="yes"/>
      <point x="171.45000000000002" y="282.95"/>
      <point x="183.5" y="283.85"/>
      <point x="193.5" y="285.29999999999995" type="curve"/>
      <point x="274.4" y="18.55"/>
      <point x="306.05" y="-10.0"/>
    </contour>
    <contour>
      <point x="166.7" y="332.75" type="curve" smooth="yes"/>
      <point x="143.95" y="332.75"/>
      <point x="123.95" y="333.3"/>
      <point x="101.60000000000001" y="334.55" type="curve"/>
      <point x="101.60000000000001" y="656.8" type="line"/>
      <point x="127.5" y="660.05"/>
      <point x="144.35" y="660.95"/>
      <point x="167.5" y="660.95" type="curve" smooth="yes"/>
      <point x="258.05" y="660.95"/>
      <point x="286.75" y="615.85"/>
      <point x="286.75" y="501.2" type="curve" smooth="yes"/>
      <point x="286.75" y="379.65000000000003"/>
      <point x="247.4" y="332.75"/>
    </contour>
  </outline>
</glyph>
<glyph name="S" format="2">
  <advance width="342.5"/>
  <unicode hex="0053"/>
  <anchor x="178.35" y="700.0" name="top"/>
  <anchor x="169.8" y="0.0" name="bottom"/>
  <outline>
    <contour>
      <point x="297.0" y="688.7" type="line"/>
      <point x="272.09999999999997" y="699.9999999999999"/>
      <point x="226.49999999999997" y="710.0"/>
      <point x="185.14999999999998" y="710.0" type="curve" smooth="yes"/>
      <point x="86.85000000000001" y="710.0"/>
      <point x="30.25" y="645.5500000000001"/>
      <point x="30.25" y="553.8000000000001" type="curve" smooth="yes"/>
      <point x="30.25" y="458.75"/>
      <point x="76.64999999999999" y="394.99999999999994"/>
      <point x="147.35000000000002" y="334.4" type="curve" smooth="yes"/>
      <point x="217.50000000000003" y="274.45"/>
      <point x="265.25" y="220.75"/>
      <point x="265.25" y="144.3" type="curve" smooth="yes"/>
      <point x="265.25" y="72.94999999999999"/>
      <point x="213.75" y="40.2"/>
      <point x="150.3" y="40.2" type="curve" smooth="yes"/>
      <point x="112.75000000000001" y="40.2"/>
      <point x="68.35" y="47.75"/>
      <point x="31.599999999999998" y="62.60000000000001" type="curve"/>
      <point x="17.9" y="15.75" type="line"/>
      <point x="50.85" y="0.25"/>
      <point x="106.30000000000001" y="-10.0"/>
      <point x="150.95000000000002" y="-10.0" type="curve" smooth="yes"/>
      <point x="249.25" y="-10.0"/>
      <point x="319.2" y="46.35"/>
      <point x="319.2" y="148.45" type="curve" smooth="yes"/>
      <point x="319.2" y="245.65"/>
      <point x="270.1" y="307.45"/>
      <point x="197.04999999999998" y="368.4" type="curve" smooth="yes"/>
      <point x="128.05" y="426.65000000000003"/>
      <point x="84.8" y="477.79999999999995"/>
      <point x="84.8" y="553.85" type="curve" smooth="yes"/>
      <point x="84.8" y="620.1500000000001"/>
      <point x="125.65" y="660.05"/>
      <point x="188.3" y="660.05" type="curve" smooth="yes"/>
      <point x="223.14999999999998" y="660.05"/>
      <point x="255.25000000000003" y="654.05"/>
      <point x="283.4" y="642.65" type="curve"/>
    </contour>
  </outline>
</glyph>
<glyph name="T" format="2">
  <advance width="328.32"/>
  <unicode hex="0054"/>
  <anchor x="164.16" y="700.0" name="top"/>
  <anchor x="164.16" y="0.0" name="bottom"/>
  <outline>
    <contour>
      <point x="321.74" y="647.24" type="line"/>
      <point x="321.74" y="700.0" type="line"/>
      <point x="6.58" y="700.0" type="line"/>
      <point x="6.58" y="647.24" type="line"/>
      <point x="137.3" y="647.24" type="line"/>
      <point x="137.3" y="0.0" type="line"/>
      <point x="191.20000000000002" y="0.0" type="line"/>
      <point x="191.20000000000002" y="647.24" type="line"/>
    </contour>
  </outline>
</glyph>
<glyph name="U" format="2">
  <advance width="404.09999999999997"/>
  <unicode hex="0055"/>
  <anchor x="240.82000000000002" y="0.36" name="ogonek"/>
  <anchor x="202.49999999999997" y="700.0" name="top"/>
  <anchor x="362.82" y="700.0" name="topright"/>
  <anchor x="202.49999999999997" y="0.0" name="bottom"/>
  <outline>
    <contour>
      <point x="41.279999999999994" y="163.83999999999997" type="line"/>
      <point x="41.279999999999994" y="25.4"/>
      <point x="117.22" y="-10.0"/>
      <point x="202.14000000000001" y="-10.0" type="curve" smooth="yes"/>
      <point x="288.32" y="-10.0"/>
      <point x="362.82" y="25.4"/>
      <point x="362.82" y="163.83999999999997" type="curve" smooth="yes"/>
      <point x="362.82" y="700.0" type="line"/>
      <point x="308.72" y="700.0" type="line"/>
      <point x="308.72" y="159.98" type="line" smooth="yes"/>
      <point x="308.72" y="60.12"/>
      <point x="255.12000000000003" y="40.220000000000006"/>
      <point x="202.20000000000002" y="40.220000000000006" type="curve" smooth="yes"/>
      <point x="149.6" y="40.220000000000006"/>
      <point x="95.02000000000001" y="59.94"/>
      <point x="95.02000000000001" y="159.98" type="curve" smooth="yes"/>
      <point x="95.02000000000001" y="700.0" type="line"/>
      <point x="41.279999999999994" y="700.0" type="line"/>
    </contour>
  </outline>
</glyph>
<glyph name="V" format="2">
  <advance width="366.66"/>
  <unicode hex="0056"/>
  <outline>
    <contour>
      <point x="151.62" y="0.0" type="line"/>
      <point x="216.5" y="0.0" type="line"/>
      <point x="358.76" y="699.0" type="line"/>
      <point x="303.32" y="702.02" type="line"/>
      <point x="184.1" y="77.25" type="line"/>
      <point x="63.400000000000006" y="702.02" type="line"/>
      <point x="7.8999999999999995" y="699.0" type="line"/>
    </contour>
  </outline>
</glyph>
<glyph name="W" format="2">
  <advance width="497.85"/>
  <unicode hex="0057"/>
  <anchor x="248.8" y="700.0" name="top"/>
  <anchor x="248.8" y="0.0" name="bottom"/>
  <outline>
    <contour>
      <point x="397.54" y="0.0" type="line"/>
      <point x="490.47" y="699.2099999999999" type="line"/>
      <point x="432.94" y="701.8100000000001" type="line"/>
      <point x="365.77" y="87.21" type="line"/>
      <point x="273.67" y="686.17" type="line"/>
      <point x="226.0" y="686.17" type="line"/>
      <point x="133.56" y="87.13" type="line"/>
      <point x="64.79" y="701.8100000000001" type="line"/>
      <point x="7.38" y="699.2099999999999" type="line"/>
      <point x="100.46000000000001" y="0.0" type="line"/>
      <point x="157.7" y="0.0" type="line"/>
      <point x="247.49" y="580.0500000000001" type="line"/>
      <point x="336.53000000000003" y="0.0" type="line"/>
    </contour>
  </outline>
</glyph>
<glyph name="X" format="2">
  <advance width="376.20000000000005"/>
  <unicode hex="0058"/>
  <outline>
    <contour>
      <point x="18.599999999999998" y="2.0" type="line"/>
      <point x="77.9" y="-3.6" type="line"/>
      <point x="186.7" y="312.20000000000005" type="line"/>
      <point x="297.09999999999997" y="-3.6" type="line"/>
      <point x="356.6" y="2.0" type="line"/>
      <point x="224.8" y="358.54999999999995" type="line"/>
      <point x="348.44999999999993" y="697.25" type="line"/>
      <point x="290.3" y="702.7499999999999" type="line"/>
      <point x="189.85" y="406.8" type="line"/>
      <point x="86.7" y="702.7499999999999" type="line"/>
      <point x="27.700000000000003" y="697.25" type="line"/>
      <point x="152.25000000000003" y="359.29999999999995" type="line"/>
    </contour>
  </outline>
</glyph>
<glyph name="Y" format="2">
  <advance width="358.79999999999995"/>
  <unicode hex="0059"/>
  <anchor x="180.12" y="700.0" name="top"/>
  <anchor x="179.96" y="0.0" name="bottom"/>
  <outline>
    <contour>
      <point x="153.64" y="0.0" type="line"/>
      <point x="207.54" y="0.0" type="line"/>
      <point x="207.54" y="293.8" type="line"/>
      <point x="348.84000000000003" y="697.2" type="line"/>
      <point x="291.62" y="702.8" type="line"/>
      <point x="180.72000000000003" y="342.02" type="line"/>
      <point x="64.38" y="702.8" type="line"/>
      <point x="7.08" y="697.2" type="line"/>
      <point x="153.64" y="293.8" type="line"/>
    </contour>
  </outline>
</glyph>
<glyph name="Z" format="2">
  <advance width="348.06"/>
  <unicode hex="005A"/>
  <anchor x="180.21999999999997" y="350.0" name="center"/>
  <anchor x="180.21999999999997" y="0.0" name="bottom"/>
  <anchor x="179.66" y="700.0" name="top"/>
  <outline>
    <contour>
      <point x="17.1" y="0.0" type="line"/>
      <point x="336.42" y="0.0" type="line"/>
      <point x="336.42" y="50.660000000000004" type="line"/>
      <point x="73.91999999999999" y="50.660000000000004" type="line"/>
      <point x="73.91999999999999" y="52.36000000000001" type="line"/>
      <point x="320.94" y="651.8" type="line"/>
      <point x="320.94" y="700.0" type="line"/>
      <point x="34.02" y="700.0" type="line"/>
      <point x="34.02" y="649.64" type="line"/>
      <point x="263.52" y="649.64" type="line"/>
      <point x="263.52" y="647.64" type="line"/>
      <point x="17.1" y="48.50000000000001" type="line"/>
    </contour>
  </outline>
</glyph>
<glyph name="bracketleft" format="2">
  <advance width="213.42"/>
  <unicode hex="005B"/>
  <outline>
    <contour>
      <point x="95.74000000000001" y="-164.20000000000002" type="line"/>
      <point x="95.74000000000001" y="694.1999999999999" type="line"/>
      <point x="203.22" y="694.1999999999999" type="line"/>
      <point x="203.22" y="740.0" type="line"/>
      <point x="51.199999999999996" y="740.0" type="line"/>
      <point x="51.199999999999996" y="-210.0" type="line"/>
      <point x="203.22" y="-210.0" type="line"/>
      <point x="203.22" y="-164.20000000000002" type="line"/>
    </contour>
  </outline>
</glyph>
<glyph name="backslash" format="2">
  <advance width="255.26"/>
  <unicode hex="005C"/>
  <outline>
    <contour>
      <point x="47.58" y="740.0" type="line"/>
      <point x="0.6399999999999997" y="740.0" type="line"/>
      <point x="207.86" y="-210.0" type="line"/>
      <point x="254.62" y="-210.0" type="line"/>
    </contour>
  </outline>
</glyph>
<glyph name="bracketright" format="2">
  <advance width="213.42"/>
  <unicode hex="005D"/>
  <outline>
    <contour>
      <point x="10.200000000000001" y="-164.20000000000002" type="line"/>
      <point x="10.200000000000001" y="-210.0" type="line"/>
      <point x="162.22" y="-210.0" type="line"/>
      <point x="162.22" y="740.0" type="line"/>
      <point x="10.200000000000001" y="740.0" type="line"/>
      <point x="10.200000000000001" y="694.1999999999999" type="line"/>
      <point x="117.68" y="694.1999999999999" type="line"/>
      <point x="117.68" y="-164.20000000000002" type="line"/>
    </contour>
  </outline>
</glyph>
<glyph name="asciicircum" format="2">
  <advance width="402.44"/>
  <unicode hex="005E"/>
  <outline>
    <contour>
      <point x="38.5" y="270.56" type="line"/>
      <point x="82.66" y="270.56" type="line"/>
      <point x="201.22" y="651.26" type="line"/>
      <point x="319.98" y="270.56" type="line"/>
      <point x="363.93999999999994" y="270.56" type="line"/>
      <point x="227.64000000000001" y="708.0" type="line"/>
      <point x="174.79999999999998" y="708.0" type="line"/>
    </contour>
  </outline>
</glyph>
<glyph name="underscore" format="2">
  <advance width="651.2400000000001"/>
  <unicode hex="005F"/>
  <outline>
    <contour>
      <point x="4.0" y="-150.62" type="line"/>
      <point x="647.2400000000001" y="-150.62" type="line"/>
      <point x="647.2400000000001" y="-101.02" type="line"/>
      <point x="4.0" y="-101.02" type="line"/>
    </contour>
  </outline>
</glyph>
<glyph name="a" format="2">
  <advance width="337.15000000000003"/>
  <unicode hex="0061"/>
  <anchor x="337.9" y="2.6" name="ogonek"/>
  <anchor x="158.79999999999998" y="0.0" name="bottom"/>
  <anchor x="159.35" y="534.0" name="top"/>
  <outline>
    <contour>
      <point x="14.2" y="118.89999999999999" type="curve" smooth="yes"/>
      <point x="14.2" y="39.35"/>
      <point x="51.65" y="-10.0"/>
      <point x="117.0" y="-10.0" type="curve" smooth="yes"/>
      <point x="164.95000000000002" y="-10.0"/>
      <point x="200.95000000000002" y="13.1"/>
      <point x="231.15" y="43.1" type="curve"/>
      <point x="235.75" y="9.3"/>
      <point x="255.64999999999998" y="-10.0"/>
      <point x="289.5" y="-10.0" type="curve" smooth="yes"/>
      <point x="307.4" y="-10.0"/>
      <point x="322.25" y="-5.9"/>
      <point x="337.9" y="2.7" type="curve"/>
      <point x="330.05" y="48.9" type="line"/>
      <point x="320.40000000000003" y="44.300000000000004"/>
      <point x="311.75" y="42.7"/>
      <point x="303.85" y="42.7" type="curve" smooth="yes"/>
      <point x="290.05" y="42.7"/>
      <point x="281.5" y="51.5"/>
      <point x="281.5" y="81.05" type="curve" smooth="yes"/>
      <point x="281.5" y="402.05" type="line" smooth="yes"/>
      <point x="281.5" y="493.35"/>
      <point x="241.95000000000002" y="544.0"/>
      <point x="151.1" y="544.0" type="curve" smooth="yes"/>
      <point x="119.2" y="544.0"/>
      <point x="79.14999999999999" y="537.2"/>
      <point x="40.55" y="522.8" type="curve"/>
      <point x="53.3" y="474.6" type="line"/>
      <point x="91.25" y="487.55"/>
      <point x="122.95" y="491.0"/>
      <point x="146.85" y="491.0" type="curve" smooth="yes"/>
      <point x="200.65" y="491.0"/>
      <point x="228.14999999999998" y="458.4"/>
      <point x="228.14999999999998" y="400.75" type="curve" smooth="yes"/>
      <point x="228.14999999999998" y="292.95000000000005" type="line"/>
      <point x="98.6" y="269.95000000000005"/>
      <point x="14.2" y="235.35"/>
    </contour>
    <contour>
      <point x="67.5" y="126.0" type="curve" smooth="yes"/>
      <point x="67.5" y="212.05"/>
      <point x="142.29999999999998" y="238.04999999999998"/>
      <point x="228.14999999999998" y="252.75" type="curve"/>
      <point x="228.14999999999998" y="87.5" type="line"/>
      <point x="205.95" y="60.7"/>
      <point x="171.0" y="35.1"/>
      <point x="132.64999999999998" y="35.1" type="curve" smooth="yes"/>
      <point x="92.5" y="35.1"/>
      <point x="67.5" y="66.89999999999999"/>
    </contour>
  </outline>
</glyph>
<glyph name="b" format="2">
  <advance width="346.48"/>
  <unicode hex="0062"/>
  <outline>
    <contour>
      <point x="46.1" y="8.44" type="line"/>
      <point x="88.4" y="-3.9400000000000004"/>
      <point x="124.10000000000001" y="-10.0"/>
      <point x="155.51999999999998" y="-10.0" type="curve" smooth="yes"/>
      <point x="271.38" y="-10.0"/>
      <point x="317.3" y="69.75999999999999"/>
      <point x="317.3" y="280.02" type="curve" smooth="yes"/>
      <point x="317.3" y="452.62"/>
      <point x="274.90000000000003" y="544.0"/>
      <point x="194.60000000000002" y="544.0" type="curve" smooth="yes"/>
      <point x="163.22" y="544.0"/>
      <point x="127.12" y="532.1600000000001"/>
      <point x="99.6" y="513.1999999999999" type="curve"/>
      <point x="99.6" y="740.0" type="line"/>
      <point x="46.1" y="740.0" type="line"/>
    </contour>
    <contour>
      <point x="99.6" y="42.5" type="curve"/>
      <point x="99.6" y="466.5" type="line"/>
      <point x="130.38" y="487.42"/>
      <point x="150.62" y="494.6"/>
      <point x="177.8" y="494.6" type="curve" smooth="yes"/>
      <point x="232.14000000000001" y="494.6"/>
      <point x="261.73999999999995" y="420.96"/>
      <point x="261.73999999999995" y="275.96" type="curve" smooth="yes"/>
      <point x="261.73999999999995" y="93.52000000000001"/>
      <point x="232.57999999999998" y="33.66"/>
      <point x="154.86" y="33.66" type="curve" smooth="yes"/>
      <point x="139.46" y="33.66"/>
      <point x="124.80000000000001" y="36.1"/>
    </contour>
  </outline>
</glyph>
<glyph name="c" format="2">
  <advance width="293.82"/>
  <unicode hex="0063"/>
  <anchor x="177.60000000000002" y="534.0" name="top"/>
  <anchor x="179.52" y="0.0" name="bottom"/>
  <outline>
    <contour>
      <point x="29.38" y="262.06" type="curve" smooth="yes"/>
      <point x="29.38" y="71.74"/>
      <point x="78.83999999999999" y="-10.0"/>
      <point x="182.22" y="-10.0" type="curve" smooth="yes"/>
      <point x="213.64" y="-10.0"/>
      <point x="254.06000000000006" y="-4.2"/>
      <point x="277.68" y="3.06" type="curve"/>
      <point x="267.02000000000004" y="49.67999999999999" type="line"/>
      <point x="245.32" y="44.92"/>
      <point x="213.52" y="40.68"/>
      <point x="191.94" y="40.68" type="curve" smooth="yes"/>
      <point x="121.52" y="40.68"/>
      <point x="84.14" y="101.16"/>
      <point x="84.14" y="259.04" type="curve" smooth="yes"/>
      <point x="84.14" y="429.78000000000003"/>
      <point x="120.46" y="493.23999999999995"/>
      <point x="195.32" y="493.23999999999995" type="curve" smooth="yes"/>
      <point x="217.79999999999998" y="493.23999999999995"/>
      <point x="240.72" y="490.0"/>
      <point x="262.12" y="484.4" type="curve"/>
      <point x="271.3" y="532.34" type="line"/>
      <point x="247.9" y="540.0000000000001"/>
      <point x="216.04000000000002" y="544.0"/>
      <point x="190.0" y="544.0" type="curve" smooth="yes"/>
      <point x="80.82" y="544.0"/>
      <point x="29.38" y="460.0799999999999"/>
    </contour>
  </outline>
</glyph>
<glyph name="d" format="2">
  <advance width="346.7"/>
  <unicode hex="0064"/>
  <anchor x="173.08" y="275.0" name="center"/>
  <anchor x="174.51000000000002" y="740.0" name="top"/>
  <anchor x="362.4" y="740.0" name="topright"/>
  <anchor x="173.08" y="0.0" name="bottom"/>
  <outline>
    <contour>
      <point x="254.17999999999998" y="-0.1" type="line"/>
      <point x="300.65" y="-0.1" type="line"/>
      <point x="300.65" y="740.0" type="line"/>
      <point x="246.85000000000002" y="740.0" type="line"/>
      <point x="246.85000000000002" y="535.27" type="line"/>
      <point x="223.9" y="541.4799999999999"/>
      <point x="202.88" y="544.0"/>
      <point x="183.16" y="544.0" type="curve" smooth="yes"/>
      <point x="75.75999999999999" y="544.0"/>
      <point x="29.15" y="459.91999999999996"/>
      <point x="29.15" y="255.60999999999999" type="curve" smooth="yes"/>
      <point x="29.15" y="81.22000000000001"/>
      <point x="72.61999999999999" y="-10.0"/>
      <point x="153.59" y="-10.0" type="curve" smooth="yes"/>
      <point x="186.6" y="-10.0"/>
      <point x="219.26000000000002" y="0.39999999999999974"/>
      <point x="247.7" y="21.049999999999997" type="curve"/>
    </contour>
    <contour>
      <point x="246.85000000000002" y="66.48" type="line"/>
      <point x="216.63000000000002" y="46.20000000000001"/>
      <point x="195.98999999999998" y="38.97"/>
      <point x="168.34000000000003" y="38.97" type="curve" smooth="yes"/>
      <point x="114.62" y="38.97"/>
      <point x="84.99999999999999" y="112.7"/>
      <point x="84.99999999999999" y="261.06" type="curve" smooth="yes"/>
      <point x="84.99999999999999" y="440.48"/>
      <point x="114.09" y="499.68"/>
      <point x="191.56" y="499.68" type="curve" smooth="yes"/>
      <point x="207.22" y="499.68"/>
      <point x="222.32" y="497.31"/>
      <point x="246.85000000000002" y="490.38" type="curve"/>
    </contour>
  </outline>
</glyph>
<glyph name="e" format="2">
  <advance width="334.18"/>
  <unicode hex="0065"/>
  <anchor x="272.84000000000003" y="4.28" name="ogonek"/>
  <anchor x="178.60000000000002" y="0.0" name="bottom"/>
  <anchor x="176.84" y="534.0" name="top"/>
  <outline>
    <contour>
      <point x="178.45999999999998" y="-10.0" type="curve" smooth="yes"/>
      <point x="221.72" y="-10.0"/>
      <point x="263.46000000000004" y="-2.2399999999999998"/>
      <point x="300.6" y="12.459999999999999" type="curve"/>
      <point x="291.96000000000004" y="58.28" type="line"/>
      <point x="257.96000000000004" y="46.739999999999995"/>
      <point x="222.12" y="39.760000000000005"/>
      <point x="188.7" y="39.760000000000005" type="curve" smooth="yes"/>
      <point x="115.36" y="39.760000000000005"/>
      <point x="84.0" y="87.7"/>
      <point x="84.0" y="247.44" type="curve" smooth="yes"/>
      <point x="84.0" y="254.10000000000002"/>
      <point x="84.06" y="261.13999999999993"/>
      <point x="84.22000000000001" y="267.73999999999995" type="curve"/>
      <point x="183.5" y="268.24"/>
      <point x="267.32" y="278.74"/>
      <point x="308.61999999999995" y="284.76000000000005" type="curve"/>
      <point x="308.78" y="292.03999999999996"/>
      <point x="309.71999999999997" y="311.86"/>
      <point x="309.71999999999997" y="319.5" type="curve" smooth="yes"/>
      <point x="309.71999999999997" y="480.26"/>
      <point x="268.38" y="544.0"/>
      <point x="183.5" y="544.0" type="curve" smooth="yes"/>
      <point x="91.32" y="544.0"/>
      <point x="29.3" y="479.84"/>
      <point x="29.3" y="253.23999999999998" type="curve" smooth="yes"/>
      <point x="29.3" y="61.28"/>
      <point x="76.34" y="-10.0"/>
    </contour>
    <contour>
      <point x="84.5" y="309.06" type="curve"/>
      <point x="92.50000000000001" y="465.70000000000005"/>
      <point x="133.66000000000003" y="499.88"/>
      <point x="181.10000000000002" y="499.88" type="curve" smooth="yes"/>
      <point x="231.45999999999998" y="499.88"/>
      <point x="256.26" y="454.31999999999994"/>
      <point x="256.46000000000004" y="320.38" type="curve"/>
      <point x="234.34" y="315.76000000000005"/>
      <point x="156.95999999999998" y="309.16"/>
    </contour>
  </outline>
</glyph>
<glyph name="f" format="2">
  <advance width="243.16000000000003"/>
  <unicode hex="0066"/>
  <outline>
    <contour>
      <point x="76.92000000000002" y="0.0" type="line"/>
      <point x="129.62" y="0.0" type="line"/>
      <point x="129.62" y="446.24" type="line"/>
      <point x="230.3" y="446.24" type="line"/>
      <point x="230.3" y="492.1" type="line"/>
      <point x="129.79999999999998" y="492.1" type="line"/>
      <point x="129.79999999999998" y="518.16" type="line" smooth="yes"/>
      <point x="129.79999999999998" y="648.24"/>
      <point x="158.76" y="701.88"/>
      <point x="220.8" y="701.88" type="curve" smooth="yes"/>
      <point x="238.07999999999998" y="701.88"/>
      <point x="255.14" y="699.68"/>
      <point x="276.12" y="693.0600000000001" type="curve"/>
      <point x="284.9" y="736.44" type="line"/>
      <point x="257.21999999999997" y="746.2399999999999"/>
      <point x="234.11999999999998" y="750.08"/>
      <point x="210.08" y="750.08" type="curve" smooth="yes"/>
      <point x="121.32" y="750.08"/>
      <point x="76.92000000000002" y="679.32"/>
      <point x="76.92000000000002" y="518.64" type="curve" smooth="yes"/>
      <point x="76.92000000000002" y="492.1" type="line"/>
      <point x="12.700000000000001" y="485.72" type="line"/>
      <point x="12.700000000000001" y="446.24" type="line"/>
      <point x="76.92000000000002" y="446.24" type="line"/>
    </contour>
  </outline>
</glyph>
<glyph name="g" format="2">
  <advance width="349.02000000000004"/>
  <unicode hex="0067"/>
  <anchor x="175.04000000000002" y="534.0" name="top"/>
  <anchor x="179.11999999999998" y="-211.0" name="bottom"/>
  <outline>
    <contour>
      <point x="175.44" y="-220.0" type="curve" smooth="yes"/>
      <point x="280.58" y="-220.0"/>
      <point x="339.54" y="-160.51999999999998"/>
      <point x="339.54" y="-62.48" type="curve" smooth="yes"/>
      <point x="339.54" y="23.900000000000002"/>
      <point x="297.55999999999995" y="72.62000000000002"/>
      <point x="219.92000000000002" y="72.62000000000002" type="curve" smooth="yes"/>
      <point x="147.62" y="72.62000000000002" type="line" smooth="yes"/>
      <point x="101.38" y="72.62000000000002"/>
      <point x="84.24" y="95.74"/>
      <point x="84.24" y="130.0" type="curve" smooth="yes"/>
      <point x="84.24" y="164.54"/>
      <point x="99.1" y="190.41999999999996"/>
      <point x="127.92000000000002" y="212.2" type="curve"/>
      <point x="98.04" y="227.58" type="line"/>
      <point x="60.8" y="198.95999999999998"/>
      <point x="39.88" y="162.70000000000002"/>
      <point x="39.88" y="117.61999999999999" type="curve" smooth="yes"/>
      <point x="39.88" y="60.66"/>
      <point x="71.27999999999999" y="22.060000000000002"/>
      <point x="142.64000000000001" y="22.060000000000002" type="curve" smooth="yes"/>
      <point x="210.55999999999997" y="22.060000000000002" type="line" smooth="yes"/>
      <point x="261.62" y="22.060000000000002"/>
      <point x="288.94000000000005" y="-10.379999999999999"/>
      <point x="288.94000000000005" y="-66.76" type="curve" smooth="yes"/>
      <point x="288.94000000000005" y="-134.05999999999997"/>
      <point x="250.64000000000001" y="-173.04"/>
      <point x="178.44" y="-173.04" type="curve" smooth="yes"/>
      <point x="107.32" y="-173.04"/>
      <point x="70.65999999999998" y="-138.0"/>
      <point x="70.65999999999998" y="-67.97999999999999" type="curve" smooth="yes"/>
      <point x="70.65999999999998" y="-23.319999999999997"/>
      <point x="84.84" y="9.58"/>
      <point x="116.94000000000001" y="35.66" type="curve"/>
      <point x="82.27999999999999" y="48.9" type="line"/>
      <point x="41.620000000000005" y="17.78"/>
      <point x="23.96" y="-22.919999999999998"/>
      <point x="23.96" y="-77.74000000000001" type="curve" smooth="yes"/>
      <point x="23.96" y="-171.10000000000002"/>
      <point x="77.2" y="-220.0"/>
    </contour>
    <contour>
      <point x="173.34" y="196.58" type="curve" smooth="yes"/>
      <point x="257.84" y="196.58"/>
      <point x="300.62" y="254.58"/>
      <point x="300.62" y="370.0" type="curve" smooth="yes"/>
      <point x="300.62" y="485.52"/>
      <point x="257.84" y="544.0"/>
      <point x="173.34" y="544.0" type="curve" smooth="yes"/>
      <point x="88.54" y="544.0"/>
      <point x="45.76" y="485.52"/>
      <point x="45.76" y="370.0" type="curve" smooth="yes"/>
      <point x="45.76" y="254.58"/>
      <point x="88.54" y="196.58"/>
    </contour>
    <contour>
      <point x="173.34" y="241.08" type="curve" smooth="yes"/>
      <point x="121.74" y="241.08"/>
      <point x="97.85999999999999" y="279.94"/>
      <point x="97.85999999999999" y="370.0" type="curve" smooth="yes"/>
      <point x="97.85999999999999" y="460.79999999999995"/>
      <point x="121.74" y="499.59999999999997"/>
      <point x="173.34" y="499.59999999999997" type="curve" smooth="yes"/>
      <point x="224.93999999999997" y="499.59999999999997"/>
      <point x="248.51999999999998" y="460.79999999999995"/>
      <point x="248.51999999999998" y="370.0" type="curve" smooth="yes"/>
      <point x="248.51999999999998" y="279.94"/>
      <point x="224.93999999999997" y="241.08"/>
    </contour>
    <contour>
      <point x="271.36" y="463.96000000000004" type="line"/>
      <point x="285.26000000000005" y="492.91999999999996"/>
      <point x="300.76" y="505.48"/>
      <point x="320.58" y="505.48" type="curve" smooth="yes"/>
      <point x="328.08000000000004" y="505.48"/>
      <point x="332.04" y="505.02"/>
      <point x="336.40000000000003" y="503.70000000000005" type="curve"/>
      <point x="342.66" y="551.9" type="line"/>
      <point x="336.58" y="554.52"/>
      <point x="330.1" y="555.68"/>
      <point x="320.18" y="555.68" type="curve" smooth="yes"/>
      <point x="289.28" y="555.68"/>
      <point x="262.8" y="536.82"/>
      <point x="249.24" y="504.3" type="curve"/>
    </contour>
  </outline>
</glyph>
<glyph name="h" format="2">
  <advance width="352.16999999999996"/>
  <unicode hex="0068"/>
  <anchor x="176.21" y="395.0" name="center"/>
  <anchor x="176.41" y="0.0" name="bottom"/>
  <anchor x="180.37" y="740.0" name="top"/>
  <outline>
    <contour>
      <point x="46.050000000000004" y="0.0" type="line"/>
      <point x="99.69999999999999" y="0.0" type="line"/>
      <point x="99.69999999999999" y="464.9" type="line"/>
      <point x="125.72" y="482.0"/>
      <point x="158.49000000000004" y="493.93"/>
      <point x="186.57999999999998" y="493.93" type="curve" smooth="yes"/>
      <point x="230.73999999999998" y="493.93"/>
      <point x="252.61999999999998" y="467.76000000000005"/>
      <point x="252.61999999999998" y="419.37" type="curve" smooth="yes"/>
      <point x="252.61999999999998" y="0.0" type="line"/>
      <point x="306.42" y="0.0" type="line"/>
      <point x="306.42" y="430.57" type="line" smooth="yes"/>
      <point x="306.42" y="511.82"/>
      <point x="265.72999999999996" y="544.0"/>
      <point x="208.76000000000002" y="544.0" type="curve" smooth="yes"/>
      <point x="170.23000000000002" y="544.0"/>
      <point x="131.94" y="530.49"/>
      <point x="99.69999999999999" y="509.34999999999997" type="curve"/>
      <point x="99.69999999999999" y="740.0" type="line"/>
      <point x="46.050000000000004" y="740.0" type="line"/>
    </contour>
  </outline>
</glyph>
<glyph name="i" format="2">
  <advance width="145.7"/>
  <unicode hex="0069"/>
  <anchor x="99.52000000000001" y="0.0" name="ogonek"/>
  <anchor x="72.94" y="0.0" name="bottom"/>
  <outline>
    <contour>
      <point x="72.94" y="655.42" type="curve" smooth="yes"/>
      <point x="98.42" y="655.42"/>
      <point x="105.62" y="663.64"/>
      <point x="105.62" y="691.02" type="curve" smooth="yes"/>
      <point x="105.62" y="718.76"/>
      <point x="98.06" y="726.8"/>
      <point x="72.94" y="726.8" type="curve" smooth="yes"/>
      <point x="47.63999999999999" y="726.8"/>
      <point x="40.080000000000005" y="718.76"/>
      <point x="40.080000000000005" y="691.02" type="curve" smooth="yes"/>
      <point x="40.080000000000005" y="663.4599999999999"/>
      <point x="48.440000000000005" y="655.42"/>
    </contour>
    <contour>
      <point x="46.1" y="0.0" type="line"/>
      <point x="99.6" y="0.0" type="line"/>
      <point x="99.6" y="534.0" type="line"/>
      <point x="46.1" y="534.0" type="line"/>
    </contour>
  </outline>
</glyph>
<glyph name="j" format="2">
  <advance width="145.7"/>
  <unicode hex="006A"/>
  <outline>
    <contour>
      <point x="99.68" y="534.0" type="line"/>
      <point x="46.18" y="534.0" type="line"/>
      <point x="46.18" y="16.68" type="line" smooth="yes"/>
      <point x="46.18" y="-70.48"/>
      <point x="28.500000000000004" y="-123.88000000000001"/>
      <point x="-5.54" y="-149.48" type="curve" smooth="yes"/>
      <point x="-12.2" y="-153.56"/>
      <point x="-18.5" y="-156.29999999999998"/>
      <point x="-26.5" y="-157.88" type="curve"/>
      <point x="-24.279999999999998" y="-207.61999999999998" type="line"/>
      <point x="-10.480000000000002" y="-205.9"/>
      <point x="2.4200000000000004" y="-202.24"/>
      <point x="14.24" y="-197.44" type="curve" smooth="yes"/>
      <point x="72.96000000000001" y="-168.0"/>
      <point x="99.68" y="-100.56"/>
      <point x="99.68" y="13.66" type="curve" smooth="yes"/>
    </contour>
    <contour>
      <point x="72.86" y="655.42" type="curve" smooth="yes"/>
      <point x="97.62" y="655.42"/>
      <point x="105.53999999999999" y="663.64"/>
      <point x="105.53999999999999" y="691.02" type="curve" smooth="yes"/>
      <point x="105.53999999999999" y="718.76"/>
      <point x="97.25999999999999" y="726.8"/>
      <point x="72.86" y="726.8" type="curve" smooth="yes"/>
      <point x="47.56" y="726.8"/>
      <point x="39.99999999999999" y="718.76"/>
      <point x="39.99999999999999" y="691.02" type="curve" smooth="yes"/>
      <point x="39.99999999999999" y="663.4599999999999"/>
      <point x="48.36" y="655.42"/>
    </contour>
  </outline>
</glyph>
<glyph name="l" format="2">
  <advance width="177.26000000000002"/>
  <unicode hex="006C"/>
  <anchor x="89.10000000000001" y="395.0" name="center"/>
  <anchor x="72.94" y="740.0" name="top"/>
  <anchor x="161.4" y="740.0" name="topright"/>
  <anchor x="111.4" y="0.0" name="bottom"/>
  <outline>
    <contour>
      <point x="99.6" y="740.0" type="line"/>
      <point x="46.1" y="740.0" type="line"/>
      <point x="46.1" y="110.34" type="line" smooth="yes"/>
      <point x="46.1" y="14.8"/>
      <point x="73.06" y="-10.0"/>
      <point x="125.94" y="-10.0" type="curve" smooth="yes"/>
      <point x="143.18" y="-10.0"/>
      <point x="161.42" y="-5.199999999999999"/>
      <point x="176.24" y="1.7000000000000002" type="curve"/>
      <point x="170.56" y="48.42" type="line"/>
      <point x="156.04" y="43.74000000000001"/>
      <point x="146.04" y="42.18000000000001"/>
      <point x="138.01999999999998" y="42.18000000000001" type="curve" smooth="yes"/>
      <point x="114.66" y="42.18000000000001"/>
      <point x="99.6" y="54.02"/>
      <point x="99.6" y="115.48" type="curve" smooth="yes"/>
    </contour>
  </outline>
</glyph>
<glyph name="m" format="2">
  <advance width="536.88"/>
  <unicode hex="006D"/>
  <outline>
    <contour>
      <point x="46.1" y="0.0" type="line"/>
      <point x="99.78" y="0.0" type="line"/>
      <point x="99.78" y="467.26" type="line"/>
      <point x="123.47999999999999" y="482.92"/>
      <point x="152.74" y="493.58"/>
      <point x="178.10000000000002" y="493.58" type="curve" smooth="yes"/>
      <point x="224.36" y="493.58"/>
      <point x="241.98" y="462.56"/>
      <point x="241.98" y="419.02" type="curve" smooth="yes"/>
      <point x="241.98" y="0.0" type="line"/>
      <point x="295.66" y="0.0" type="line"/>
      <point x="295.66" y="421.14" type="line" smooth="yes"/>
      <point x="295.66" y="437.54"/>
      <point x="293.34" y="452.06000000000006"/>
      <point x="288.84" y="464.3" type="curve"/>
      <point x="313.44" y="481.52"/>
      <point x="344.74" y="494.0"/>
      <point x="373.34" y="494.0" type="curve" smooth="yes"/>
      <point x="419.9" y="494.0"/>
      <point x="437.46" y="462.92"/>
      <point x="437.46" y="419.34000000000003" type="curve" smooth="yes"/>
      <point x="437.46" y="0.0" type="line"/>
      <point x="491.14" y="0.0" type="line"/>
      <point x="491.14" y="431.40000000000003" type="line" smooth="yes"/>
      <point x="491.14" y="504.82"/>
      <point x="456.4" y="544.0"/>
      <point x="395.88" y="544.0" type="curve" smooth="yes"/>
      <point x="347.3" y="544.0"/>
      <point x="306.26" y="524.4"/>
      <point x="277.97999999999996" y="503.52000000000004" type="curve"/>
      <point x="262.12" y="529.5799999999999"/>
      <point x="235.7" y="543.6"/>
      <point x="200.42000000000002" y="543.6" type="curve" smooth="yes"/>
      <point x="163.39999999999998" y="543.6"/>
      <point x="127.86" y="531.12"/>
      <point x="96.1" y="510.87999999999994" type="curve"/>
      <point x="96.1" y="534.0" type="line"/>
      <point x="46.1" y="534.0" type="line"/>
    </contour>
  </outline>
</glyph>
<glyph name="n" format="2">
  <advance width="352.26"/>
  <unicode hex="006E"/>
  <anchor x="178.89999999999998" y="534.0" name="top"/>
  <anchor x="180.5" y="0.0" name="bottom"/>
  <outline>
    <contour>
      <point x="46.1" y="0.0" type="line"/>
      <point x="99.78" y="0.0" type="line"/>
      <point x="99.78" y="464.94" type="line"/>
      <point x="125.66" y="481.92"/>
      <point x="158.62" y="494.08"/>
      <point x="186.78000000000003" y="494.08" type="curve" smooth="yes"/>
      <point x="230.94000000000003" y="494.08"/>
      <point x="252.84000000000003" y="467.84000000000003"/>
      <point x="252.84000000000003" y="419.42" type="curve" smooth="yes"/>
      <point x="252.84000000000003" y="0.0" type="line"/>
      <point x="306.52000000000004" y="0.0" type="line"/>
      <point x="306.52000000000004" y="431.47999999999996" type="line" smooth="yes"/>
      <point x="306.52000000000004" y="510.11999999999995"/>
      <point x="267.14" y="544.0"/>
      <point x="208.85999999999999" y="544.0" type="curve" smooth="yes"/>
      <point x="169.12" y="544.0"/>
      <point x="130.58" y="531.02"/>
      <point x="96.1" y="509.03999999999996" type="curve"/>
      <point x="96.1" y="534.0" type="line"/>
      <point x="46.1" y="534.0" type="line"/>
    </contour>
  </outline>
</glyph>
<glyph name="o" format="2">
  <advance width="347.68"/>
  <unicode hex="006F"/>
  <anchor x="219.35999999999999" y="1.8399999999999999" name="ogonek"/>
  <anchor x="173.84" y="534.0" name="top"/>
  <anchor x="250.78" y="524.8" name="topright"/>
  <anchor x="173.83999999999997" y="0.0" name="bottom"/>
  <outline>
    <contour>
      <point x="29.2" y="267.38" type="curve" smooth="yes"/>
      <point x="29.2" y="61.58"/>
      <point x="67.02" y="-10.0"/>
      <point x="173.83999999999997" y="-10.0" type="curve" smooth="yes"/>
      <point x="280.65999999999997" y="-10.0"/>
      <point x="318.47999999999996" y="61.58"/>
      <point x="318.47999999999996" y="267.38" type="curve" smooth="yes"/>
      <point x="318.47999999999996" y="471.88"/>
      <point x="282.36" y="544.0"/>
      <point x="173.83999999999997" y="544.0" type="curve" smooth="yes"/>
      <point x="65.28" y="544.0"/>
      <point x="29.2" y="471.88"/>
    </contour>
    <contour>
      <point x="84.4" y="267.37999999999994" type="curve" smooth="yes"/>
      <point x="84.4" y="448.04"/>
      <point x="108.3" y="495.59999999999997"/>
      <point x="173.84" y="495.59999999999997" type="curve" smooth="yes"/>
      <point x="239.2" y="495.59999999999997"/>
      <point x="263.23999999999995" y="448.04"/>
      <point x="263.23999999999995" y="267.37999999999994" type="curve" smooth="yes"/>
      <point x="263.23999999999995" y="85.76"/>
      <point x="237.74" y="38.580000000000005"/>
      <point x="173.84" y="38.580000000000005" type="curve" smooth="yes"/>
      <point x="109.76" y="38.580000000000005"/>
      <point x="84.4" y="85.76"/>
    </contour>
  </outline>
</glyph>
<glyph name="p" format="2">
  <advance width="346.66"/>
  <unicode hex="0070"/>
  <outline>
    <contour>
      <point x="46.1" y="-210.0" type="line"/>
      <point x="99.8" y="-210.0" type="line"/>
      <point x="99.8" y="-1.12" type="line"/>
      <point x="124.22" y="-7.46"/>
      <point x="145.06" y="-10.0"/>
      <point x="163.44" y="-10.0" type="curve" smooth="yes"/>
      <point x="270.84" y="-10.0"/>
      <point x="317.48" y="74.25999999999999"/>
      <point x="317.48" y="278.58" type="curve" smooth="yes"/>
      <point x="317.48" y="450.82"/>
      <point x="274.72" y="544.0"/>
      <point x="195.86" y="544.0" type="curve" smooth="yes"/>
      <point x="162.48" y="544.0"/>
      <point x="127.32" y="532.58"/>
      <point x="98.26" y="512.56" type="curve"/>
      <point x="96.1" y="541.2" type="line"/>
      <point x="46.1" y="541.2" type="line"/>
    </contour>
    <contour>
      <point x="155.04" y="34.38" type="curve" smooth="yes"/>
      <point x="139.46" y="34.38"/>
      <point x="124.80000000000001" y="37.0"/>
      <point x="99.78" y="43.760000000000005" type="curve"/>
      <point x="99.78" y="467.76" type="line"/>
      <point x="130.20000000000002" y="488.32"/>
      <point x="150.62" y="495.32"/>
      <point x="177.62000000000003" y="495.32" type="curve" smooth="yes"/>
      <point x="232.14000000000001" y="495.32"/>
      <point x="261.73999999999995" y="421.32"/>
      <point x="261.73999999999995" y="273.08" type="curve" smooth="yes"/>
      <point x="261.73999999999995" y="93.88"/>
      <point x="232.57999999999998" y="34.38"/>
    </contour>
  </outline>
</glyph>
<glyph name="q" format="2">
  <advance width="346.84"/>
  <unicode hex="0071"/>
  <outline>
    <contour>
      <point x="300.74" y="527.0000000000001" type="line"/>
      <point x="257.71999999999997" y="539.02"/>
      <point x="224.0" y="544.0"/>
      <point x="191.32" y="544.0" type="curve" smooth="yes"/>
      <point x="77.25999999999999" y="544.0"/>
      <point x="29.18" y="462.98"/>
      <point x="29.18" y="259.02000000000004" type="curve" smooth="yes"/>
      <point x="29.18" y="83.0"/>
      <point x="72.12" y="-10.0"/>
      <point x="152.24" y="-10.0" type="curve" smooth="yes"/>
      <point x="183.98000000000002" y="-10.0"/>
      <point x="220.07999999999998" y="1.84"/>
      <point x="247.23999999999998" y="20.62" type="curve"/>
      <point x="247.23999999999998" y="-210.0" type="line"/>
      <point x="300.74" y="-210.0" type="line"/>
    </contour>
    <contour>
      <point x="247.06" y="490.41999999999996" type="curve"/>
      <point x="247.06" y="67.14" type="line"/>
      <point x="216.64000000000001" y="46.4"/>
      <point x="196.22000000000003" y="39.040000000000006"/>
      <point x="169.04" y="39.040000000000006" type="curve" smooth="yes"/>
      <point x="115.42" y="39.040000000000006"/>
      <point x="85.1" y="114.11999999999999"/>
      <point x="85.1" y="257.68" type="curve" smooth="yes"/>
      <point x="85.1" y="440.12"/>
      <point x="114.26" y="499.98"/>
      <point x="191.98000000000002" y="499.98" type="curve" smooth="yes"/>
      <point x="206.5" y="499.98"/>
      <point x="222.04000000000002" y="497.54"/>
    </contour>
  </outline>
</glyph>
<glyph name="r" format="2">
  <advance width="250.66"/>
  <unicode hex="0072"/>
  <anchor x="144.76000000000002" y="534.0" name="top"/>
  <anchor x="72.76" y="0.0" name="bottom"/>
  <outline>
    <contour>
      <point x="95.91999999999999" y="534.0" type="line"/>
      <point x="46.1" y="534.0" type="line"/>
      <point x="46.1" y="0.0" type="line"/>
      <point x="99.42" y="0.0" type="line"/>
      <point x="99.42" y="438.76" type="line"/>
      <point x="132.79999999999998" y="475.7"/>
      <point x="162.96" y="490.02000000000004"/>
      <point x="195.24" y="490.02000000000004" type="curve" smooth="yes"/>
      <point x="209.16000000000003" y="490.02000000000004"/>
      <point x="225.6" y="487.82"/>
      <point x="241.27999999999997" y="483.24" type="curve"/>
      <point x="251.58" y="535.64" type="line"/>
      <point x="234.86" y="541.56"/>
      <point x="217.52" y="544.0"/>
      <point x="200.64000000000001" y="544.0" type="curve" smooth="yes"/>
      <point x="160.84" y="544.0"/>
      <point x="126.27999999999999" y="525.76"/>
      <point x="95.91999999999999" y="490.68000000000006" type="curve"/>
    </contour>
  </outline>
</glyph>
<glyph name="s" format="2">
  <advance width="284.25"/>
  <unicode hex="0073"/>
  <anchor x="140.5" y="534.0" name="top"/>
  <anchor x="138.20000000000002" y="0.0" name="bottom"/>
  <outline>
    <contour>
      <point x="9.15" y="13.950000000000001" type="line"/>
      <point x="40.35" y="-2.1"/>
      <point x="83.0" y="-10.0"/>
      <point x="125.55" y="-10.0" type="curve" smooth="yes"/>
      <point x="211.29999999999998" y="-10.0"/>
      <point x="268.95" y="36.7"/>
      <point x="268.95" y="127.1" type="curve" smooth="yes"/>
      <point x="268.95" y="217.3"/>
      <point x="218.85000000000002" y="256.7"/>
      <point x="160.14999999999998" y="295.5" type="curve" smooth="yes"/>
      <point x="113.2" y="327.7"/>
      <point x="74.0" y="358.7"/>
      <point x="74.0" y="415.54999999999995" type="curve" smooth="yes"/>
      <point x="74.0" y="464.15"/>
      <point x="105.15" y="494.5"/>
      <point x="158.20000000000002" y="494.5" type="curve" smooth="yes"/>
      <point x="187.4" y="494.5"/>
      <point x="214.35000000000002" y="488.25"/>
      <point x="238.2" y="479.3" type="curve"/>
      <point x="249.25" y="525.8" type="line"/>
      <point x="224.85" y="537.05"/>
      <point x="190.75" y="544.0"/>
      <point x="157.29999999999998" y="544.0" type="curve" smooth="yes"/>
      <point x="70.64999999999999" y="544.0"/>
      <point x="22.5" y="491.4"/>
      <point x="22.5" y="411.15" type="curve" smooth="yes"/>
      <point x="22.5" y="333.85"/>
      <point x="66.8" y="289.5"/>
      <point x="122.89999999999999" y="252.5" type="curve" smooth="yes"/>
      <point x="177.3" y="217.45"/>
      <point x="217.15" y="185.0"/>
      <point x="217.15" y="124.7" type="curve" smooth="yes"/>
      <point x="217.15" y="69.5"/>
      <point x="180.25" y="38.9"/>
      <point x="124.55000000000001" y="38.9" type="curve" smooth="yes"/>
      <point x="89.6" y="38.9"/>
      <point x="46.85" y="46.25"/>
      <point x="20.35" y="58.9" type="curve"/>
    </contour>
  </outline>
</glyph>
<glyph name="t" format="2">
  <advance width="252.26000000000002"/>
  <unicode hex="0074"/>
  <anchor x="125.28" y="275.0" name="center"/>
  <anchor x="100.34" y="663.02" name="top"/>
  <anchor x="209.42" y="749.9" name="topright"/>
  <anchor x="153.32" y="0.0" name="bottom"/>
  <outline>
    <contour>
      <point x="175.68" y="-10.0" type="curve" smooth="yes"/>
      <point x="197.28000000000003" y="-10.0"/>
      <point x="224.28" y="-6.719999999999999"/>
      <point x="252.76000000000002" y="3.46" type="curve"/>
      <point x="244.04" y="48.50000000000001" type="line"/>
      <point x="225.44" y="42.5"/>
      <point x="207.79999999999998" y="40.1"/>
      <point x="190.28" y="40.1" type="curve" smooth="yes"/>
      <point x="141.98" y="40.1"/>
      <point x="122.4" y="66.84"/>
      <point x="122.4" y="134.42" type="curve" smooth="yes"/>
      <point x="122.4" y="488.14" type="line"/>
      <point x="242.46" y="488.14" type="line"/>
      <point x="242.46" y="534.0" type="line"/>
      <point x="122.4" y="534.0" type="line"/>
      <point x="122.4" y="663.02" type="line"/>
      <point x="77.56" y="663.02" type="line"/>
      <point x="68.9" y="534.0" type="line"/>
      <point x="7.700000000000001" y="527.8000000000001" type="line"/>
      <point x="7.700000000000001" y="488.32" type="line"/>
      <point x="68.9" y="488.32" type="line"/>
      <point x="68.9" y="130.17999999999998" type="line" smooth="yes"/>
      <point x="68.9" y="44.92"/>
      <point x="93.6" y="-10.0"/>
    </contour>
  </outline>
</glyph>
<glyph name="u" format="2">
  <advance width="359.54"/>
  <unicode hex="0075"/>
  <anchor x="359.26" y="2.64" name="ogonek"/>
  <anchor x="174.04" y="534.0" name="top"/>
  <anchor x="302.53999999999996" y="534.0" name="topright"/>
  <anchor x="180.24" y="0.0" name="bottom"/>
  <outline>
    <contour>
      <point x="143.74" y="-10.0" type="curve" smooth="yes"/>
      <point x="183.92000000000002" y="-10.0"/>
      <point x="221.78" y="4.24"/>
      <point x="255.56" y="25.86" type="curve"/>
      <point x="262.90000000000003" y="3.4799999999999995"/>
      <point x="283.3" y="-10.0"/>
      <point x="308.88" y="-10.0" type="curve" smooth="yes"/>
      <point x="326.85999999999996" y="-10.0"/>
      <point x="342.78" y="-5.74"/>
      <point x="359.26" y="2.64" type="curve"/>
      <point x="351.28" y="48.339999999999996" type="line"/>
      <point x="342.48" y="44.080000000000005"/>
      <point x="333.74" y="42.199999999999996"/>
      <point x="325.4" y="42.199999999999996" type="curve" smooth="yes"/>
      <point x="310.93999999999994" y="42.199999999999996"/>
      <point x="302.53999999999996" y="51.2"/>
      <point x="302.53999999999996" y="75.88" type="curve" smooth="yes"/>
      <point x="302.53999999999996" y="534.0" type="line"/>
      <point x="249.04" y="534.0" type="line"/>
      <point x="249.04" y="68.86000000000001" type="line"/>
      <point x="224.02" y="51.800000000000004"/>
      <point x="191.42" y="39.84"/>
      <point x="164.26000000000002" y="39.84" type="curve" smooth="yes"/>
      <point x="121.34" y="39.84"/>
      <point x="99.42" y="65.68"/>
      <point x="99.42" y="112.7" type="curve" smooth="yes"/>
      <point x="99.42" y="534.0" type="line"/>
      <point x="45.74" y="534.0" type="line"/>
      <point x="45.74" y="105.42" type="line" smooth="yes"/>
      <point x="45.74" y="21.900000000000002"/>
      <point x="88.04" y="-10.0"/>
    </contour>
  </outline>
</glyph>
<glyph name="v" format="2">
  <advance width="327.21"/>
  <unicode hex="0076"/>
  <outline>
    <contour>
      <point x="132.56" y="0.0" type="line"/>
      <point x="194.27" y="0.0" type="line"/>
      <point x="315.74" y="532.08" type="line"/>
      <point x="259.66" y="535.92" type="line"/>
      <point x="163.97" y="68.47999999999999" type="line"/>
      <point x="67.8" y="535.92" type="line"/>
      <point x="11.420000000000002" y="532.08" type="line"/>
    </contour>
  </outline>
</glyph>
<glyph name="w" format="2">
  <advance width="482.99"/>
  <unicode hex="0077"/>
  <anchor x="241.38" y="534.0" name="top"/>
  <anchor x="241.38" y="0.0" name="bottom"/>
  <outline>
    <contour>
      <point x="103.98" y="0.0" type="line"/>
      <point x="165.31" y="0.0" type="line"/>
      <point x="241.52" y="451.22" type="line"/>
      <point x="318.21000000000004" y="0.0" type="line"/>
      <point x="379.03999999999996" y="0.0" type="line"/>
      <point x="473.26" y="531.39" type="line"/>
      <point x="419.83000000000004" y="535.2199999999999" type="line"/>
      <point x="346.69" y="70.5" type="line"/>
      <point x="269.62" y="534.0" type="line"/>
      <point x="213.12" y="534.0" type="line"/>
      <point x="137.15" y="70.30999999999999" type="line"/>
      <point x="63.54" y="535.2199999999999" type="line"/>
      <point x="9.48" y="531.39" type="line"/>
    </contour>
  </outline>
</glyph>
<glyph name="x" format="2">
  <advance width="343.34999999999997"/>
  <unicode hex="0078"/>
  <outline>
    <contour>
      <point x="7.45" y="-3.6" type="line"/>
      <point x="64.45" y="-7.75" type="line"/>
      <point x="171.15" y="235.05" type="line"/>
      <point x="279.95000000000005" y="-7.75" type="line"/>
      <point x="336.95" y="-3.6" type="line"/>
      <point x="208.25" y="271.85" type="line"/>
      <point x="326.25" y="532.0" type="line"/>
      <point x="270.7" y="536.25" type="line"/>
      <point x="173.1" y="309.45" type="line"/>
      <point x="74.4" y="536.8499999999999" type="line"/>
      <point x="17.999999999999996" y="531.25" type="line"/>
      <point x="135.70000000000002" y="274.85" type="line"/>
    </contour>
  </outline>
</glyph>
<glyph name="y" format="2">
  <advance width="328.11000000000007"/>
  <unicode hex="0079"/>
  <anchor x="162.47" y="534.0" name="top"/>
  <anchor x="272.54999999999995" y="0.0" name="bottom"/>
  <outline>
    <contour>
      <point x="106.94" y="-208.18" type="line"/>
      <point x="163.58" y="-212.76" type="line"/>
      <point x="315.43" y="532.5" type="line"/>
      <point x="258.81" y="536.1800000000001" type="line"/>
      <point x="172.26" y="62.72" type="line"/>
      <point x="69.46000000000001" y="536.24" type="line"/>
      <point x="12.14" y="532.4" type="line"/>
      <point x="140.53000000000003" y="0.0" type="line"/>
      <point x="149.94" y="0.0" type="line"/>
    </contour>
  </outline>
</glyph>
<glyph name="z" format="2">
  <advance width="311.61"/>
  <unicode hex="007A"/>
  <anchor x="157.12" y="534.0" name="top"/>
  <outline>
    <contour>
      <point x="20.089999999999996" y="0.0" type="line"/>
      <point x="297.02" y="0.0" type="line"/>
      <point x="297.02" y="48.459999999999994" type="line"/>
      <point x="80.25999999999999" y="48.459999999999994" type="line"/>
      <point x="282.03999999999996" y="490.25" type="line"/>
      <point x="282.03999999999996" y="534.0" type="line"/>
      <point x="29.33" y="534.0" type="line"/>
      <point x="29.33" y="485.94" type="line"/>
      <point x="222.96" y="485.94" type="line"/>
      <point x="20.089999999999996" y="44.300000000000004" type="line"/>
    </contour>
  </outline>
</glyph>
<glyph name="braceleft" format="2">
  <advance width="229.98"/>
  <unicode hex="007B"/>
  <outline>
    <contour>
      <point x="71.62" y="-64.86" type="curve" smooth="yes"/>
      <point x="71.62" y="-149.02"/>
      <point x="103.78" y="-210.17999999999998"/>
      <point x="168.0" y="-210.17999999999998" type="curve" smooth="yes"/>
      <point x="202.42" y="-210.17999999999998" type="line"/>
      <point x="202.42" y="-164.38" type="line"/>
      <point x="177.60000000000002" y="-164.38" type="line" smooth="yes"/>
      <point x="134.4" y="-164.38"/>
      <point x="118.46000000000001" y="-116.82"/>
      <point x="118.46000000000001" y="-60.06" type="curve" smooth="yes"/>
      <point x="118.46000000000001" y="16.860000000000003"/>
      <point x="149.67999999999998" y="77.58"/>
      <point x="149.67999999999998" y="159.82" type="curve" smooth="yes"/>
      <point x="149.67999999999998" y="196.54"/>
      <point x="139.04" y="244.94"/>
      <point x="106.94" y="265.0" type="curve"/>
      <point x="138.96" y="288.48"/>
      <point x="149.67999999999998" y="333.11999999999995"/>
      <point x="149.67999999999998" y="369.84" type="curve" smooth="yes"/>
      <point x="149.67999999999998" y="447.36"/>
      <point x="118.46000000000001" y="507.68000000000006"/>
      <point x="118.46000000000001" y="589.7199999999999" type="curve" smooth="yes"/>
      <point x="118.46000000000001" y="646.48"/>
      <point x="134.4" y="694.1999999999999"/>
      <point x="177.60000000000002" y="694.1999999999999" type="curve" smooth="yes"/>
      <point x="202.42" y="694.1999999999999" type="line"/>
      <point x="202.42" y="740.0" type="line"/>
      <point x="168.0" y="740.0" type="line" smooth="yes"/>
      <point x="103.78" y="740.0"/>
      <point x="71.62" y="678.68"/>
      <point x="71.62" y="594.52" type="curve" smooth="yes"/>
      <point x="71.62" y="499.20000000000005"/>
      <point x="104.53999999999999" y="442.48"/>
      <point x="104.53999999999999" y="367.84000000000003" type="curve" smooth="yes"/>
      <point x="104.53999999999999" y="331.2"/>
      <point x="95.08" y="288.6"/>
      <point x="70.52" y="288.6" type="curve" smooth="yes"/>
      <point x="50.48" y="288.6" type="line"/>
      <point x="50.48" y="241.22" type="line"/>
      <point x="70.52" y="241.22" type="line" smooth="yes"/>
      <point x="95.08" y="241.22"/>
      <point x="104.53999999999999" y="199.17999999999998"/>
      <point x="104.53999999999999" y="161.82000000000002" type="curve" smooth="yes"/>
      <point x="104.53999999999999" y="85.18"/>
      <point x="71.62" y="25.26"/>
    </contour>
  </outline>
</glyph>
<glyph name="braceright" format="2">
  <advance width="229.98"/>
  <unicode hex="007D"/>
  <outline>
    <contour>
      <point x="27.56" y="-164.38" type="line"/>
      <point x="27.56" y="-210.17999999999998" type="line"/>
      <point x="62.7" y="-210.17999999999998" type="line" smooth="yes"/>
      <point x="126.92" y="-210.17999999999998"/>
      <point x="159.08" y="-149.02"/>
      <point x="159.08" y="-64.86" type="curve" smooth="yes"/>
      <point x="159.08" y="25.26"/>
      <point x="126.16" y="85.18"/>
      <point x="126.16" y="161.82000000000002" type="curve" smooth="yes"/>
      <point x="126.16" y="199.17999999999998"/>
      <point x="135.61999999999998" y="241.22"/>
      <point x="160.18" y="241.22" type="curve" smooth="yes"/>
      <point x="179.49999999999997" y="241.22" type="line"/>
      <point x="179.49999999999997" y="288.6" type="line"/>
      <point x="160.18" y="288.6" type="line" smooth="yes"/>
      <point x="134.9" y="288.6"/>
      <point x="126.16" y="331.2"/>
      <point x="126.16" y="367.84000000000003" type="curve" smooth="yes"/>
      <point x="126.16" y="442.48"/>
      <point x="159.08" y="499.20000000000005"/>
      <point x="159.08" y="594.52" type="curve" smooth="yes"/>
      <point x="159.08" y="678.68"/>
      <point x="126.92" y="740.0"/>
      <point x="62.7" y="740.0" type="curve" smooth="yes"/>
      <point x="27.56" y="740.0" type="line"/>
      <point x="27.56" y="694.1999999999999" type="line"/>
      <point x="50.040000000000006" y="694.1999999999999" type="line" smooth="yes"/>
      <point x="92.52000000000001" y="694.1999999999999"/>
      <point x="109.17999999999999" y="646.48"/>
      <point x="109.17999999999999" y="589.7199999999999" type="curve" smooth="yes"/>
      <point x="109.17999999999999" y="507.68000000000006"/>
      <point x="77.96" y="447.36"/>
      <point x="77.96" y="369.84" type="curve" smooth="yes"/>
      <point x="77.96" y="333.11999999999995"/>
      <point x="87.96" y="288.48"/>
      <point x="120.7" y="265.0" type="curve"/>
      <point x="87.88000000000001" y="244.94"/>
      <point x="77.96" y="196.54"/>
      <point x="77.96" y="159.82" type="curve" smooth="yes"/>
      <point x="77.96" y="77.58"/>
      <point x="109.17999999999999" y="16.860000000000003"/>
      <point x="109.17999999999999" y="-60.06" type="curve" smooth="yes"/>
      <point x="109.17999999999999" y="-116.82"/>
      <point x="92.52000000000001" y="-164.38"/>
      <point x="50.040000000000006" y="-164.38" type="curve" smooth="yes"/>
    </contour>
  </outline>
</glyph>
<glyph name="asciitilde" format="2">
  <advance width="402.44"/>
  <unicode hex="007E"/>
  <outline>
    <contour>
      <point x="346.99999999999994" y="249.38" type="curve"/>
      <point x="346.99999999999994" y="301.49999999999994" type="line"/>
      <point x="327.36" y="276.28000000000003"/>
      <point x="310.18" y="264.49999999999994"/>
      <point x="285.65999999999997" y="264.49999999999994" type="curve" smooth="yes"/>
      <point x="221.28" y="264.49999999999994"/>
      <point x="187.06" y="372.98"/>
      <point x="119.28" y="372.98" type="curve" smooth="yes"/>
      <point x="89.88" y="372.98"/>
      <point x="70.14" y="359.54"/>
      <point x="56.18" y="340.06" type="curve"/>
      <point x="56.18" y="287.86" type="line"/>
      <point x="71.88" y="309.74"/>
      <point x="91.18" y="324.7"/>
      <point x="118.5" y="324.7" type="curve" smooth="yes"/>
      <point x="177.94" y="324.7"/>
      <point x="213.12" y="216.2"/>
      <point x="285.12" y="216.2" type="curve" smooth="yes"/>
      <point x="311.80000000000007" y="216.2"/>
      <point x="329.06" y="226.48000000000002"/>
    </contour>
  </outline>
</glyph>
<glyph name="exclamdown" format="2">
  <advance width="152.76"/>
  <unicode hex="00A1"/>
  <outline>
    <contour>
      <point x="100.82" y="270.98" type="line"/>
      <point x="52.440000000000005" y="270.98" type="line"/>
      <point x="49.16" y="-206.02" type="line"/>
      <point x="103.55999999999999" y="-206.02" type="line"/>
    </contour>
    <contour>
      <point x="107.82000000000001" y="499.06" type="curve" smooth="yes"/>
      <point x="107.82000000000001" y="527.4"/>
      <point x="101.8" y="536.0"/>
      <point x="76.38" y="536.0" type="curve" smooth="yes"/>
      <point x="51.76" y="536.0"/>
      <point x="44.93999999999999" y="527.4"/>
      <point x="44.93999999999999" y="499.06" type="curve" smooth="yes"/>
      <point x="44.93999999999999" y="470.52"/>
      <point x="50.959999999999994" y="461.92"/>
      <point x="76.38" y="461.92" type="curve" smooth="yes"/>
      <point x="101.8" y="461.92"/>
      <point x="107.82000000000001" y="470.52"/>
    </contour>
  </outline>
</glyph>
<glyph name="cent" format="2">
  <advance width="359.32"/>
  <unicode hex="00A2"/>
  <outline>
    <contour>
      <point x="206.84" y="-10.18" type="curve" smooth="yes"/>
      <point x="235.04000000000002" y="-10.18"/>
      <point x="265.98" y="-5.5"/>
      <point x="292.34000000000003" y="3.3000000000000007" type="curve"/>
      <point x="281.9" y="52.400000000000006" type="line"/>
      <point x="258.90000000000003" y="46.34"/>
      <point x="237.34" y="43.68"/>
      <point x="216.82" y="43.68" type="curve" smooth="yes"/>
      <point x="153.56000000000003" y="43.68"/>
      <point x="124.56" y="110.69999999999999"/>
      <point x="124.56" y="257.36" type="curve" smooth="yes"/>
      <point x="124.56" y="418.47999999999996"/>
      <point x="157.26000000000002" y="490.03999999999996"/>
      <point x="219.60000000000002" y="490.03999999999996" type="curve" smooth="yes"/>
      <point x="240.61999999999998" y="490.03999999999996"/>
      <point x="257.40000000000003" y="487.0"/>
      <point x="276.09999999999997" y="481.72" type="curve"/>
      <point x="286.18" y="532.34" type="line"/>
      <point x="264.14" y="539.5200000000001"/>
      <point x="237.44000000000003" y="544.36"/>
      <point x="209.85999999999999" y="544.36" type="curve" smooth="yes"/>
      <point x="109.18" y="544.36"/>
      <point x="69.28" y="441.7"/>
      <point x="69.28" y="256.15999999999997" type="curve" smooth="yes"/>
      <point x="69.28" y="75.65999999999998"/>
      <point x="111.24" y="-10.18"/>
    </contour>
    <contour>
      <point x="172.04" y="-105.18" type="line"/>
      <point x="221.04000000000002" y="-105.18" type="line"/>
      <point x="221.04000000000002" y="-1.2399999999999998" type="line"/>
      <point x="172.04" y="2.58" type="line"/>
    </contour>
    <contour>
      <point x="172.04" y="530.1599999999999" type="line"/>
      <point x="221.04000000000002" y="535.88" type="line"/>
      <point x="221.04000000000002" y="638.8199999999999" type="line"/>
      <point x="172.04" y="638.8199999999999" type="line"/>
    </contour>
  </outline>
</glyph>
<glyph name="sterling" format="2">
  <advance width="359.44"/>
  <unicode hex="00A3"/>
  <outline>
    <contour>
      <point x="57.38000000000001" y="0.0" type="line"/>
      <point x="320.76" y="0.0" type="line"/>
      <point x="320.76" y="48.9" type="line"/>
      <point x="115.50000000000001" y="48.9" type="line"/>
      <point x="158.44000000000003" y="117.9"/>
      <point x="186.44" y="165.61999999999998"/>
      <point x="186.44" y="247.86" type="curve" smooth="yes"/>
      <point x="186.44" y="345.38"/>
      <point x="129.32000000000002" y="407.90000000000003"/>
      <point x="129.32000000000002" y="512.5600000000001" type="curve" smooth="yes"/>
      <point x="129.32000000000002" y="618.3"/>
      <point x="174.48000000000002" y="657.5"/>
      <point x="231.84" y="657.5" type="curve" smooth="yes"/>
      <point x="254.48" y="657.5"/>
      <point x="278.5" y="653.04"/>
      <point x="298.91999999999996" y="646.26" type="curve"/>
      <point x="309.3" y="691.2" type="line"/>
      <point x="286.14" y="703.28"/>
      <point x="251.28" y="710.0"/>
      <point x="223.44000000000003" y="710.0" type="curve" smooth="yes"/>
      <point x="125.41999999999999" y="710.0"/>
      <point x="73.92" y="634.18"/>
      <point x="73.92" y="525.3" type="curve" smooth="yes"/>
      <point x="73.92" y="398.08"/>
      <point x="134.94" y="347.90000000000003"/>
      <point x="134.94" y="243.54000000000002" type="curve" smooth="yes"/>
      <point x="134.94" y="165.81999999999996"/>
      <point x="109.8" y="123.34"/>
      <point x="57.38000000000001" y="40.7" type="curve"/>
    </contour>
    <contour>
      <point x="41.0" y="348.8" type="line"/>
      <point x="279.2" y="348.8" type="line"/>
      <point x="279.2" y="389.29999999999995" type="line"/>
      <point x="41.0" y="389.29999999999995" type="line"/>
    </contour>
  </outline>
</glyph>
<glyph name="currency" format="2">
  <advance width="423.2"/>
  <unicode hex="00A4"/>
  <outline>
    <contour>
      <point x="31.66" y="436.44" type="line"/>
      <point x="99.94" y="367.16" type="line"/>
      <point x="84.24000000000001" y="346.38"/>
      <point x="74.38" y="319.97999999999996"/>
      <point x="74.38" y="290.34000000000003" type="curve" smooth="yes"/>
      <point x="74.38" y="260.5"/>
      <point x="84.24000000000001" y="233.72"/>
      <point x="100.94" y="212.76000000000002" type="curve"/>
      <point x="31.66" y="143.48000000000002" type="line"/>
      <point x="65.52" y="109.62" type="line"/>
      <point x="136.45999999999998" y="180.54" type="line"/>
      <point x="156.74" y="164.14"/>
      <point x="183.0" y="155.33999999999997"/>
      <point x="211.67999999999998" y="155.33999999999997" type="curve" smooth="yes"/>
      <point x="240.04" y="155.33999999999997"/>
      <point x="266.58" y="164.16"/>
      <point x="286.72" y="180.38" type="curve"/>
      <point x="357.68" y="109.62" type="line"/>
      <point x="391.54" y="143.48000000000002" type="line"/>
      <point x="322.88" y="211.96" type="line"/>
      <point x="339.72" y="233.26"/>
      <point x="349.76000000000005" y="260.18"/>
      <point x="349.76000000000005" y="290.34000000000003" type="curve" smooth="yes"/>
      <point x="349.76000000000005" y="320.12"/>
      <point x="339.74" y="346.84"/>
      <point x="323.06" y="367.96" type="curve"/>
      <point x="391.54" y="436.44" type="line"/>
      <point x="357.68" y="470.3" type="line"/>
      <point x="287.44" y="400.06" type="line"/>
      <point x="267.12" y="416.29999999999995"/>
      <point x="241.02" y="426.09999999999997"/>
      <point x="211.67999999999998" y="426.09999999999997" type="curve" smooth="yes"/>
      <point x="181.84" y="426.09999999999997"/>
      <point x="155.57999999999998" y="416.12"/>
      <point x="134.94" y="399.9" type="curve"/>
      <point x="65.52" y="470.3" type="line"/>
    </contour>
    <contour>
      <point x="211.66" y="194.64" type="curve" smooth="yes"/>
      <point x="158.24" y="194.64"/>
      <point x="116.14" y="236.72"/>
      <point x="116.14" y="290.16" type="curve" smooth="yes"/>
      <point x="116.14" y="343.97999999999996"/>
      <point x="158.22" y="386.62"/>
      <point x="211.66" y="386.62" type="curve" smooth="yes"/>
      <point x="265.9" y="386.62"/>
      <point x="308.0" y="343.97999999999996"/>
      <point x="308.0" y="290.16" type="curve" smooth="yes"/>
      <point x="308.0" y="236.72"/>
      <point x="265.88" y="194.64"/>
    </contour>
  </outline>
</glyph>
<glyph name="yen" format="2">
  <advance width="359.5"/>
  <unicode hex="00A5"/>
  <outline>
    <contour>
      <point x="54.9" y="346.2" type="line"/>
      <point x="155.45000000000002" y="346.2" type="line"/>
      <point x="155.45000000000002" y="237.64999999999998" type="line"/>
      <point x="54.9" y="237.64999999999998" type="line"/>
      <point x="54.9" y="198.85000000000002" type="line"/>
      <point x="155.45000000000002" y="198.85000000000002" type="line"/>
      <point x="155.45000000000002" y="0.0" type="line"/>
      <point x="209.75" y="0.0" type="line"/>
      <point x="209.75" y="198.85000000000002" type="line"/>
      <point x="310.5" y="198.85000000000002" type="line"/>
      <point x="310.5" y="237.64999999999998" type="line"/>
      <point x="209.75" y="237.64999999999998" type="line"/>
      <point x="209.75" y="346.2" type="line"/>
      <point x="310.5" y="346.2" type="line"/>
      <point x="310.5" y="384.7" type="line"/>
      <point x="209.75" y="384.7" type="line"/>
      <point x="324.05" y="697.1" type="line"/>
      <point x="266.45" y="703.0" type="line"/>
      <point x="182.55" y="432.1" type="line"/>
      <point x="93.14999999999999" y="703.0" type="line"/>
      <point x="35.55" y="697.1" type="line"/>
      <point x="155.45000000000002" y="384.7" type="line"/>
      <point x="54.9" y="384.7" type="line"/>
    </contour>
  </outline>
</glyph>
<glyph name="brokenbar" format="2">
  <advance width="139.70000000000002"/>
  <unicode hex="00A6"/>
  <outline>
    <contour>
      <point x="93.56" y="391.0" type="line"/>
      <point x="93.56" y="790.1800000000001" type="line"/>
      <point x="46.14" y="790.1800000000001" type="line"/>
      <point x="46.14" y="391.0" type="line"/>
    </contour>
    <contour>
      <point x="46.14" y="190.17999999999998" type="line"/>
      <point x="46.14" y="-210.0" type="line"/>
      <point x="93.56" y="-210.0" type="line"/>
      <point x="93.56" y="190.17999999999998" type="line"/>
    </contour>
  </outline>
</glyph>
<glyph name="section" format="2">
  <advance width="366.33"/>
  <unicode hex="00A7"/>
  <outline>
    <contour>
      <point x="144.6" y="-220.24999999999997" type="curve" smooth="yes"/>
      <point x="264.50000000000006" y="-220.24999999999997"/>
      <point x="342.59999999999997" y="-102.93"/>
      <point x="342.59999999999997" y="54.510000000000005" type="curve" smooth="yes"/>
      <point x="342.59999999999997" y="138.93"/>
      <point x="324.53999999999996" y="221.15999999999997"/>
      <point x="262.60999999999996" y="402.61" type="curve" smooth="yes"/>
      <point x="212.55999999999997" y="551.16"/>
      <point x="203.42000000000002" y="578.02"/>
      <point x="203.42000000000002" y="617.1600000000001" type="curve" smooth="yes"/>
      <point x="203.42000000000002" y="665.47"/>
      <point x="226.91999999999996" y="693.8700000000001"/>
      <point x="265.69" y="693.8700000000001" type="curve" smooth="yes"/>
      <point x="280.1" y="693.8700000000001"/>
      <point x="293.39" y="691.47"/>
      <point x="310.69" y="683.61" type="curve"/>
      <point x="324.21999999999997" y="732.2399999999999" type="line"/>
      <point x="299.61" y="743.9799999999999"/>
      <point x="270.72999999999996" y="749.3100000000001"/>
      <point x="241.58" y="749.3100000000001" type="curve" smooth="yes"/>
      <point x="113.81000000000002" y="749.3100000000001"/>
      <point x="34.9" y="649.64"/>
      <point x="35.39999999999999" y="483.53" type="curve" smooth="yes"/>
      <point x="35.95" y="395.84999999999997"/>
      <point x="52.9" y="311.13"/>
      <point x="114.58" y="139.95000000000002" type="curve" smooth="yes"/>
      <point x="160.85" y="4.730000000000001"/>
      <point x="177.55" y="-45.24999999999999"/>
      <point x="177.60999999999999" y="-88.66" type="curve" smooth="yes"/>
      <point x="177.67000000000002" y="-137.58"/>
      <point x="153.61" y="-164.17"/>
      <point x="114.05999999999999" y="-164.17" type="curve" smooth="yes"/>
      <point x="89.74000000000001" y="-164.17"/>
      <point x="67.79" y="-155.38"/>
      <point x="39.81" y="-131.14000000000001" type="curve"/>
      <point x="23.73" y="-178.66" type="line"/>
      <point x="61.370000000000005" y="-208.91"/>
      <point x="95.97" y="-220.24999999999997"/>
    </contour>
    <contour>
      <point x="143.68000000000004" y="-185.54000000000002" type="curve" smooth="yes"/>
      <point x="124.82000000000001" y="-185.54000000000002"/>
      <point x="111.67" y="-182.83"/>
      <point x="99.83" y="-177.73000000000002" type="curve"/>
      <point x="121.81" y="-193.44" type="line"/>
      <point x="179.64000000000001" y="-192.35"/>
      <point x="217.62" y="-150.45"/>
      <point x="217.62" y="-88.44999999999999" type="curve" smooth="yes"/>
      <point x="217.62" y="-41.71"/>
      <point x="203.73000000000002" y="14.160000000000005"/>
      <point x="154.20000000000002" y="157.5" type="curve" smooth="yes"/>
      <point x="93.72" y="334.38999999999993"/>
      <point x="77.41" y="399.84"/>
      <point x="77.41" y="487.33" type="curve" smooth="yes"/>
      <point x="77.41" y="619.5600000000001"/>
      <point x="136.42999999999998" y="706.88"/>
      <point x="219.79000000000002" y="706.88" type="curve" smooth="yes"/>
      <point x="228.32" y="706.88"/>
      <point x="234.52" y="705.8700000000001"/>
      <point x="243.70999999999998" y="702.46" type="curve"/>
      <point x="230.13" y="717.8299999999999" type="line"/>
      <point x="188.70000000000002" y="707.4200000000001"/>
      <point x="161.38000000000002" y="668.03"/>
      <point x="161.22" y="619.1899999999999" type="curve" smooth="yes"/>
      <point x="161.22" y="573.38"/>
      <point x="172.09" y="529.7100000000002"/>
      <point x="221.65" y="389.34999999999997" type="curve" smooth="yes"/>
      <point x="285.83" y="201.08"/>
      <point x="302.28000000000003" y="130.08"/>
      <point x="302.28000000000003" y="50.809999999999995" type="curve" smooth="yes"/>
      <point x="302.3399999999999" y="-84.99"/>
      <point x="242.24" y="-185.48"/>
    </contour>
  </outline>
</glyph>
<glyph name="copyright" format="2">
  <advance width="443.56"/>
  <unicode hex="00A9"/>
  <outline>
    <contour>
      <point x="221.8" y="15.980000000000004" type="curve" smooth="yes"/>
      <point x="119.66" y="15.980000000000004"/>
      <point x="62.8" y="104.14000000000001"/>
      <point x="62.8" y="350.14" type="curve" smooth="yes"/>
      <point x="62.8" y="596.9000000000001"/>
      <point x="119.7" y="684.22"/>
      <point x="221.8" y="684.22" type="curve" smooth="yes"/>
      <point x="324.4000000000001" y="684.22"/>
      <point x="380.58" y="596.9000000000001"/>
      <point x="380.58" y="350.14" type="curve" smooth="yes"/>
      <point x="380.58" y="104.14000000000001"/>
      <point x="324.44000000000005" y="15.980000000000004"/>
    </contour>
    <contour>
      <point x="221.8" y="710.0" type="curve" smooth="yes"/>
      <point x="101.47999999999999" y="710.0"/>
      <point x="36.2" y="614.68"/>
      <point x="36.2" y="350.14" type="curve" smooth="yes"/>
      <point x="36.2" y="86.50000000000001"/>
      <point x="101.43999999999998" y="-10.0"/>
      <point x="221.8" y="-10.0" type="curve" smooth="yes"/>
      <point x="342.12" y="-10.0"/>
      <point x="407.35999999999996" y="86.50000000000001"/>
      <point x="407.35999999999996" y="350.14" type="curve" smooth="yes"/>
      <point x="407.35999999999996" y="614.68"/>
      <point x="342.12" y="710.0"/>
    </contour>
    <contour>
      <point x="129.3" y="339.6" type="curve" smooth="yes"/>
      <point x="129.3" y="217.33999999999997"/>
      <point x="164.0" y="158.06"/>
      <point x="230.58" y="158.06" type="curve" smooth="yes"/>
      <point x="251.38000000000002" y="158.06"/>
      <point x="275.41999999999996" y="161.39999999999998"/>
      <point x="292.98" y="167.1" type="curve"/>
      <point x="285.67999999999995" y="205.24" type="line"/>
      <point x="271.96" y="201.32000000000002"/>
      <point x="250.70000000000002" y="198.70000000000002"/>
      <point x="234.28000000000003" y="198.70000000000002" type="curve" smooth="yes"/>
      <point x="189.06" y="198.70000000000002"/>
      <point x="173.04000000000002" y="249.89999999999998"/>
      <point x="173.04000000000002" y="338.50000000000006" type="curve" smooth="yes"/>
      <point x="173.04000000000002" y="451.32"/>
      <point x="194.51999999999998" y="491.32"/>
      <point x="239.06" y="491.32" type="curve" smooth="yes"/>
      <point x="252.86" y="491.32"/>
      <point x="268.18" y="489.54"/>
      <point x="282.2" y="485.34" type="curve"/>
      <point x="290.12000000000006" y="522.92" type="line"/>
      <point x="273.17999999999995" y="529.5"/>
      <point x="252.76000000000002" y="532.0"/>
      <point x="234.18" y="532.0" type="curve" smooth="yes"/>
      <point x="169.84" y="532.0"/>
      <point x="129.3" y="482.82"/>
    </contour>
  </outline>
</glyph>
<glyph name="ordfeminine" format="2">
  <advance width="243.68"/>
  <unicode hex="00AA"/>
  <outline>
    <contour>
      <point x="28.380000000000003" y="285.64000000000004" type="line"/>
      <point x="219.54" y="285.64000000000004" type="line"/>
      <point x="219.54" y="318.44" type="line"/>
      <point x="28.380000000000003" y="318.44" type="line"/>
    </contour>
    <component base="a.superior" xOffset="11.44"/>
  </outline>
</glyph>
<glyph name="logicalnot" format="2">
  <advance width="402.44"/>
  <unicode hex="00AC"/>
  <outline>
    <contour>
      <point x="44.76" y="364.48" type="line"/>
      <point x="309.5" y="364.48" type="line"/>
      <point x="309.5" y="176.86" type="line"/>
      <point x="358.4" y="176.86" type="line"/>
      <point x="358.4" y="413.38" type="line"/>
      <point x="44.76" y="413.38" type="line"/>
    </contour>
  </outline>
</glyph>
<glyph name="registered" format="2">
  <advance width="425.07000000000005"/>
  <unicode hex="00AE"/>
  <outline>
    <contour>
      <point x="212.56" y="208.01" type="curve" smooth="yes"/>
      <point x="327.14" y="208.01"/>
      <point x="388.87000000000006" y="299.58"/>
      <point x="388.87000000000006" y="550.2300000000001" type="curve" smooth="yes"/>
      <point x="388.87000000000006" y="801.61"/>
      <point x="327.16" y="892.15"/>
      <point x="212.56" y="892.15" type="curve" smooth="yes"/>
      <point x="98.41" y="892.15"/>
      <point x="36.2" y="801.61"/>
      <point x="36.2" y="550.2300000000001" type="curve" smooth="yes"/>
      <point x="36.2" y="299.79"/>
      <point x="98.33999999999999" y="208.01"/>
    </contour>
    <contour>
      <point x="212.56" y="232.53999999999996" type="curve" smooth="yes"/>
      <point x="115.39999999999999" y="232.53999999999996"/>
      <point x="62.03000000000001" y="316.40999999999997"/>
      <point x="62.03000000000001" y="550.2300000000001" type="curve" smooth="yes"/>
      <point x="62.03000000000001" y="784.82"/>
      <point x="115.38" y="867.78"/>
      <point x="212.56" y="867.78" type="curve" smooth="yes"/>
      <point x="310.68" y="867.78"/>
      <point x="363.56" y="784.84"/>
      <point x="363.56" y="550.2300000000001" type="curve" smooth="yes"/>
      <point x="363.56" y="316.34"/>
      <point x="310.63000000000005" y="232.53999999999996"/>
    </contour>
    <contour>
      <point x="299.71" y="388.11" type="curve" smooth="yes"/>
      <point x="303.24000000000007" y="388.11"/>
      <point x="305.96" y="388.11"/>
      <point x="310.88" y="388.97999999999996" type="curve"/>
      <point x="308.71999999999997" y="428.90000000000003" type="line"/>
      <point x="306.78999999999996" y="428.18"/>
      <point x="305.34000000000003" y="428.18"/>
      <point x="303.34" y="428.18" type="curve" smooth="yes"/>
      <point x="285.31" y="428.21"/>
      <point x="273.61" y="458.15"/>
      <point x="251.31" y="533.05" type="curve"/>
      <point x="284.2" y="548.4200000000001"/>
      <point x="293.49000000000007" y="585.6200000000001"/>
      <point x="293.49000000000007" y="632.28" type="curve" smooth="yes"/>
      <point x="293.49000000000007" y="699.82"/>
      <point x="266.88999999999993" y="727.3499999999999"/>
      <point x="208.23" y="727.3499999999999" type="curve" smooth="yes"/>
      <point x="186.40999999999997" y="727.3499999999999"/>
      <point x="165.05999999999997" y="725.34"/>
      <point x="139.26000000000002" y="721.5899999999998" type="curve"/>
      <point x="139.26000000000002" y="390.78" type="line"/>
      <point x="177.73" y="390.78" type="line"/>
      <point x="177.73" y="522.2199999999999" type="line"/>
      <point x="187.26999999999998" y="521.4399999999999"/>
      <point x="195.72" y="520.6199999999999"/>
      <point x="203.96" y="520.6199999999999" type="curve" smooth="yes"/>
      <point x="207.94000000000003" y="520.6199999999999"/>
      <point x="211.69000000000003" y="520.6199999999999"/>
      <point x="215.62" y="521.34" type="curve"/>
      <point x="249.29000000000002" y="404.39"/>
      <point x="268.9" y="388.15999999999997"/>
    </contour>
    <contour>
      <point x="203.76000000000002" y="551.0" type="curve" smooth="yes"/>
      <point x="195.42999999999998" y="551.0"/>
      <point x="187.25999999999996" y="551.0799999999999"/>
      <point x="177.73" y="552.06" type="curve"/>
      <point x="177.73" y="688.76" type="line"/>
      <point x="190.70000000000002" y="690.84"/>
      <point x="198.6" y="691.62"/>
      <point x="208.50000000000003" y="691.62" type="curve" smooth="yes"/>
      <point x="250.22000000000003" y="691.62"/>
      <point x="254.2" y="665.1700000000001"/>
      <point x="254.2" y="626.8" type="curve" smooth="yes"/>
      <point x="254.2" y="581.4"/>
      <point x="247.34" y="551.0"/>
    </contour>
  </outline>
</glyph>
<glyph name="degree" format="2">
  <advance width="246.0"/>
  <unicode hex="00B0"/>
  <outline>
    <contour>
      <point x="122.22" y="489.2" type="curve" smooth="yes"/>
      <point x="184.62" y="489.2"/>
      <point x="217.64000000000001" y="541.2199999999999"/>
      <point x="217.64000000000001" y="606.0" type="curve" smooth="yes"/>
      <point x="217.64000000000001" y="669.4"/>
      <point x="185.85999999999999" y="724.4"/>
      <point x="122.22" y="724.4" type="curve" smooth="yes"/>
      <point x="58.540000000000006" y="724.4"/>
      <point x="28.36" y="669.4"/>
      <point x="28.36" y="606.0" type="curve" smooth="yes"/>
      <point x="28.36" y="541.2199999999999"/>
      <point x="59.82" y="489.2"/>
    </contour>
    <contour>
      <point x="122.22" y="531.08" type="curve" smooth="yes"/>
      <point x="85.7" y="531.08"/>
      <point x="68.44" y="563.8599999999999"/>
      <point x="68.44" y="605.8199999999999" type="curve" smooth="yes"/>
      <point x="68.44" y="647.34"/>
      <point x="85.48" y="681.76"/>
      <point x="122.22" y="681.76" type="curve" smooth="yes"/>
      <point x="158.92" y="681.76"/>
      <point x="177.6" y="647.34"/>
      <point x="177.6" y="605.8199999999999" type="curve" smooth="yes"/>
      <point x="177.6" y="563.8599999999999"/>
      <point x="158.74" y="531.08"/>
    </contour>
  </outline>
</glyph>
<glyph name="plusminus" format="2">
  <advance width="425.48"/>
  <unicode hex="00B1"/>
  <outline>
    <contour>
      <point x="41.88" y="57.58" type="line"/>
      <point x="383.59999999999997" y="57.58" type="line"/>
      <point x="383.59999999999997" y="106.47999999999999" type="line"/>
      <point x="237.58" y="106.47999999999999" type="line"/>
      <point x="237.58" y="287.96000000000004" type="line"/>
      <point x="383.59999999999997" y="287.96000000000004" type="line"/>
      <point x="383.59999999999997" y="336.86" type="line"/>
      <point x="237.58" y="336.86" type="line"/>
      <point x="237.58" y="504.3" type="line"/>
      <point x="187.88000000000002" y="504.3" type="line"/>
      <point x="187.88000000000002" y="336.86" type="line"/>
      <point x="41.88" y="336.86" type="line"/>
      <point x="41.88" y="287.96000000000004" type="line"/>
      <point x="187.88000000000002" y="287.96000000000004" type="line"/>
      <point x="187.88000000000002" y="106.47999999999999" type="line"/>
      <point x="41.88" y="106.47999999999999" type="line"/>
    </contour>
  </outline>
</glyph>
<glyph name="uni00B2" format="2">
  <advance width="270.88"/>
  <unicode hex="00B2"/>
  <outline>
    <contour>
      <point x="51.52" y="370.0" type="line"/>
      <point x="226.74" y="370.0" type="line"/>
      <point x="226.74" y="401.68" type="line"/>
      <point x="95.56" y="401.68" type="line"/>
      <point x="177.62" y="536.78"/>
      <point x="204.14" y="606.08"/>
      <point x="204.14" y="666.96" type="curve" smooth="yes"/>
      <point x="204.14" y="735.94"/>
      <point x="174.7" y="775.28"/>
      <point x="123.0" y="775.28" type="curve" smooth="yes"/>
      <point x="94.79999999999998" y="775.28"/>
      <point x="68.22" y="767.14"/>
      <point x="44.92" y="743.3" type="curve"/>
      <point x="59.34" y="712.18" type="line"/>
      <point x="78.38000000000001" y="732.6"/>
      <point x="95.88" y="736.6999999999999"/>
      <point x="116.34" y="736.6999999999999" type="curve" smooth="yes"/>
      <point x="146.46000000000004" y="736.6999999999999"/>
      <point x="164.94000000000003" y="705.9"/>
      <point x="164.94000000000003" y="658.5200000000001" type="curve" smooth="yes"/>
      <point x="164.94000000000003" y="605.66"/>
      <point x="130.16" y="523.76"/>
      <point x="49.120000000000005" y="398.34000000000003" type="curve"/>
    </contour>
  </outline>
</glyph>
<glyph name="uni00B3" format="2">
  <advance width="269.34000000000003"/>
  <unicode hex="00B3"/>
  <outline>
    <contour>
      <point x="39.099999999999994" y="388.26" type="line"/>
      <point x="63.779999999999994" y="369.52000000000004"/>
      <point x="89.34" y="361.14"/>
      <point x="124.00000000000001" y="361.14" type="curve" smooth="yes"/>
      <point x="188.11999999999998" y="361.14"/>
      <point x="226.94000000000003" y="406.21999999999997"/>
      <point x="226.94000000000003" y="482.2" type="curve" smooth="yes"/>
      <point x="226.94000000000003" y="532.5999999999999"/>
      <point x="208.58" y="568.0600000000001"/>
      <point x="171.18" y="579.42" type="curve"/>
      <point x="200.1" y="592.8399999999999"/>
      <point x="215.68" y="627.64"/>
      <point x="215.68" y="670.4799999999999" type="curve" smooth="yes"/>
      <point x="215.68" y="734.0400000000001"/>
      <point x="181.04" y="774.36"/>
      <point x="123.96" y="774.36" type="curve" smooth="yes"/>
      <point x="92.58000000000001" y="774.36"/>
      <point x="65.92" y="765.8599999999999"/>
      <point x="47.92" y="751.4599999999999" type="curve"/>
      <point x="60.98" y="723.78" type="line"/>
      <point x="73.82" y="732.7800000000001"/>
      <point x="90.08" y="737.98"/>
      <point x="116.18" y="737.98" type="curve" smooth="yes"/>
      <point x="154.98000000000002" y="737.98"/>
      <point x="178.0" y="709.8000000000001"/>
      <point x="178.0" y="662.5" type="curve" smooth="yes"/>
      <point x="178.0" y="622.4399999999999"/>
      <point x="163.2" y="590.9399999999999"/>
      <point x="126.06" y="590.9399999999999" type="curve" smooth="yes"/>
      <point x="88.75999999999999" y="590.9399999999999" type="line"/>
      <point x="88.75999999999999" y="560.56" type="line"/>
      <point x="125.96000000000001" y="560.56" type="line" smooth="yes"/>
      <point x="172.22" y="560.56"/>
      <point x="187.42" y="531.4599999999999"/>
      <point x="187.42" y="484.59999999999997" type="curve" smooth="yes"/>
      <point x="187.42" y="428.71999999999997"/>
      <point x="162.34" y="395.94"/>
      <point x="119.62" y="395.94" type="curve" smooth="yes"/>
      <point x="90.66" y="395.94"/>
      <point x="72.76" y="402.23999999999995"/>
      <point x="54.48" y="416.6" type="curve"/>
    </contour>
  </outline>
</glyph>
<glyph name="uni00B5" format="2">
  <advance width="359.90000000000003"/>
  <unicode hex="00B5"/>
  <outline>
    <contour>
      <point x="46.1" y="-210.0" type="line"/>
      <point x="97.98" y="-210.0" type="line"/>
      <point x="97.98" y="18.979999999999997" type="line"/>
      <point x="111.58000000000001" y="-1.9800000000000004"/>
      <point x="132.82" y="-9.639999999999999"/>
      <point x="158.38" y="-9.639999999999999" type="curve" smooth="yes"/>
      <point x="193.66" y="-9.639999999999999"/>
      <point x="228.42" y="4.24"/>
      <point x="257.90000000000003" y="23.700000000000003" type="curve"/>
      <point x="265.06" y="2.5799999999999996"/>
      <point x="282.22" y="-10.0"/>
      <point x="309.24" y="-10.0" type="curve" smooth="yes"/>
      <point x="327.22" y="-10.0"/>
      <point x="343.13999999999993" y="-5.74"/>
      <point x="359.61999999999995" y="2.64" type="curve"/>
      <point x="351.64000000000004" y="46.36" type="line"/>
      <point x="342.84" y="42.1"/>
      <point x="334.1" y="40.21999999999999"/>
      <point x="325.76000000000005" y="40.21999999999999" type="curve" smooth="yes"/>
      <point x="311.30000000000007" y="40.21999999999999"/>
      <point x="302.90000000000003" y="49.22"/>
      <point x="302.90000000000003" y="73.89999999999999" type="curve" smooth="yes"/>
      <point x="302.90000000000003" y="534.0" type="line"/>
      <point x="249.4" y="534.0" type="line"/>
      <point x="249.4" y="67.96000000000001" type="line"/>
      <point x="224.38" y="50.900000000000006"/>
      <point x="191.78" y="38.940000000000005"/>
      <point x="164.62" y="38.940000000000005" type="curve" smooth="yes"/>
      <point x="121.69999999999999" y="38.940000000000005"/>
      <point x="99.78" y="64.78"/>
      <point x="99.78" y="111.8" type="curve" smooth="yes"/>
      <point x="99.78" y="534.0" type="line"/>
      <point x="46.1" y="534.0" type="line"/>
    </contour>
  </outline>
</glyph>
<glyph name="paragraph" format="2">
  <advance width="455.22"/>
  <unicode hex="00B6"/>
  <outline>
    <contour>
      <point x="362.24" y="-210.0" type="line"/>
      <point x="407.32" y="-210.0" type="line"/>
      <point x="407.32" y="740.0" type="line"/>
      <point x="362.24" y="740.0" type="line"/>
    </contour>
    <contour>
      <point x="187.83999999999997" y="231.48" type="line"/>
      <point x="109.66" y="247.94000000000003"/>
      <point x="72.14000000000001" y="334.64"/>
      <point x="72.14000000000001" y="462.2" type="curve" smooth="yes"/>
      <point x="72.14000000000001" y="591.54"/>
      <point x="120.0" y="688.34"/>
      <point x="228.48" y="692.18" type="curve"/>
      <point x="228.48" y="-210.0" type="line"/>
      <point x="273.56" y="-210.0" type="line"/>
      <point x="273.56" y="740.0" type="line"/>
      <point x="243.20000000000002" y="740.0" type="line" smooth="yes"/>
      <point x="84.86" y="740.0"/>
      <point x="23.080000000000002" y="616.14"/>
      <point x="23.080000000000002" y="463.78" type="curve" smooth="yes"/>
      <point x="23.080000000000002" y="318.24"/>
      <point x="71.67999999999999" y="214.4"/>
      <point x="182.7" y="191.23999999999998" type="curve"/>
    </contour>
  </outline>
</glyph>
<glyph name="periodcentered" format="2">
  <advance width="126.36"/>
  <unicode hex="00B7"/>
  <outline>
    <contour>
      <point x="31.68" y="295.09999999999997" type="curve" smooth="yes"/>
      <point x="31.68" y="266.7"/>
      <point x="38.739999999999995" y="258.09999999999997"/>
      <point x="63.36000000000001" y="258.09999999999997" type="curve" smooth="yes"/>
      <point x="88.67999999999999" y="258.09999999999997"/>
      <point x="94.74000000000001" y="266.7"/>
      <point x="94.74000000000001" y="295.09999999999997" type="curve" smooth="yes"/>
      <point x="94.74000000000001" y="323.6"/>
      <point x="88.67999999999999" y="332.2"/>
      <point x="63.36000000000001" y="332.2" type="curve" smooth="yes"/>
      <point x="37.74" y="332.2"/>
      <point x="31.68" y="323.6"/>
    </contour>
  </outline>
</glyph>
<glyph name="uni00B9" format="2">
  <advance width="250.36"/>
  <unicode hex="00B9"/>
  <outline>
    <contour>
      <point x="29.099999999999998" y="370.0" type="line"/>
      <point x="225.14" y="370.0" type="line"/>
      <point x="225.14" y="402.5" type="line"/>
      <point x="151.88" y="402.5" type="line"/>
      <point x="151.88" y="769.54" type="line"/>
      <point x="131.54" y="769.54" type="line"/>
      <point x="25.839999999999996" y="703.42" type="line"/>
      <point x="36.300000000000004" y="669.6199999999999" type="line"/>
      <point x="112.08" y="721.0799999999999" type="line"/>
      <point x="112.08" y="402.5" type="line"/>
      <point x="29.099999999999998" y="402.5" type="line"/>
    </contour>
  </outline>
</glyph>
<glyph name="ordmasculine" format="2">
  <advance width="262.03999999999996"/>
  <unicode hex="00BA"/>
  <outline>
    <contour>
      <point x="36.660000000000004" y="285.71999999999997" type="line"/>
      <point x="228.46" y="285.71999999999997" type="line"/>
      <point x="228.46" y="318.52" type="line"/>
      <point x="36.660000000000004" y="318.52" type="line"/>
    </contour>
    <component base="o.superior" xOffset="16.64"/>
  </outline>
</glyph>
<glyph name="questiondown" format="2">
  <advance width="302.52000000000004"/>
  <unicode hex="00BF"/>
  <outline>
    <contour>
      <point x="204.4" y="269.24" type="line"/>
      <point x="155.84" y="269.24" type="line"/>
      <point x="155.8" y="193.78" type="line"/>
      <point x="72.74" y="124.42000000000002"/>
      <point x="32.52" y="72.1"/>
      <point x="32.52" y="-36.9" type="curve" smooth="yes"/>
      <point x="32.52" y="-161.20000000000002"/>
      <point x="98.84" y="-217.82"/>
      <point x="178.86" y="-217.82" type="curve" smooth="yes"/>
      <point x="226.4" y="-217.82"/>
      <point x="273.56" y="-196.43999999999997"/>
      <point x="308.12" y="-162.82000000000002" type="curve"/>
      <point x="286.0" y="-118.24000000000001" type="line"/>
      <point x="251.12" y="-150.68"/>
      <point x="216.76" y="-163.26000000000002"/>
      <point x="185.1" y="-163.26000000000002" type="curve" smooth="yes"/>
      <point x="131.20000000000002" y="-163.26000000000002"/>
      <point x="88.24" y="-113.83999999999999"/>
      <point x="88.24" y="-31.24" type="curve" smooth="yes"/>
      <point x="88.24" y="47.76"/>
      <point x="114.4" y="100.55999999999999"/>
      <point x="205.26" y="169.34" type="curve"/>
    </contour>
    <contour>
      <point x="211.66" y="497.08" type="curve" smooth="yes"/>
      <point x="211.66" y="525.4200000000001"/>
      <point x="203.58" y="534.02"/>
      <point x="179.5" y="534.02" type="curve" smooth="yes"/>
      <point x="154.98000000000002" y="534.02"/>
      <point x="148.05999999999997" y="525.4200000000001"/>
      <point x="148.05999999999997" y="497.08" type="curve" smooth="yes"/>
      <point x="148.05999999999997" y="468.53999999999996"/>
      <point x="154.98000000000002" y="459.94"/>
      <point x="179.5" y="459.94" type="curve" smooth="yes"/>
      <point x="205.1" y="459.94"/>
      <point x="211.66" y="468.53999999999996"/>
    </contour>
  </outline>
</glyph>
<glyph name="AE" format="2">
  <advance width="586.5600000000001"/>
  <unicode hex="00C6"/>
  <anchor x="324.7100000000001" y="700.0" name="top"/>
  <outline>
    <contour>
      <point x="14.759999999999998" y="0.0" type="line"/>
      <point x="73.79" y="-0.79" type="line"/>
      <point x="174.93" y="281.03" type="line"/>
      <point x="300.70000000000005" y="281.03" type="line"/>
      <point x="300.70000000000005" y="0.0" type="line"/>
      <point x="571.3900000000001" y="0.0" type="line"/>
      <point x="571.3900000000001" y="52.900000000000006" type="line"/>
      <point x="353.85" y="52.900000000000006" type="line"/>
      <point x="353.85" y="311.49" type="line"/>
      <point x="541.2800000000001" y="311.49" type="line"/>
      <point x="541.2800000000001" y="362.78999999999996" type="line"/>
      <point x="353.85" y="362.78999999999996" type="line"/>
      <point x="353.85" y="646.3499999999999" type="line"/>
      <point x="559.4" y="646.3499999999999" type="line"/>
      <point x="559.4" y="700.0" type="line"/>
      <point x="265.50000000000006" y="700.0" type="line"/>
    </contour>
    <contour>
      <point x="189.19" y="331.99" type="line"/>
      <point x="300.3" y="657.77" type="line"/>
      <point x="300.3" y="331.99" type="line"/>
    </contour>
  </outline>
</glyph>
<glyph name="multiply" format="2">
  <advance width="386.04"/>
  <unicode hex="00D7"/>
  <outline>
    <contour>
      <point x="88.08000000000001" y="91.2" type="line"/>
      <point x="192.37999999999997" y="258.91999999999996" type="line"/>
      <point x="297.88" y="92.16" type="line"/>
      <point x="334.88000000000005" y="123.30000000000001" type="line"/>
      <point x="225.74" y="298.14000000000004" type="line"/>
      <point x="334.32" y="474.6" type="line"/>
      <point x="297.32000000000005" y="505.74" type="line"/>
      <point x="192.37999999999997" y="338.08" type="line"/>
      <point x="88.0" y="505.9" type="line"/>
      <point x="51.0" y="474.76" type="line"/>
      <point x="159.72000000000003" y="298.14000000000004" type="line"/>
      <point x="51.08" y="122.34" type="line"/>
    </contour>
  </outline>
</glyph>
<glyph name="Oslash" format="2">
  <advance width="415.0"/>
  <unicode hex="00D8"/>
  <anchor x="206.75" y="700.0" name="top"/>
  <outline>
    <contour>
      <point x="71.7" y="-10.2" type="line"/>
      <point x="103.0" y="59.35" type="line"/>
      <point x="108.45" y="63.550000000000004" type="line"/>
      <point x="332.3" y="599.35" type="line"/>
      <point x="337.45" y="603.6999999999999" type="line"/>
      <point x="384.5" y="712.0" type="line"/>
      <point x="342.85" y="712.0" type="line"/>
      <point x="309.95" y="636.85" type="line"/>
      <point x="304.34999999999997" y="632.5" type="line"/>
      <point x="83.15" y="103.9" type="line"/>
      <point x="78.75" y="101.35" type="line"/>
      <point x="30.299999999999997" y="-10.2" type="line"/>
    </contour>
    <contour>
      <point x="206.75" y="37.35000000000001" type="curve" smooth="yes"/>
      <point x="129.45" y="37.35000000000001"/>
      <point x="83.4" y="98.7"/>
      <point x="83.4" y="349.1" type="curve" smooth="yes"/>
      <point x="83.4" y="602.0500000000001"/>
      <point x="129.45" y="662.65"/>
      <point x="206.75" y="662.65" type="curve" smooth="yes"/>
      <point x="284.95" y="662.65"/>
      <point x="331.25" y="602.5"/>
      <point x="331.25" y="349.4" type="curve" smooth="yes"/>
      <point x="331.25" y="97.89999999999999"/>
      <point x="284.95" y="37.35000000000001"/>
    </contour>
    <contour>
      <point x="206.75" y="-10.0" type="curve" smooth="yes"/>
      <point x="321.05" y="-10.0"/>
      <point x="384.8" y="63.95"/>
      <point x="384.8" y="350.2" type="curve" smooth="yes"/>
      <point x="384.8" y="636.25"/>
      <point x="320.8" y="710.0"/>
      <point x="206.75" y="710.0" type="curve" smooth="yes"/>
      <point x="93.19999999999999" y="710.0"/>
      <point x="30.0" y="635.6999999999999"/>
      <point x="30.0" y="349.1" type="curve" smooth="yes"/>
      <point x="30.0" y="65.0"/>
      <point x="93.6" y="-10.0"/>
    </contour>
  </outline>
</glyph>
<glyph name="Thorn" format="2">
  <advance width="363.98"/>
  <unicode hex="00DE"/>
  <outline>
    <contour>
      <point x="47.779999999999994" y="0.0" type="line"/>
      <point x="101.86" y="0.0" type="line"/>
      <point x="101.86" y="167.36" type="line"/>
      <point x="130.28" y="165.51999999999998"/>
      <point x="147.28" y="165.44"/>
      <point x="176.2" y="165.44" type="curve" smooth="yes"/>
      <point x="290.94" y="165.44"/>
      <point x="343.58" y="232.78"/>
      <point x="343.58" y="398.24" type="curve" smooth="yes"/>
      <point x="343.58" y="556.6"/>
      <point x="303.56" y="613.36"/>
      <point x="167.38000000000002" y="613.36" type="curve" smooth="yes"/>
      <point x="150.92" y="613.36"/>
      <point x="131.98" y="612.46"/>
      <point x="102.04" y="610.36" type="curve"/>
      <point x="102.04" y="700.0" type="line"/>
      <point x="47.779999999999994" y="700.0" type="line"/>
    </contour>
    <contour>
      <point x="168.16000000000003" y="217.1" type="curve" smooth="yes"/>
      <point x="143.07999999999998" y="217.1"/>
      <point x="126.64000000000001" y="217.35999999999999"/>
      <point x="102.04" y="218.76000000000002" type="curve"/>
      <point x="102.04" y="560.16" type="line"/>
      <point x="134.26" y="563.58"/>
      <point x="153.17999999999998" y="564.4599999999999"/>
      <point x="170.79999999999998" y="564.4599999999999" type="curve" smooth="yes"/>
      <point x="266.82" y="564.4599999999999"/>
      <point x="289.36" y="517.32"/>
      <point x="289.36" y="398.22" type="curve" smooth="yes"/>
      <point x="289.36" y="271.38"/>
      <point x="255.46" y="217.1"/>
    </contour>
  </outline>
</glyph>
<glyph name="germandbls" format="2">
  <advance width="428.11"/>
  <unicode hex="00DF"/>
  <outline>
    <contour>
      <point x="76.61" y="0.0" type="line"/>
      <point x="129.93" y="0.0" type="line"/>
      <point x="129.93" y="535.63" type="line" smooth="yes"/>
      <point x="129.93" y="646.7800000000001"/>
      <point x="166.3" y="700.76"/>
      <point x="244.8" y="700.76" type="curve" smooth="yes"/>
      <point x="300.93" y="700.76"/>
      <point x="330.65000000000003" y="675.12"/>
      <point x="330.65000000000003" y="627.94" type="curve" smooth="yes"/>
      <point x="330.65000000000003" y="587.74"/>
      <point x="315.87" y="566.41"/>
      <point x="266.83000000000004" y="531.22" type="curve" smooth="yes"/>
      <point x="218.63" y="497.27"/>
      <point x="193.16" y="456.76"/>
      <point x="193.16" y="404.67" type="curve" smooth="yes"/>
      <point x="193.16" y="337.34000000000003"/>
      <point x="215.22" y="304.53"/>
      <point x="289.4" y="250.3" type="curve" smooth="yes"/>
      <point x="353.83" y="200.5"/>
      <point x="373.02" y="172.69"/>
      <point x="373.02" y="126.10000000000001" type="curve" smooth="yes"/>
      <point x="373.02" y="72.46000000000001"/>
      <point x="336.64" y="38.28"/>
      <point x="278.31" y="38.28" type="curve" smooth="yes"/>
      <point x="240.67000000000002" y="38.28"/>
      <point x="208.60999999999999" y="46.419999999999995"/>
      <point x="179.63000000000002" y="58.18" type="curve"/>
      <point x="166.81" y="13.57" type="line"/>
      <point x="197.73999999999998" y="-1.6700000000000002"/>
      <point x="239.55" y="-10.0"/>
      <point x="281.39" y="-10.0" type="curve" smooth="yes"/>
      <point x="365.96" y="-10.0"/>
      <point x="423.38" y="40.699999999999996"/>
      <point x="423.38" y="128.74" type="curve" smooth="yes"/>
      <point x="423.38" y="196.11"/>
      <point x="395.0" y="238.82000000000002"/>
      <point x="320.09" y="292.37" type="curve" smooth="yes"/>
      <point x="258.33" y="339.53000000000003"/>
      <point x="244.20000000000002" y="364.48"/>
      <point x="244.20000000000002" y="407.55" type="curve" smooth="yes"/>
      <point x="244.20000000000002" y="444.71000000000004"/>
      <point x="263.34000000000003" y="472.59999999999997"/>
      <point x="303.19" y="501.37" type="curve" smooth="yes"/>
      <point x="360.44" y="540.87"/>
      <point x="385.09" y="574.81"/>
      <point x="385.09" y="629.0999999999999" type="curve" smooth="yes"/>
      <point x="385.09" y="706.75"/>
      <point x="333.8" y="750.0"/>
      <point x="243.37" y="750.0" type="curve" smooth="yes"/>
      <point x="133.11" y="750.0"/>
      <point x="76.74000000000001" y="679.58"/>
      <point x="76.61" y="548.06" type="curve" smooth="yes"/>
      <point x="76.61" y="492.67" type="line"/>
      <point x="12.82" y="486.03" type="line"/>
      <point x="12.82" y="446.11" type="line"/>
      <point x="76.61" y="446.11" type="line"/>
    </contour>
  </outline>
</glyph>
<glyph name="ae" format="2">
  <advance width="530.1"/>
  <unicode hex="00E6"/>
  <anchor x="267.45" y="534.0" name="top"/>
  <outline>
    <contour>
      <point x="118.55000000000001" y="-10.0" type="curve" smooth="yes"/>
      <point x="171.10000000000002" y="-10.0"/>
      <point x="216.1" y="18.45"/>
      <point x="257.90000000000003" y="67.1" type="curve"/>
      <point x="259.0" y="67.1" type="line"/>
      <point x="283.45" y="14.299999999999999"/>
      <point x="320.45" y="-10.0"/>
      <point x="379.3" y="-10.0" type="curve" smooth="yes"/>
      <point x="424.8" y="-10.0"/>
      <point x="462.54999999999995" y="-2.4499999999999997"/>
      <point x="497.05000000000007" y="12.149999999999999" type="curve"/>
      <point x="488.25" y="59.150000000000006" type="line"/>
      <point x="456.8" y="48.15"/>
      <point x="420.29999999999995" y="41.15"/>
      <point x="386.65" y="41.15" type="curve" smooth="yes"/>
      <point x="313.90000000000003" y="41.15"/>
      <point x="282.29999999999995" y="88.30000000000001"/>
      <point x="282.09999999999997" y="250.35" type="curve" smooth="yes"/>
      <point x="282.0" y="255.95"/>
      <point x="282.0" y="262.5"/>
      <point x="282.25" y="267.6" type="curve"/>
      <point x="385.05" y="268.65"/>
      <point x="464.84999999999997" y="281.8"/>
      <point x="504.54999999999995" y="287.55" type="curve"/>
      <point x="504.70000000000005" y="294.55"/>
      <point x="505.70000000000005" y="304.09999999999997"/>
      <point x="505.70000000000005" y="319.09999999999997" type="curve" smooth="yes"/>
      <point x="505.70000000000005" y="472.9"/>
      <point x="461.95" y="544.0"/>
      <point x="372.15" y="544.0" type="curve" smooth="yes"/>
      <point x="319.7" y="544.0"/>
      <point x="280.1" y="511.0"/>
      <point x="260.5" y="445.79999999999995" type="curve"/>
      <point x="259.5" y="445.79999999999995" type="line"/>
      <point x="251.5" y="509.45000000000005"/>
      <point x="215.00000000000003" y="544.0"/>
      <point x="151.2" y="544.0" type="curve" smooth="yes"/>
      <point x="117.10000000000001" y="544.0"/>
      <point x="76.95" y="536.45"/>
      <point x="40.8" y="522.8" type="curve"/>
      <point x="53.3" y="474.9" type="line"/>
      <point x="89.35" y="487.25"/>
      <point x="121.20000000000002" y="491.15"/>
      <point x="148.05" y="491.15" type="curve" smooth="yes"/>
      <point x="200.95" y="491.15"/>
      <point x="228.35" y="460.45"/>
      <point x="228.35" y="400.59999999999997" type="curve" smooth="yes"/>
      <point x="228.35" y="305.40000000000003" type="line"/>
      <point x="77.35" y="272.2"/>
      <point x="14.05" y="225.95"/>
      <point x="14.05" y="118.8" type="curve" smooth="yes"/>
      <point x="14.05" y="37.15"/>
      <point x="53.7" y="-10.0"/>
    </contour>
    <contour>
      <point x="132.5" y="34.4" type="curve" smooth="yes"/>
      <point x="92.0" y="34.4"/>
      <point x="67.05" y="67.35000000000001"/>
      <point x="67.05" y="126.15" type="curve" smooth="yes"/>
      <point x="67.05" y="204.65"/>
      <point x="123.45" y="244.45"/>
      <point x="228.35" y="268.04999999999995" type="curve"/>
      <point x="228.35" y="258.6"/>
      <point x="228.35" y="249.04999999999998"/>
      <point x="228.35" y="239.49999999999997" type="curve" smooth="yes"/>
      <point x="228.35" y="181.95000000000002"/>
      <point x="233.35" y="136.2"/>
      <point x="239.4" y="102.74999999999999" type="curve"/>
      <point x="211.0" y="63.3"/>
      <point x="169.1" y="34.4"/>
    </contour>
    <contour>
      <point x="282.1" y="304.65" type="curve"/>
      <point x="281.84999999999997" y="447.1"/>
      <point x="317.65" y="499.70000000000005"/>
      <point x="369.34999999999997" y="499.70000000000005" type="curve" smooth="yes"/>
      <point x="424.3" y="499.70000000000005"/>
      <point x="451.6" y="441.74999999999994"/>
      <point x="452.3" y="318.95" type="curve"/>
      <point x="425.6" y="312.5"/>
      <point x="348.25" y="304.65"/>
    </contour>
  </outline>
</glyph>
<glyph name="eth" format="2">
  <advance width="342.84999999999997"/>
  <unicode hex="00F0"/>
  <outline>
    <contour>
      <point x="270.0" y="471.35" type="curve"/>
      <point x="273.25" y="514.0500000000001" type="line"/>
      <point x="251.0" y="530.8"/>
      <point x="222.2" y="538.05"/>
      <point x="189.15" y="538.05" type="curve" smooth="yes"/>
      <point x="76.05" y="538.05"/>
      <point x="29.2" y="452.65000000000003"/>
      <point x="29.2" y="254.7" type="curve" smooth="yes"/>
      <point x="29.2" y="64.30000000000001"/>
      <point x="71.2" y="-10.0"/>
      <point x="167.45000000000002" y="-10.0" type="curve" smooth="yes"/>
      <point x="277.04999999999995" y="-10.0"/>
      <point x="314.15" y="68.3"/>
      <point x="314.15" y="328.05" type="curve" smooth="yes"/>
      <point x="314.15" y="601.95"/>
      <point x="268.35" y="718.4"/>
      <point x="124.4" y="718.4" type="curve" smooth="yes"/>
      <point x="91.25" y="718.4"/>
      <point x="65.0" y="713.1"/>
      <point x="31.150000000000002" y="703.25" type="curve"/>
      <point x="39.65" y="664.8000000000001" type="line"/>
      <point x="66.55" y="672.4000000000001"/>
      <point x="86.55" y="677.1"/>
      <point x="114.0" y="677.1" type="curve" smooth="yes"/>
      <point x="225.3" y="677.1"/>
      <point x="260.7" y="597.1999999999999"/>
      <point x="260.7" y="331.45" type="curve" smooth="yes"/>
      <point x="260.7" y="96.8"/>
      <point x="238.14999999999998" y="32.650000000000006"/>
      <point x="170.4" y="32.650000000000006" type="curve" smooth="yes"/>
      <point x="108.3" y="32.650000000000006"/>
      <point x="84.2" y="91.60000000000001"/>
      <point x="84.2" y="254.95" type="curve" smooth="yes"/>
      <point x="84.2" y="432.85"/>
      <point x="120.1" y="495.85"/>
      <point x="195.75" y="495.85" type="curve" smooth="yes"/>
      <point x="222.15" y="495.85"/>
      <point x="247.25" y="490.90000000000003"/>
    </contour>
    <contour>
      <point x="109.85" y="564.6" type="line"/>
      <point x="224.9" y="647.55" type="line"/>
      <point x="228.65" y="651.5" type="line"/>
      <point x="325.54999999999995" y="723.5999999999999" type="line"/>
      <point x="273.55" y="723.5999999999999" type="line"/>
      <point x="208.25" y="676.1500000000001" type="line"/>
      <point x="206.0" y="673.1999999999999" type="line"/>
      <point x="57.3" y="564.6" type="line"/>
    </contour>
  </outline>
</glyph>
<glyph name="divide" format="2">
  <advance width="402.5"/>
  <unicode hex="00F7"/>
  <outline>
    <contour>
      <point x="171.22" y="107.94000000000001" type="curve" smooth="yes"/>
      <point x="171.22" y="83.44"/>
      <point x="177.23999999999998" y="76.54"/>
      <point x="201.39999999999998" y="76.54" type="curve" smooth="yes"/>
      <point x="225.42" y="76.54"/>
      <point x="231.58000000000004" y="83.44"/>
      <point x="231.58000000000004" y="107.94000000000001" type="curve" smooth="yes"/>
      <point x="231.58000000000004" y="132.34"/>
      <point x="224.88000000000002" y="139.34"/>
      <point x="201.39999999999998" y="139.34" type="curve" smooth="yes"/>
      <point x="177.07999999999998" y="139.34"/>
      <point x="171.22" y="132.34"/>
    </contour>
    <contour>
      <point x="171.22" y="486.06" type="curve" smooth="yes"/>
      <point x="171.22" y="461.66"/>
      <point x="177.78" y="454.96"/>
      <point x="201.39999999999998" y="454.96" type="curve" smooth="yes"/>
      <point x="225.42" y="454.96"/>
      <point x="231.58000000000004" y="461.66"/>
      <point x="231.58000000000004" y="486.06" type="curve" smooth="yes"/>
      <point x="231.58000000000004" y="510.86"/>
      <point x="225.42" y="517.56"/>
      <point x="201.39999999999998" y="517.56" type="curve" smooth="yes"/>
      <point x="177.07999999999998" y="517.56"/>
      <point x="171.22" y="510.86"/>
    </contour>
    <contour>
      <point x="42.04" y="272.7" type="line"/>
      <point x="360.76000000000005" y="272.7" type="line"/>
      <point x="360.76000000000005" y="321.7" type="line"/>
      <point x="42.04" y="321.7" type="line"/>
    </contour>
  </outline>
</glyph>
<glyph name="oslash" format="2">
  <advance width="347.95000000000005"/>
  <unicode hex="00F8"/>
  <anchor x="173.2" y="534.0" name="top"/>
  <outline>
    <contour>
      <point x="173.2" y="-10.0" type="curve" smooth="yes"/>
      <point x="66.5" y="-10.0"/>
      <point x="28.9" y="61.800000000000004"/>
      <point x="28.9" y="267.54999999999995" type="curve" smooth="yes"/>
      <point x="28.9" y="471.90000000000003"/>
      <point x="64.65" y="544.0"/>
      <point x="173.2" y="544.0" type="curve" smooth="yes"/>
      <point x="281.8" y="544.0"/>
      <point x="317.95" y="471.90000000000003"/>
      <point x="317.95" y="267.54999999999995" type="curve" smooth="yes"/>
      <point x="317.95" y="61.800000000000004"/>
      <point x="280.05" y="-10.0"/>
    </contour>
    <contour>
      <point x="173.5" y="35.650000000000006" type="curve" smooth="yes"/>
      <point x="239.15" y="35.650000000000006"/>
      <point x="264.85" y="83.14999999999999"/>
      <point x="264.85" y="267.54999999999995" type="curve" smooth="yes"/>
      <point x="264.85" y="450.8"/>
      <point x="240.6" y="498.65"/>
      <point x="173.5" y="498.65" type="curve" smooth="yes"/>
      <point x="106.14999999999999" y="498.65"/>
      <point x="82.2" y="450.8"/>
      <point x="82.2" y="267.54999999999995" type="curve" smooth="yes"/>
      <point x="82.2" y="83.14999999999999"/>
      <point x="107.7" y="35.650000000000006"/>
    </contour>
    <contour>
      <point x="27.25" y="-8.2" type="line"/>
      <point x="71.55000000000001" y="88.75" type="line"/>
      <point x="74.5" y="88.05" type="line"/>
      <point x="251.05" y="490.54999999999995" type="line"/>
      <point x="254.59999999999997" y="489.85" type="line"/>
      <point x="279.65" y="544.0" type="line"/>
      <point x="319.59999999999997" y="544.0" type="line"/>
      <point x="277.9" y="453.5" type="line"/>
      <point x="274.65" y="454.2" type="line"/>
      <point x="97.25" y="49.349999999999994" type="line"/>
      <point x="93.7" y="50.050000000000004" type="line"/>
      <point x="67.0" y="-8.2" type="line"/>
    </contour>
  </outline>
</glyph>
<glyph name="thorn" format="2">
  <advance width="346.48"/>
  <unicode hex="00FE"/>
  <outline>
    <contour>
      <point x="46.1" y="-210.0" type="line"/>
      <point x="99.25999999999999" y="-210.0" type="line"/>
      <point x="99.25999999999999" y="-2.1" type="line"/>
      <point x="120.94000000000001" y="-7.82"/>
      <point x="140.14000000000001" y="-10.0"/>
      <point x="157.68" y="-10.0" type="curve" smooth="yes"/>
      <point x="272.72" y="-10.0"/>
      <point x="317.3" y="68.82000000000001"/>
      <point x="317.3" y="278.42" type="curve" smooth="yes"/>
      <point x="317.3" y="452.53999999999996"/>
      <point x="272.90000000000003" y="544.0"/>
      <point x="187.32" y="544.0" type="curve" smooth="yes"/>
      <point x="158.68" y="544.0"/>
      <point x="123.58000000000001" y="534.38"/>
      <point x="99.62" y="521.64" type="curve"/>
      <point x="99.62" y="740.0" type="line"/>
      <point x="46.1" y="740.0" type="line"/>
    </contour>
    <contour>
      <point x="154.86" y="33.66" type="curve" smooth="yes"/>
      <point x="139.64000000000001" y="33.66"/>
      <point x="124.98" y="36.1"/>
      <point x="99.78" y="42.5" type="curve"/>
      <point x="99.78" y="474.98" type="line"/>
      <point x="126.64" y="489.73999999999995"/>
      <point x="145.95999999999998" y="494.68"/>
      <point x="169.96" y="494.68" type="curve" smooth="yes"/>
      <point x="230.46" y="494.68"/>
      <point x="261.73999999999995" y="421.28"/>
      <point x="261.73999999999995" y="274.35999999999996" type="curve" smooth="yes"/>
      <point x="261.73999999999995" y="92.4"/>
      <point x="233.38" y="33.66"/>
    </contour>
  </outline>
</glyph>
<glyph name="Dcroat" format="2">
  <advance width="405.12999999999994"/>
  <unicode hex="0110"/>
  <outline>
    <contour>
      <point x="4.3999999999999995" y="333.40000000000003" type="line"/>
      <point x="206.98999999999998" y="333.40000000000003" type="line"/>
      <point x="206.98999999999998" y="382.55" type="line"/>
      <point x="4.3999999999999995" y="382.55" type="line"/>
    </contour>
    <component base="D" xOffset="5.129999999999999"/>
  </outline>
</glyph>
<glyph name="dcroat" format="2">
  <advance width="348.24999999999994"/>
  <unicode hex="0111"/>
  <outline>
    <contour>
      <point x="150.16" y="614.9499999999999" type="line"/>
      <point x="350.33" y="614.9499999999999" type="line"/>
      <point x="350.33" y="651.25" type="line"/>
      <point x="150.16" y="651.25" type="line"/>
    </contour>
    <component base="d"/>
  </outline>
</glyph>
<glyph name="Hbar" format="2">
  <advance width="417.76"/>
  <unicode hex="0126"/>
  <outline>
    <contour>
      <point x="12.700000000000001" y="501.70000000000005" type="line"/>
      <point x="47.8" y="501.70000000000005" type="line"/>
      <point x="47.8" y="0.0" type="line"/>
      <point x="101.7" y="0.0" type="line"/>
      <point x="101.7" y="277.99999999999994" type="line"/>
      <point x="316.25999999999993" y="277.99999999999994" type="line"/>
      <point x="316.25999999999993" y="0.0" type="line"/>
      <point x="369.96" y="0.0" type="line"/>
      <point x="369.96" y="501.70000000000005" type="line"/>
      <point x="405.05999999999995" y="501.70000000000005" type="line"/>
      <point x="405.05999999999995" y="545.32" type="line"/>
      <point x="369.96" y="545.32" type="line"/>
      <point x="369.96" y="700.0" type="line"/>
      <point x="316.25999999999993" y="700.0" type="line"/>
      <point x="316.25999999999993" y="545.32" type="line"/>
      <point x="101.7" y="545.32" type="line"/>
      <point x="101.7" y="700.0" type="line"/>
      <point x="47.8" y="700.0" type="line"/>
      <point x="47.8" y="545.32" type="line"/>
      <point x="12.700000000000001" y="545.32" type="line"/>
    </contour>
    <contour>
      <point x="101.7" y="331.38" type="line"/>
      <point x="101.7" y="501.70000000000005" type="line"/>
      <point x="316.25999999999993" y="501.70000000000005" type="line"/>
      <point x="316.25999999999993" y="331.38" type="line"/>
    </contour>
  </outline>
</glyph>
<glyph name="hbar" format="2">
  <advance width="352.16999999999996"/>
  <unicode hex="0127"/>
  <outline>
    <contour>
      <point x="-0.6900000000000002" y="614.95" type="line"/>
      <point x="200.53000000000003" y="614.95" type="line"/>
      <point x="200.53000000000003" y="651.25" type="line"/>
      <point x="-0.6900000000000002" y="651.25" type="line"/>
    </contour>
    <component base="h"/>
  </outline>
</glyph>
<glyph name="Idotaccent" format="2">
  <advance width="149.46"/>
  <unicode hex="0130"/>
  <outline>
    <contour>
      <point x="75.0" y="791.8199999999999" type="curve" smooth="yes"/>
      <point x="100.47999999999999" y="791.8199999999999"/>
      <point x="107.68" y="800.0400000000001"/>
      <point x="107.68" y="827.42" type="curve" smooth="yes"/>
      <point x="107.68" y="855.16"/>
      <point x="100.12" y="863.1999999999999"/>
      <point x="75.0" y="863.1999999999999" type="curve" smooth="yes"/>
      <point x="49.7" y="863.1999999999999"/>
      <point x="42.14" y="855.16"/>
      <point x="42.14" y="827.42" type="curve" smooth="yes"/>
      <point x="42.14" y="799.86"/>
      <point x="50.50000000000001" y="791.8199999999999"/>
    </contour>
    <component base="I"/>
  </outline>
</glyph>
<glyph name="dotlessi" format="2">
  <advance width="146.23999999999998"/>
  <unicode hex="0131"/>
  <anchor x="98.74000000000001" y="2.0" name="ogonek"/>
  <anchor x="73.48" y="0.0" name="bottom"/>
  <anchor x="73.11999999999999" y="534.0" name="top"/>
  <outline>
    <contour>
      <point x="46.1" y="0.0" type="line"/>
      <point x="100.14" y="0.0" type="line"/>
      <point x="100.14" y="534.0" type="line"/>
      <point x="46.1" y="534.0" type="line"/>
    </contour>
  </outline>
</glyph>
<glyph name="kgreenlandic" format="2">
  <advance width="326.65"/>
  <unicode hex="0138"/>
  <anchor x="170.1" y="534.0" name="top"/>
  <anchor x="170.1" y="0.0" name="bottom"/>
  <outline>
    <contour>
      <point x="311.1" y="-7.2" type="curve" smooth="yes"/>
      <point x="318.84999999999997" y="-7.2"/>
      <point x="326.45" y="-5.6000000000000005"/>
      <point x="333.0" y="-3.4499999999999997" type="curve"/>
      <point x="331.15000000000003" y="53.5" type="line"/>
      <point x="327.1" y="52.9"/>
      <point x="322.4" y="51.9"/>
      <point x="318.85" y="51.9" type="curve" smooth="yes"/>
      <point x="298.29999999999995" y="51.9"/>
      <point x="284.75" y="63.0"/>
      <point x="216.14999999999998" y="170.85" type="curve" smooth="yes"/>
      <point x="97.6" y="357.05" type="line"/>
      <point x="97.6" y="534.0" type="line"/>
      <point x="46.2" y="534.0" type="line"/>
      <point x="46.2" y="0.0" type="line"/>
      <point x="97.6" y="0.0" type="line"/>
      <point x="97.6" y="266.65" type="line"/>
      <point x="196.9" y="111.4" type="line" smooth="yes"/>
      <point x="266.15000000000003" y="3.5999999999999996"/>
      <point x="279.84999999999997" y="-7.2"/>
    </contour>
    <contour>
      <point x="154.8" y="234.35" type="line"/>
      <point x="213.3" y="312.3"/>
      <point x="284.05" y="409.95000000000005"/>
      <point x="308.85" y="532.3000000000001" type="curve"/>
      <point x="257.3" y="540.1" type="line"/>
      <point x="233.55" y="414.9"/>
      <point x="174.0" y="340.0"/>
      <point x="120.8" y="270.55" type="curve"/>
    </contour>
  </outline>
</glyph>
<glyph name="Ldot" format="2">
  <advance width="300.7"/>
  <unicode hex="013F"/>
  <outline>
    <contour>
      <point x="199.88000000000002" y="366.98" type="curve" smooth="yes"/>
      <point x="199.88000000000002" y="343.68"/>
      <point x="204.9" y="337.59999999999997"/>
      <point x="225.2" y="337.59999999999997" type="curve" smooth="yes"/>
      <point x="246.48000000000002" y="337.59999999999997"/>
      <point x="250.7" y="343.68"/>
      <point x="250.7" y="366.98" type="curve" smooth="yes"/>
      <point x="250.7" y="390.48"/>
      <point x="246.48000000000002" y="396.56"/>
      <point x="225.2" y="396.56" type="curve" smooth="yes"/>
      <point x="204.1" y="396.56"/>
      <point x="199.88000000000002" y="390.48"/>
    </contour>
    <component base="L"/>
  </outline>
</glyph>
<glyph name="ldot" format="2">
  <advance width="200.7"/>
  <unicode hex="0140"/>
  <outline>
    <contour>
      <point x="173.10000000000002" y="332.68" type="curve" smooth="yes"/>
      <point x="192.3" y="332.68"/>
      <point x="197.14000000000001" y="338.15999999999997"/>
      <point x="197.14000000000001" y="361.74" type="curve" smooth="yes"/>
      <point x="197.14000000000001" y="385.5"/>
      <point x="192.3" y="390.97999999999996"/>
      <point x="173.10000000000002" y="390.97999999999996" type="curve" smooth="yes"/>
      <point x="154.07999999999998" y="390.97999999999996"/>
      <point x="149.23999999999998" y="385.5"/>
      <point x="149.23999999999998" y="361.74" type="curve" smooth="yes"/>
      <point x="149.23999999999998" y="338.15999999999997"/>
      <point x="154.88" y="332.68"/>
    </contour>
    <component base="l"/>
  </outline>
</glyph>
<glyph name="Lslash" format="2">
  <advance width="321.03999999999996"/>
  <unicode hex="0141"/>
  <outline>
    <contour>
      <point x="20.4" y="209.00000000000003" type="line"/>
      <point x="68.12" y="250.1" type="line"/>
      <point x="68.12" y="0.0" type="line"/>
      <point x="313.34" y="0.0" type="line"/>
      <point x="313.34" y="52.12" type="line"/>
      <point x="122.19999999999999" y="52.12" type="line"/>
      <point x="122.19999999999999" y="283.03999999999996" type="line"/>
      <point x="258.96000000000004" y="397.6" type="line"/>
      <point x="258.96000000000004" y="454.12" type="line"/>
      <point x="122.19999999999999" y="340.28" type="line"/>
      <point x="122.19999999999999" y="700.0" type="line"/>
      <point x="68.12" y="700.0" type="line"/>
      <point x="68.12" y="307.34000000000003" type="line"/>
      <point x="20.4" y="266.24" type="line"/>
    </contour>
  </outline>
</glyph>
<glyph name="lslash" format="2">
  <advance width="183.06"/>
  <unicode hex="0142"/>
  <outline>
    <contour>
      <point x="128.48000000000002" y="-10.0" type="curve" smooth="yes"/>
      <point x="146.26000000000002" y="-10.0"/>
      <point x="165.35999999999999" y="-5.12"/>
      <point x="180.78" y="1.6200000000000003" type="curve"/>
      <point x="175.10000000000002" y="52.08" type="line"/>
      <point x="160.08" y="47.56"/>
      <point x="149.55999999999997" y="45.92"/>
      <point x="141.16" y="45.92" type="curve" smooth="yes"/>
      <point x="117.53999999999999" y="45.92"/>
      <point x="102.14" y="58.26"/>
      <point x="102.14" y="141.12" type="curve" smooth="yes"/>
      <point x="102.14" y="289.40000000000003" type="line"/>
      <point x="175.2" y="359.12000000000006" type="line"/>
      <point x="175.2" y="411.20000000000005" type="line"/>
      <point x="102.14" y="341.48" type="line"/>
      <point x="102.14" y="740.0" type="line"/>
      <point x="48.64" y="740.0" type="line"/>
      <point x="48.64" y="294.78" type="line"/>
      <point x="3.46" y="251.92000000000002" type="line"/>
      <point x="3.46" y="200.56" type="line"/>
      <point x="48.68" y="242.72000000000003" type="line"/>
      <point x="48.72" y="130.96" type="line" smooth="yes"/>
      <point x="49.06" y="14.94"/>
      <point x="76.0" y="-10.0"/>
    </contour>
  </outline>
</glyph>
<glyph name="Eng" format="2">
  <advance width="416.05"/>
  <unicode hex="014A"/>
  <outline>
    <contour>
      <point x="47.849999999999994" y="0.0" type="line"/>
      <point x="97.3" y="0.0" type="line"/>
      <point x="97.3" y="568.2" type="line"/>
      <point x="315.6" y="3.499999999999999" type="line"/>
      <point x="315.6" y="-11.7" type="line" smooth="yes"/>
      <point x="315.2" y="-75.60000000000001"/>
      <point x="283.65" y="-100.1"/>
      <point x="225.45" y="-100.1" type="curve" smooth="yes"/>
      <point x="215.15" y="-100.1"/>
      <point x="202.95" y="-99.0"/>
      <point x="192.1" y="-96.2" type="curve"/>
      <point x="184.9" y="-145.0" type="line"/>
      <point x="197.85" y="-149.85"/>
      <point x="214.8" y="-153.8"/>
      <point x="234.4" y="-153.8" type="curve" smooth="yes"/>
      <point x="333.75" y="-153.8"/>
      <point x="368.2" y="-97.5"/>
      <point x="368.2" y="-11.1" type="curve" smooth="yes"/>
      <point x="368.2" y="700.0" type="line"/>
      <point x="318.84999999999997" y="700.0" type="line"/>
      <point x="318.84999999999997" y="128.8" type="line"/>
      <point x="101.75" y="700.8" type="line"/>
      <point x="47.849999999999994" y="700.8" type="line"/>
    </contour>
  </outline>
</glyph>
<glyph name="eng" format="2">
  <advance width="352.26"/>
  <unicode hex="014B"/>
  <outline>
    <contour>
      <point x="306.52000000000004" y="15.0" type="curve"/>
      <point x="306.52000000000004" y="432.38" type="line" smooth="yes"/>
      <point x="306.52000000000004" y="509.5799999999999"/>
      <point x="267.32000000000005" y="544.0"/>
      <point x="208.85999999999999" y="544.0" type="curve" smooth="yes"/>
      <point x="167.68000000000004" y="544.0"/>
      <point x="128.96" y="529.7599999999999"/>
      <point x="96.1" y="509.03999999999996" type="curve"/>
      <point x="96.1" y="534.0" type="line"/>
      <point x="46.1" y="534.0" type="line"/>
      <point x="46.1" y="0.0" type="line"/>
      <point x="99.78" y="0.0" type="line"/>
      <point x="99.78" y="464.94" type="line"/>
      <point x="125.48" y="481.73999999999995"/>
      <point x="158.44000000000003" y="494.08"/>
      <point x="186.78000000000003" y="494.08" type="curve" smooth="yes"/>
      <point x="231.48000000000002" y="494.08"/>
      <point x="252.84000000000003" y="467.3"/>
      <point x="252.84000000000003" y="419.42" type="curve" smooth="yes"/>
      <point x="252.84000000000003" y="13.68" type="line" smooth="yes"/>
      <point x="252.84000000000003" y="-68.38"/>
      <point x="235.98000000000002" y="-120.78"/>
      <point x="205.28" y="-146.38000000000002" type="curve" smooth="yes"/>
      <point x="200.08" y="-150.46"/>
      <point x="194.26" y="-153.52"/>
      <point x="188.35999999999999" y="-155.77999999999997" type="curve"/>
      <point x="193.82" y="-209.52" type="line"/>
      <point x="204.51999999999998" y="-206.62000000000003"/>
      <point x="214.82" y="-202.24"/>
      <point x="225.82000000000002" y="-197.44" type="curve" smooth="yes"/>
      <point x="277.62" y="-168.0"/>
      <point x="306.52000000000004" y="-97.86"/>
    </contour>
  </outline>
</glyph>
<glyph name="OE" format="2">
  <advance width="584.82"/>
  <unicode hex="0152"/>
  <outline>
    <contour>
      <point x="569.6499999999999" y="0.0" type="line"/>
      <point x="569.6499999999999" y="52.900000000000006" type="line"/>
      <point x="352.46000000000004" y="52.900000000000006" type="line"/>
      <point x="352.46000000000004" y="336.05" type="line"/>
      <point x="539.4399999999999" y="336.05" type="line"/>
      <point x="539.4399999999999" y="387.34999999999997" type="line"/>
      <point x="352.46000000000004" y="387.34999999999997" type="line"/>
      <point x="352.46000000000004" y="646.4499999999999" type="line"/>
      <point x="557.56" y="646.4499999999999" type="line"/>
      <point x="557.56" y="700.0" type="line"/>
      <point x="343.31" y="700.0" type="line"/>
      <point x="306.52000000000004" y="704.01"/>
      <point x="266.08000000000004" y="705.6600000000001"/>
      <point x="228.60999999999999" y="705.6600000000001" type="curve" smooth="yes"/>
      <point x="105.44000000000001" y="705.6600000000001"/>
      <point x="29.890000000000004" y="642.9200000000001"/>
      <point x="29.890000000000004" y="351.36000000000007" type="curve" smooth="yes"/>
      <point x="29.890000000000004" y="64.24"/>
      <point x="105.93" y="-7.14"/>
      <point x="227.41" y="-7.14" type="curve" smooth="yes"/>
      <point x="264.21" y="-7.14"/>
      <point x="305.59" y="-4.95"/>
      <point x="352.31" y="0.0" type="curve"/>
    </contour>
    <contour>
      <point x="298.26000000000005" y="46.49" type="line"/>
      <point x="280.11" y="44.49"/>
      <point x="253.79999999999995" y="42.720000000000006"/>
      <point x="232.05" y="42.720000000000006" type="curve" smooth="yes"/>
      <point x="142.73" y="42.720000000000006"/>
      <point x="86.14000000000001" y="91.28999999999999"/>
      <point x="86.14000000000001" y="350.5" type="curve" smooth="yes"/>
      <point x="86.14000000000001" y="611.9499999999999"/>
      <point x="143.89999999999998" y="656.29"/>
      <point x="234.09" y="656.29" type="curve" smooth="yes"/>
      <point x="249.90999999999997" y="656.29"/>
      <point x="281.59000000000003" y="654.3"/>
      <point x="298.26000000000005" y="652.4200000000001" type="curve"/>
    </contour>
  </outline>
</glyph>
<glyph name="oe" format="2">
  <advance width="571.66"/>
  <unicode hex="0153"/>
  <outline>
    <contour>
      <point x="29.18" y="267.43" type="curve" smooth="yes"/>
      <point x="29.18" y="61.58"/>
      <point x="66.92" y="-10.0"/>
      <point x="173.81" y="-10.0" type="curve" smooth="yes"/>
      <point x="242.56" y="-10.0"/>
      <point x="272.17999999999995" y="25.07"/>
      <point x="290.55" y="101.22" type="curve"/>
      <point x="310.43" y="26.37"/>
      <point x="349.4" y="-10.0"/>
      <point x="418.88" y="-10.0" type="curve" smooth="yes"/>
      <point x="459.51" y="-10.0"/>
      <point x="503.76000000000005" y="-1.4"/>
      <point x="538.15" y="12.26" type="curve"/>
      <point x="529.44" y="59.49" type="line"/>
      <point x="492.8" y="47.400000000000006"/>
      <point x="453.98" y="41.06"/>
      <point x="423.19" y="41.06" type="curve" smooth="yes"/>
      <point x="361.49" y="41.06"/>
      <point x="317.89" y="82.36"/>
      <point x="317.89" y="229.24" type="curve" smooth="yes"/>
      <point x="317.89" y="242.5"/>
      <point x="317.87" y="257.36"/>
      <point x="318.09999999999997" y="271.12" type="curve"/>
      <point x="421.88" y="272.12"/>
      <point x="507.35999999999996" y="282.64"/>
      <point x="546.02" y="288.0" type="curve"/>
      <point x="546.22" y="294.64"/>
      <point x="547.22" y="304.12"/>
      <point x="547.22" y="319.54" type="curve" smooth="yes"/>
      <point x="547.22" y="476.94"/>
      <point x="501.62" y="544.0"/>
      <point x="411.03999999999996" y="544.0" type="curve" smooth="yes"/>
      <point x="349.42" y="544.0"/>
      <point x="314.83" y="507.24"/>
      <point x="293.67" y="429.15000000000003" type="curve"/>
      <point x="273.77000000000004" y="507.47"/>
      <point x="243.69" y="544.0"/>
      <point x="173.81" y="544.0" type="curve" smooth="yes"/>
      <point x="65.14999999999999" y="544.0"/>
      <point x="29.18" y="471.78"/>
    </contour>
    <contour>
      <point x="84.03999999999999" y="267.40999999999997" type="curve" smooth="yes"/>
      <point x="84.03999999999999" y="448.46"/>
      <point x="107.79" y="496.13"/>
      <point x="173.79" y="496.13" type="curve" smooth="yes"/>
      <point x="239.38" y="496.13"/>
      <point x="263.28999999999996" y="448.46"/>
      <point x="263.28999999999996" y="267.40999999999997" type="curve" smooth="yes"/>
      <point x="263.28999999999996" y="85.21"/>
      <point x="238.1" y="38.05"/>
      <point x="173.79" y="38.05" type="curve" smooth="yes"/>
      <point x="109.30000000000001" y="38.05"/>
      <point x="84.03999999999999" y="85.21"/>
    </contour>
    <contour>
      <point x="318.28999999999996" y="307.74" type="curve"/>
      <point x="326.21000000000004" y="467.32"/>
      <point x="362.52" y="499.83000000000004"/>
      <point x="410.48" y="499.83000000000004" type="curve" smooth="yes"/>
      <point x="461.43" y="499.83000000000004"/>
      <point x="493.46" y="453.89"/>
      <point x="493.76" y="319.21" type="curve"/>
      <point x="470.79" y="314.38"/>
      <point x="392.45000000000005" y="307.76"/>
    </contour>
  </outline>
</glyph>
<glyph name="uni0162" format="2">
  <advance width="327.91999999999996"/>
  <unicode hex="0162"/>
  <outline>
    <contour>
      <point x="100.76" y="-171.3" type="curve"/>
      <point x="95.13999999999999" y="-207.64" type="line"/>
      <point x="114.89999999999999" y="-217.16"/>
      <point x="134.0" y="-220.0"/>
      <point x="149.44" y="-220.0" type="curve" smooth="yes"/>
      <point x="199.67999999999998" y="-220.0"/>
      <point x="218.64000000000001" y="-180.83999999999997"/>
      <point x="218.64000000000001" y="-134.92" type="curve" smooth="yes"/>
      <point x="218.64000000000001" y="-93.74"/>
      <point x="198.64" y="-38.28"/>
      <point x="181.79999999999998" y="1.6800000000000002" type="curve"/>
      <point x="143.10000000000002" y="1.2800000000000002" type="line"/>
      <point x="163.51999999999998" y="-46.160000000000004"/>
      <point x="180.23999999999998" y="-91.78"/>
      <point x="180.23999999999998" y="-125.68" type="curve" smooth="yes"/>
      <point x="180.23999999999998" y="-160.64"/>
      <point x="164.78" y="-180.78"/>
      <point x="139.4" y="-180.78" type="curve" smooth="yes"/>
      <point x="127.42" y="-180.78"/>
      <point x="114.8" y="-177.46"/>
    </contour>
    <component base="T"/>
  </outline>
</glyph>
<glyph name="Tbar" format="2">
  <advance width="328.32"/>
  <unicode hex="0166"/>
  <outline>
    <contour>
      <point x="41.96" y="343.3" type="line"/>
      <point x="137.3" y="343.3" type="line"/>
      <point x="137.3" y="0.0" type="line"/>
      <point x="191.20000000000002" y="0.0" type="line"/>
      <point x="191.20000000000002" y="343.3" type="line"/>
      <point x="286.0" y="343.3" type="line"/>
      <point x="286.0" y="393.02" type="line"/>
      <point x="191.20000000000002" y="393.02" type="line"/>
      <point x="191.20000000000002" y="647.32" type="line"/>
      <point x="321.74" y="647.32" type="line"/>
      <point x="321.74" y="700.0" type="line"/>
      <point x="6.58" y="700.0" type="line"/>
      <point x="6.58" y="647.32" type="line"/>
      <point x="137.3" y="647.32" type="line"/>
      <point x="137.3" y="393.02" type="line"/>
      <point x="41.96" y="393.02" type="line"/>
    </contour>
  </outline>
</glyph>
<glyph name="tbar" format="2">
  <advance width="252.7"/>
  <unicode hex="0167"/>
  <outline>
    <contour>
      <point x="122.60000000000001" y="299.0" type="line"/>
      <point x="226.64" y="299.0" type="line"/>
      <point x="226.64" y="341.40000000000003" type="line"/>
      <point x="122.60000000000001" y="341.40000000000003" type="line"/>
      <point x="122.60000000000001" y="488.23999999999995" type="line"/>
      <point x="242.74" y="488.23999999999995" type="line"/>
      <point x="242.74" y="534.0" type="line"/>
      <point x="122.60000000000001" y="534.0" type="line"/>
      <point x="122.60000000000001" y="663.2" type="line"/>
      <point x="77.84000000000002" y="663.2" type="line"/>
      <point x="69.1" y="534.0" type="line"/>
      <point x="7.84" y="527.86" type="line"/>
      <point x="7.84" y="488.23999999999995" type="line"/>
      <point x="69.1" y="488.23999999999995" type="line"/>
      <point x="69.1" y="341.40000000000003" type="line"/>
      <point x="22.840000000000003" y="341.40000000000003" type="line"/>
      <point x="22.840000000000003" y="299.0" type="line"/>
      <point x="69.1" y="299.0" type="line"/>
      <point x="69.1" y="129.92" type="line" smooth="yes"/>
      <point x="69.1" y="44.98"/>
      <point x="93.68" y="-10.0"/>
      <point x="175.66" y="-10.0" type="curve" smooth="yes"/>
      <point x="197.58" y="-10.0"/>
      <point x="224.44" y="-6.94"/>
      <point x="253.08" y="3.54" type="curve"/>
      <point x="244.06" y="48.800000000000004" type="line"/>
      <point x="224.26" y="42.52"/>
      <point x="207.06" y="40.26"/>
      <point x="190.7" y="40.26" type="curve" smooth="yes"/>
      <point x="142.35999999999999" y="40.26"/>
      <point x="122.60000000000001" y="66.96"/>
      <point x="122.60000000000001" y="133.92" type="curve" smooth="yes"/>
    </contour>
  </outline>
</glyph>
<glyph name="uogonek" format="2">
  <advance width="359.54"/>
  <unicode hex="0173"/>
  <outline>
    <contour>
      <point x="328.1" y="-217.36" type="curve" smooth="yes"/>
      <point x="343.59999999999997" y="-217.36"/>
      <point x="354.85999999999996" y="-214.23999999999998"/>
      <point x="365.35999999999996" y="-208.72" type="curve"/>
      <point x="359.48" y="-169.76000000000002" type="line"/>
      <point x="353.54" y="-173.08"/>
      <point x="347.86000000000007" y="-174.16000000000003"/>
      <point x="340.73999999999995" y="-174.16000000000003" type="curve" smooth="yes"/>
      <point x="324.38" y="-174.16000000000003"/>
      <point x="310.22" y="-164.62"/>
      <point x="310.22" y="-131.94" type="curve" smooth="yes"/>
      <point x="310.22" y="-87.5"/>
      <point x="326.92" y="-45.58"/>
      <point x="359.26" y="2.64" type="curve"/>
      <point x="351.28" y="48.339999999999996" type="line"/>
      <point x="342.48" y="44.080000000000005"/>
      <point x="333.74" y="42.199999999999996"/>
      <point x="325.4" y="42.199999999999996" type="curve" smooth="yes"/>
      <point x="310.93999999999994" y="42.199999999999996"/>
      <point x="302.53999999999996" y="51.2"/>
      <point x="302.53999999999996" y="75.88" type="curve" smooth="yes"/>
      <point x="302.53999999999996" y="534.0" type="line"/>
      <point x="249.04" y="534.0" type="line"/>
      <point x="249.04" y="68.86000000000001" type="line"/>
      <point x="224.02" y="51.800000000000004"/>
      <point x="191.42" y="39.84"/>
      <point x="164.26000000000002" y="39.84" type="curve" smooth="yes"/>
      <point x="121.34" y="39.84"/>
      <point x="99.42" y="65.68"/>
      <point x="99.42" y="112.7" type="curve" smooth="yes"/>
      <point x="99.42" y="534.0" type="line"/>
      <point x="45.74" y="534.0" type="line"/>
      <point x="45.74" y="105.42" type="line" smooth="yes"/>
      <point x="45.74" y="21.900000000000002"/>
      <point x="88.04" y="-10.0"/>
      <point x="143.74" y="-10.0" type="curve" smooth="yes"/>
      <point x="183.92000000000002" y="-10.0"/>
      <point x="221.78" y="4.24"/>
      <point x="255.56" y="25.86" type="curve"/>
      <point x="262.90000000000003" y="3.4799999999999995"/>
      <point x="283.3" y="-10.0"/>
      <point x="308.88" y="-10.0" type="curve" smooth="yes"/>
      <point x="316.92" y="-10.0"/>
      <point x="325.34" y="-8.82"/>
      <point x="334.26" y="-6.72" type="curve"/>
      <point x="327.7" y="6.92" type="line"/>
      <point x="287.68" y="-48.62"/>
      <point x="265.56" y="-100.36000000000001"/>
      <point x="265.56" y="-146.22" type="curve" smooth="yes"/>
      <point x="265.56" y="-196.78"/>
      <point x="291.56" y="-217.36"/>
    </contour>
  </outline>
</glyph>
